<svg xmlns="http://www.w3.org/2000/svg" viewBox="0 0 829.79 462.09"><defs><style>.bf6fe00a-5063-442c-8ad9-1ea9134ecf5a{fill:#6c63ff;opacity:0.1;isolation:isolate;}</style></defs><g id="e9ecc038-923f-4a65-9e66-fded5df8ec78" data-name="Layer 2"><g id="a0dfd504-1e02-4f55-8382-46a8a38edd64" data-name="Layer 1"><g id="a7e06747-4273-48c7-95dc-3b14b1e93ed4" data-name="icon trabajamos mobile"><path id="ed834e3f-79dd-46a6-8129-f5640b37f75a" data-name="Path 1051" class="bf6fe00a-5063-442c-8ad9-1ea9134ecf5a" d="M829.79,302a131,131,0,0,1-18.95,68.09c0,25.11-11.71,47.88-30.7,64.46a103.9,103.9,0,0,1-15.29,11.08c-.21.14-.44.27-.66.4l-1.23.73-.39.22h0c-1.74,1-3.5,1.92-5.3,2.81a120.31,120.31,0,0,1-53.51,12.33H157.52q-6.53,0-12.94-.52a153.37,153.37,0,0,1-44.29-10.25q-4.14-1.63-8.12-3.53c-1.27-.59-2.53-1.2-3.77-1.83-.78-.39-1.56-.8-2.33-1.21a138.21,138.21,0,0,1-13.53-8.23,133.79,133.79,0,0,1-11.46-8.79C36.4,406.55,21.13,377.24,21.13,344.9A130.92,130.92,0,0,1,0,273.32c0-71.91,57.48-130.2,128.39-130.2,2.17,0,4.35.07,6.52.18a7.25,7.25,0,0,1,.93,0A221.23,221.23,0,0,1,183,87.77c52.4-44.9,129-73.2,214.29-73.2,71.67,0,137.19,20,187.38,53A126.35,126.35,0,0,1,647,51.21c70.9,0,128.39,58.3,128.39,130.21a131.77,131.77,0,0,1-.73,13.62A130.56,130.56,0,0,1,829.79,302Z"/><circle id="f59191cf-61ca-448c-9e1c-a633b56b2af8" data-name="Ellipse 597" class="bf6fe00a-5063-442c-8ad9-1ea9134ecf5a" cx="49.34" cy="102.4" r="15.69"/><circle id="a8823671-a0a3-40bf-9a46-61e279b10790" data-name="Ellipse 598" class="bf6fe00a-5063-442c-8ad9-1ea9134ecf5a" cx="114.73" cy="15.69" r="15.69"/><circle id="adfa4c34-0f88-4a59-8056-f4b51f45af05" data-name="Ellipse 599" class="bf6fe00a-5063-442c-8ad9-1ea9134ecf5a" cx="109.41" cy="75.26" r="26.29"/></g></g></g></svg>