<svg xmlns="http://www.w3.org/2000/svg" viewBox="0 0 759.59 546.25"><defs><style>.f5a2777c-1333-43a0-9af1-9c17ecce22d3{fill:#6c63ff;opacity:0.1;isolation:isolate;}</style></defs><g id="e77d781f-87b3-48fc-9987-915b2641d040" data-name="Layer 2"><g id="a6286dff-3431-4f6a-a740-bd598af157a6" data-name="Layer 1"><g id="fe65ff82-df4a-4adc-b6fd-290285e4c1be" data-name="icon branding web"><path id="f4f8b789-b9ec-4a61-8a32-7fd1b5efb2f0" data-name="Path 1547-2" class="f5a2777c-1333-43a0-9af1-9c17ecce22d3" d="M441.33,90.05C392.64,88.24,346.26,71.35,302,52.87s-88.16-39-135.73-48.74c-30.54-6.3-65.5-7.19-90.13,10.41-23.7,17-31.37,46.2-35.48,73.34-3.1,20.42-4.92,41.91,3.56,61,5.9,13.27,16.36,24.43,23.6,37.19,25.18,44.23,7.38,98.78-19.9,142-12.79,20.26-27.65,39.61-37.53,61.16s-14.45,46.28-5.8,68.28c8.56,21.83,29,38.19,51.09,49.72,44.91,23.39,97.81,30.09,149.43,33.88,114.24,8.41,229.08,4.76,343.62,1.13,42.39-1.35,85-2.72,126.66-9.76,23.16-3.91,47.06-10.12,63.87-25.06,21.35-19,26.64-51.24,12.33-75.09-24-40-90.29-49.95-107.07-92.89-9.23-23.62.24-49.95,13.66-71.87,28.77-47,77-88.27,79.53-142,1.75-36.91-21.43-73.88-57.28-91.35C642.84,15.9,590.74,18.2,563,48.51,534.49,79.65,484.33,91.66,441.33,90.05Z"/></g></g></g></svg>