<svg xmlns="http://www.w3.org/2000/svg" xmlns:xlink="http://www.w3.org/1999/xlink" width="2027" height="1894.218" viewBox="0 0 2027 1894.218">
  <defs>
    <style>
      .cls-1 {
        fill: #fff;
      }

      .cls-2 {
        filter: url(#Union_2);
      }
    </style>
    <filter id="Union_2" x="0" y="0" width="2027" height="1894.218" filterUnits="userSpaceOnUse">
      <feOffset dy="2" input="SourceAlpha"/>
      <feGaussianBlur stdDeviation="49.5" result="blur"/>
      <feFlood flood-opacity="0.161"/>
      <feComposite operator="in" in2="blur"/>
      <feComposite in="SourceGraphic"/>
    </filter>
  </defs>
  <g class="cls-2" transform="matrix(1, 0, 0, 1, 0, 0)">
    <path id="Union_2-2" data-name="Union 2" class="cls-1" d="M-4845,1556.217a20,20,0,0,1-20-20V149.48a20,20,0,0,1,20-20h154.156a187.023,187.023,0,0,1,7.682-23.26l55.329-137.531c5.2-12.919,16.547-12.919,21.745,0l58.32,137.531a235.769,235.769,0,0,1,8.16,23.26H-3155a20,20,0,0,1,20,20V1536.217a20,20,0,0,1-20,20Z" transform="translate(5013.5 187.5)"/>
  </g>
</svg>
