<svg xmlns="http://www.w3.org/2000/svg" viewBox="0 0 49.05 49.05"><defs><style>.a6c8fcee-ca7e-42de-a9d3-51dd1e3a0908{fill:#455a64;}.ea9ecfd6-5bc9-46fd-ad2f-d9508a0c5463{fill:#fff;}</style></defs><g id="befb499d-af7b-4c6d-aade-132100c6fc7b" data-name="Layer 2"><g id="fe0d7e44-42a4-47e3-a001-9d2b5fc83c7a" data-name="Layer 1"><g id="fc9c5367-de68-4a9a-a855-3ac670c7de48" data-name="phone web"><g id="e13943ff-8d96-4ed6-aefc-fe955e5745d9" data-name="Group 432"><g id="aa8d7891-381c-4769-bf0d-797855d5866c" data-name="Icons"><g id="b5d8ad72-5d79-41ed-ac23-d2f760970245" data-name="Group 431"><path id="a562ecba-43c2-46dc-98ac-fb806bb4dacf" data-name="Path 1204" class="a6c8fcee-ca7e-42de-a9d3-51dd1e3a0908" d="M24.52,49.05h0A24.54,24.54,0,0,1,0,24.52H0A24.52,24.52,0,0,1,24.52,0h0A24.52,24.52,0,0,1,49.05,24.52h0A24.53,24.53,0,0,1,24.52,49.05Z"/><path id="f7b755c8-1fdb-4115-943e-7c45d927edd6" data-name="Path 1205" class="ea9ecfd6-5bc9-46fd-ad2f-d9508a0c5463" d="M20.79,39.34h6v-15h4.16l.44-5h-4.6V16.54c0-1.18.23-1.65,1.37-1.65h3.23V9.69H27.23c-4.44,0-6.45,2-6.45,5.7v4h-3.1v5.07h3.1Z"/></g></g></g></g></g></g></svg>