<svg xmlns="http://www.w3.org/2000/svg" xmlns:xlink="http://www.w3.org/1999/xlink" viewBox="0 0 824.99 603.51"><defs><style>.eab5dffb-b8a9-4865-b9b3-2b5622cfe0d5{opacity:0.9;}.a5e39c8c-4067-41e3-b14f-7289acddd870,.edfa146e-c217-45c5-9994-55caf83e8f8c{fill:#3a3768;}.fbe7dd34-12a5-425b-a23a-aa0dd716a319{fill:#e6e8ec;}.a3444ce0-07a1-4848-a337-faf5f6962665,.a57c1129-a39d-4505-af30-5688b3efe459{fill:#6c63ff;}.a57c1129-a39d-4505-af30-5688b3efe459,.ab5e8a18-3183-4555-9af8-36c63805abd5,.ae9f3467-4b48-45e4-865b-4f28b630c95e{opacity:0.1;}.a57c1129-a39d-4505-af30-5688b3efe459,.a5e39c8c-4067-41e3-b14f-7289acddd870,.ae9f3467-4b48-45e4-865b-4f28b630c95e,.f863051f-70a7-4146-ac41-d5cabe8dce23,.fc16144b-1d8b-483f-b48c-465677cb918e{isolation:isolate;}.a71befb5-f6f7-44c2-b312-2e26c1140e26{fill:#ffd037;}.a22113b5-4d1b-4270-968a-d3e576690202{fill:#a8a8a8;}.fc16144b-1d8b-483f-b48c-465677cb918e{opacity:0.2;}.a5e39c8c-4067-41e3-b14f-7289acddd870{opacity:0.3;}.a5862f61-2cf2-49a9-a872-d7a69ac8f447{fill:#fff;}.ab757d53-406f-40da-b649-b5e0f37b2468{fill:#514e7f;}.f90a9b8d-c9a6-4e3f-a7cb-1e8abe605fa4{fill:#464353;}.fd5b037b-5853-442f-be3e-72fd0cb007ed{fill:#a1616a;}.f7e8c3eb-1e71-4bd3-821a-19591b1207b1{fill:#fbbebe;}.b5995228-db11-4bc1-b6a0-91b02f5f2540,.f863051f-70a7-4146-ac41-d5cabe8dce23{opacity:0.05;}.b28f1bc4-45ed-444c-8ca5-d8378b106496{fill:#3f3d56;}.bd2807b3-1de9-49f9-a1d2-73b80176f4c5{fill:url(#a890a9a8-a913-4333-8615-d4922c045e82);}.ba72ac58-5d97-4e26-b411-ce06297f3569{fill:#2d293d;}.f9b9bc55-947b-43b4-8867-018529035bfd{fill:#ffcdd3;}.f143e964-b13b-4cfa-85ad-5f2cd56c882a{fill:#dce6f2;}.ea6bc01a-ed55-437f-b554-1522fd95a77f{fill:#575988;}</style><linearGradient id="a890a9a8-a913-4333-8615-d4922c045e82" x1="121" y1="761.6" x2="121" y2="758.91" gradientTransform="matrix(39.61, 0, 0, -90.2, -4305.84, 66181.55)" gradientUnits="userSpaceOnUse"><stop offset="0" stop-color="gray" stop-opacity="0.25"/><stop offset="0.54" stop-color="gray" stop-opacity="0.12"/><stop offset="1" stop-color="gray" stop-opacity="0.1"/></linearGradient></defs><g id="a463be55-d5a2-4a86-a608-e760b59d5d24" data-name="Layer 2"><g id="a545aa45-6982-4304-a4e7-841f51cc3f87" data-name="Layer 1"><g id="ee2f5602-e405-4dea-9ade-af062f13d142" data-name="icon branding web"><g id="fac8dacf-f9a2-47ff-97b2-59a9fb9c08fc" data-name="Group 461" class="eab5dffb-b8a9-4865-b9b3-2b5622cfe0d5"><path id="bb966333-3f28-4e8c-8903-4597dcf3560c" data-name="Path 1548" class="edfa146e-c217-45c5-9994-55caf83e8f8c" d="M534.68,153.08h3.23a1.77,1.77,0,0,1,1.72,1.85v55.33a1.79,1.79,0,0,1-1.72,1.85h-3.23a1.8,1.8,0,0,1-1.73-1.85V154.93A1.79,1.79,0,0,1,534.68,153.08Z"/><path id="e1c86c12-50a7-437a-bcf3-413b345d8426" data-name="Path 1549" class="edfa146e-c217-45c5-9994-55caf83e8f8c" d="M313.14,106.84h.29a1.8,1.8,0,0,1,1.73,1.85v15.73a1.8,1.8,0,0,1-1.73,1.86h-.29a1.79,1.79,0,0,1-1.72-1.86V108.69A1.78,1.78,0,0,1,313.14,106.84Z"/><path id="f1842983-e642-4944-95d8-9f86b1415e6f" data-name="Path 1550" class="edfa146e-c217-45c5-9994-55caf83e8f8c" d="M313,142.42h.77a1.8,1.8,0,0,1,1.72,1.86v30.11a1.79,1.79,0,0,1-1.72,1.85H313a1.78,1.78,0,0,1-1.72-1.85V144.27A1.79,1.79,0,0,1,313,142.42Z"/><path id="a8b73fb2-f190-46eb-97af-29cc233db962" data-name="Path 1551" class="edfa146e-c217-45c5-9994-55caf83e8f8c" d="M313.07,188.07h.56a1.8,1.8,0,0,1,1.73,1.86h0v30.41a1.8,1.8,0,0,1-1.73,1.85h-.56a1.79,1.79,0,0,1-1.72-1.85h0v-30.4a1.78,1.78,0,0,1,1.71-1.86Z"/><path id="a71745f9-d53e-4018-b9c4-f7d4f00a4f60" data-name="Path 1552" class="edfa146e-c217-45c5-9994-55caf83e8f8c" d="M342.87,42.62H507.21c16.2,0,29.34,14.11,29.34,31.51v424c0,17.4-13.14,31.5-29.34,31.5H342.87c-16.2,0-29.34-14.11-29.34-31.5V74.14C313.54,56.74,326.67,42.62,342.87,42.62Z"/><path id="e50aa67d-81be-4c7b-b845-5c894779d784" data-name="Path 1553" class="fbe7dd34-12a5-425b-a23a-aa0dd716a319" d="M406.44,57.16h25.31a3,3,0,0,1,2.91,3.12v.54A3,3,0,0,1,431.75,64H406.44a3,3,0,0,1-2.92-3.13v-.54A3,3,0,0,1,406.44,57.16Z"/><ellipse id="b1328ecc-43fd-4d4b-8a1c-69ac748a106a" data-name="Ellipse 679" class="fbe7dd34-12a5-425b-a23a-aa0dd716a319" cx="442.97" cy="60.56" rx="3.59" ry="3.86"/></g><ellipse id="bd02b4b5-f059-454e-a13c-838c0d15677f" data-name="Ellipse 680" class="a57c1129-a39d-4505-af30-5688b3efe459" cx="179.1" cy="540.8" rx="150.46" ry="16.48"/><ellipse id="f75e3cad-85cf-4116-a65c-9503d280b728" data-name="Ellipse 681" class="a57c1129-a39d-4505-af30-5688b3efe459" cx="513.66" cy="595.79" rx="70.49" ry="7.72"/><ellipse id="bbcd5a66-9cd4-46d9-a014-7c45dfc46646" data-name="Ellipse 682" class="a57c1129-a39d-4505-af30-5688b3efe459" cx="754.5" cy="556.89" rx="70.49" ry="7.72"/><path id="b5f8fe46-199a-4d56-b943-353f8e113a02" data-name="Path 1554" class="a3444ce0-07a1-4848-a337-faf5f6962665" d="M505,55.3H479.53v3.31A15.15,15.15,0,0,1,465,74.28h-81.4A15.16,15.16,0,0,1,369,58.61h0v-3.3H345a18.39,18.39,0,0,0-17.71,19V497.87a18.4,18.4,0,0,0,17.7,19H505a18.4,18.4,0,0,0,17.71-19V74.33A18.4,18.4,0,0,0,505,55.3Z"/><path id="a4b5be0a-cd54-4e26-8dec-de8faa43b7d1" data-name="Path 1555" class="a3444ce0-07a1-4848-a337-faf5f6962665" d="M613.76,21.25s-63.36-4.1-55.89,43.59c0,0-1.5,8.43,5.63,12.26,0,0,.11-3.54,6.49-2.34a27.43,27.43,0,0,0,6.89.36,13.8,13.8,0,0,0,8.42-3.73h0S603.1,63.48,610,32.21c0,0,5.12-6.82,4.92-8.57l-10.69,4.9s3.65,8.29.75,15.18c0,0-.35-14.88-2.4-14.55-.42.07-5.56,2.88-5.56,2.88s6.29,14.42,1.51,24.92c0,0,1.8-17.78-3.5-23.88l-7.54,4.71s7.35,14.91,2.37,27.08c0,0,1.28-18.66-3.95-25.93l-6.81,5.71s6.89,14.69,2.69,24.78c0,0-.56-21.71-4.18-23.35a44.28,44.28,0,0,0-6.88,8s4.73,10.68,1.8,16.3c0,0-1.8-14.47-3.27-14.54,0,0-5.94,9.59-6.56,16.16a36.87,36.87,0,0,1,5.11-17.07A17.37,17.37,0,0,0,558.75,60s.92-6.77,10.53-7.37c0,0,4.91-7.27,6.23-7.72,0,0-9.6-.86-15.41,1.91,0,0,5.12-6.39,17.17-3.48L584,37.39s-12.62-1.85-18,.19c0,0,6.17-5.65,19.8-1.53l7.33-4.7A62.45,62.45,0,0,0,576,29.73s6.77-3.92,19.33.33l5.27-2.53s-7.9-1.67-10.21-1.93-2.42-1-2.42-1a25.57,25.57,0,0,1,14.92,1.83S613.94,22,613.76,21.25Z"/><path id="ffb563f5-b053-495b-a9b4-513612d97b6f" data-name="Path 1556" class="a3444ce0-07a1-4848-a337-faf5f6962665" d="M548.77,0s-28.58-1.85-25.24,19.7a5.44,5.44,0,0,0,2.53,5.54s.06-1.62,2.94-1.07a12.48,12.48,0,0,0,3.11.17,6.35,6.35,0,0,0,3.81-1.68h0S544,19.12,547.09,5c0,0,2.32-3.08,2.25-3.87l-4.82,2.22a10,10,0,0,1,.34,6.85s-.15-6.72-1.08-6.57c-.18,0-2.5,1.3-2.5,1.3s2.83,6.52.69,11.27c0,0,.81-8-1.58-10.79L537,7.53s3.32,6.73,1.08,12.23c0,0,.58-8.43-1.79-11.71l-3.08,2.58s3.12,6.64,1.22,11.2c0,0-.25-9.82-1.89-10.56a19.77,19.77,0,0,0-3.11,3.6s2.13,4.85.81,7.37c0,0-.81-6.54-1.51-6.58a22.93,22.93,0,0,0-3,7.27,16.62,16.62,0,0,1,2.31-7.7A7.87,7.87,0,0,0,524,17.51s.42-3.06,4.77-3.33a20.21,20.21,0,0,1,2.82-3.5,16.45,16.45,0,0,0-7,.87,7.5,7.5,0,0,1,7.75-1.62l3-2.66a24.32,24.32,0,0,0-8.12.08s2.79-2.55,8.95-.69l3.31-2.13a28.12,28.12,0,0,0-7.76-.72,11.17,11.17,0,0,1,8.73.15l2.37-1.14s-3.56-.75-4.61-.88-1.1-.42-1.1-.42a11.47,11.47,0,0,1,6.69.8A29.27,29.27,0,0,0,548.77,0Z"/><ellipse id="b54155fa-b70d-48df-9738-80581b60a455" data-name="Ellipse 683" class="a3444ce0-07a1-4848-a337-faf5f6962665" cx="30.25" cy="500.52" rx="30.25" ry="5.5"/><path id="ac6d20b3-ecdf-4bfe-88d0-9f0323c83aa9" data-name="Path 1557" class="a3444ce0-07a1-4848-a337-faf5f6962665" d="M42.76,491.53a9.52,9.52,0,0,0,2.89-4.68,4.3,4.3,0,0,0-2-4.76c-1.85-.77-3.83.62-5.33,2s-3.21,3-5.18,2.69a8.85,8.85,0,0,0,2.42-7.93,3.32,3.32,0,0,0-.67-1.62c-1-1.18-2.89-.67-4.13.27-3.91,3-5,8.67-5,13.81a27.36,27.36,0,0,1-.07-5.65,6.05,6.05,0,0,0-2-5,5.66,5.66,0,0,0-3-.77,6,6,0,0,0-4.92,1.51,5.5,5.5,0,0,0,.2,6.46A19.73,19.73,0,0,0,21,492.22,11.58,11.58,0,0,1,24.66,496a3.81,3.81,0,0,1,.27.66H36A30.7,30.7,0,0,0,42.76,491.53Z"/><path id="a1af9246-e31e-4502-ae5f-17d9cce71b73" data-name="Path 1558" class="a3444ce0-07a1-4848-a337-faf5f6962665" d="M624.93,423.68s6.51,9.16-3,23-17.36,25.47-14.19,34.08c0,0,14.36-25.64,26-26S637.78,439.11,624.93,423.68Z"/><path id="a529934c-c4e9-4bf6-a566-70d20a8dacca" data-name="Path 1559" class="ae9f3467-4b48-45e4-865b-4f28b630c95e" d="M624.93,423.68a11.77,11.77,0,0,1,1.33,2.88c11.4,14.39,17.47,27.82,6.51,28.15-10.21.32-22.45,19.93-25.38,24.88a11.28,11.28,0,0,0,.34,1.13s14.36-25.64,26-26S637.78,439.11,624.93,423.68Z"/><path id="fec95690-51d9-495f-9539-67fe20bdd199" data-name="Path 1560" class="a71befb5-f6f7-44c2-b312-2e26c1140e26" d="M637,435.37c0,3.24-.34,5.83-.76,5.83s-.75-2.61-.75-5.83.42-1.69.84-1.69S637,432.14,637,435.37Z"/><path id="a0c23c18-60c9-4a23-8d60-ddd3c3364007" data-name="Path 1561" class="a71befb5-f6f7-44c2-b312-2e26c1140e26" d="M641.18,439.19c-2.63,1.54-4.92,2.48-5.12,2.08s1.78-2,4.41-3.5,1.59-.42,1.8,0S643.81,437.65,641.18,439.19Z"/><path id="b8571dfe-c403-46c6-84f4-59030d2c8592" data-name="Path 1562" class="a3444ce0-07a1-4848-a337-faf5f6962665" d="M590.54,423.68s-6.51,9.16,3,23,17.36,25.47,14.19,34.08c0,0-14.35-25.64-26-26S577.7,439.11,590.54,423.68Z"/><path id="ab829f6a-361e-49fb-925a-f823877a0c25" data-name="Path 1563" class="ae9f3467-4b48-45e4-865b-4f28b630c95e" d="M590.54,423.68a11.44,11.44,0,0,0-1.34,2.88c-11.4,14.39-17.47,27.82-6.52,28.15,10.21.32,22.45,19.93,25.39,24.88a11.34,11.34,0,0,1-.35,1.13s-14.35-25.64-26-26S577.69,439.11,590.54,423.68Z"/><path id="f95fd799-8d1c-4308-a105-56959ee8289e" data-name="Path 1564" class="a71befb5-f6f7-44c2-b312-2e26c1140e26" d="M578.44,435.37c0,3.24.34,5.83.75,5.83s.76-2.61.76-5.83-.42-1.69-.84-1.69S578.44,432.14,578.44,435.37Z"/><path id="f1f451b7-8888-4e0c-894a-7d7a0029fa00" data-name="Path 1565" class="a71befb5-f6f7-44c2-b312-2e26c1140e26" d="M574.26,439.19c2.62,1.54,4.92,2.48,5.12,2.08s-1.77-2-4.41-3.5-1.59-.42-1.79,0S571.66,437.65,574.26,439.19Z"/><path id="a1be62ab-ab90-4a32-8912-ec4e176c71ed" data-name="Path 1566" class="a22113b5-4d1b-4270-968a-d3e576690202" d="M580.51,479.52s18.2-.6,23.69-4.8,28-9.21,29.35-2.48,27.35,33.48,6.77,33.66-47.75-3.44-53.22-7S580.51,479.52,580.51,479.52Z"/><path id="b0f4092e-5017-4f26-a956-b5f007e6f9a6" data-name="Path 1567" class="fc16144b-1d8b-483f-b48c-465677cb918e" d="M640.73,503.56c-20.55.17-47.75-3.45-53.22-7-4.18-2.72-5.83-12.52-6.39-17h-.6s1.14,15.77,6.62,19.35,32.68,7.2,53.22,7c5.92-.06,8-2.32,7.87-5.66C647.4,502.23,645.14,503.51,640.73,503.56Z"/><rect id="fa8a2526-f29b-4e96-87cd-a3109bde6e09" data-name="Rectangle 4111" class="a5e39c8c-4067-41e3-b14f-7289acddd870" x="439.81" y="346.36" width="58.71" height="63.08"/><rect id="fa20d797-5517-402a-81bf-92608ec771f1" data-name="Rectangle 4112" class="a5e39c8c-4067-41e3-b14f-7289acddd870" x="353.28" y="263.1" width="58.71" height="63.08"/><rect id="b73623cd-81c1-4a58-8fcc-ad62cb0381ad" data-name="Rectangle 4113" class="a5e39c8c-4067-41e3-b14f-7289acddd870" x="358.92" y="428.2" width="58.71" height="63.08"/><rect id="a2aa9cab-6815-421c-878a-49d848227711" data-name="Rectangle 4114" class="a5862f61-2cf2-49a9-a872-d7a69ac8f447" x="345.82" y="108.21" width="58.71" height="63.08"/><path id="e0739a12-7a92-4473-a65d-f942415e3371" data-name="Path 1568" class="a5862f61-2cf2-49a9-a872-d7a69ac8f447" d="M443.21,365.94l43.53-42.32,39.39,46.76L482.6,412.71Z"/><rect id="e6eebe3d-de7f-44be-993f-e89db9f3b080" data-name="Rectangle 4115" class="a5862f61-2cf2-49a9-a872-d7a69ac8f447" x="438.84" y="184.23" width="58.71" height="63.08"/><rect id="a4464fde-04eb-4f87-a407-bcd580b857bf" data-name="Rectangle 4116" class="a5862f61-2cf2-49a9-a872-d7a69ac8f447" x="364.62" y="254.56" width="58.71" height="63.08"/><path id="e98e8644-85d8-43ff-b539-288450436142" data-name="Path 1569" class="a3444ce0-07a1-4848-a337-faf5f6962665" d="M731.22,544.2a21.34,21.34,0,0,0,10.23-.38c.5-.17,1.08-.53,1-1.1a1.52,1.52,0,0,0-.23-.54,34.69,34.69,0,0,1-3.12-6.32.52.52,0,0,0-.19-.27.38.38,0,0,0-.33,0c-1.5.42-2.81,1.47-4.31,1.92a5.79,5.79,0,0,1-2.34.19c-.68-.08-1.62-.69-2.22-.61C730.1,539.47,731,541.75,731.22,544.2Z"/><path id="bae769f1-7ed8-425a-9d13-06415175209b" data-name="Path 1570" class="a3444ce0-07a1-4848-a337-faf5f6962665" d="M795.87,538a18,18,0,0,0,5.93-6,.82.82,0,0,0,0-1,20.26,20.26,0,0,0-4.81-5.58,14.73,14.73,0,0,0-2.69,2.66c-.57.64-2.13,1.69-2.16,2.65,0,.57.6,1.19.87,1.61.38.6.76,1.22,1.08,1.83A31.6,31.6,0,0,1,795.87,538Z"/><path id="a1342833-522c-44f1-8264-0b8a2952ecb9" data-name="Path 1571" class="ab757d53-406f-40da-b649-b5e0f37b2468" d="M744.61,551.61a2.57,2.57,0,0,1-.4,1.62,2,2,0,0,1-.87.54c-4.78,1.84-10.29-.46-15.05,1.34-1,.38-1.91.91-2.89,1.27a15.18,15.18,0,0,1-3.59.68c-1.69.18-3.39.27-5.08.33a11.42,11.42,0,0,1-3.82-.35,4.72,4.72,0,0,1-2.94-2.5,2.55,2.55,0,0,1-.14-1.78,1.76,1.76,0,0,1,.31-.57,4.8,4.8,0,0,1,1.12-1L713,550a11.23,11.23,0,0,1,2.67-1.52c.69-.25,1.43-.35,2.14-.57a15,15,0,0,0,6.11-4.91l2.39-2.74a2.37,2.37,0,0,1,.83-.71,2.23,2.23,0,0,1,1-.12,13.1,13.1,0,0,1,6.52,2.37,9.74,9.74,0,0,0,1.62,1,5.36,5.36,0,0,0,4.51-.6c.62-.35.48-.57.76-1.19s.88-1,1.42-.45a1.66,1.66,0,0,1,.34.69,21.13,21.13,0,0,1,.33,5.72,2.68,2.68,0,0,0,.1.89,5.5,5.5,0,0,0,.47.81,1.89,1.89,0,0,1,.09.21A5.89,5.89,0,0,1,744.61,551.61Z"/><path id="b6bb7f03-8026-4ba1-afd8-10b01999fe56" data-name="Path 1572" class="f90a9b8d-c9a6-4e3f-a7cb-1e8abe605fa4" d="M744.61,551.61a2.57,2.57,0,0,1-.4,1.62,2,2,0,0,1-.87.54c-4.78,1.84-10.29-.46-15.05,1.35-1,.37-1.91.9-2.89,1.26a15.18,15.18,0,0,1-3.59.68c-1.69.18-3.39.27-5.08.33a11.42,11.42,0,0,1-3.82-.35,4.72,4.72,0,0,1-2.94-2.5,2.55,2.55,0,0,1-.14-1.78,1.76,1.76,0,0,1,.31-.57c.28.62.49,1.45.66,1.75a3.39,3.39,0,0,0,2.25,1.74,5.48,5.48,0,0,0,2.05-.29c4.33-1.16,8.93-1.17,13.08-2.92a30.37,30.37,0,0,1,4.3-1.77,31.23,31.23,0,0,1,4.63-.4c2.44-.21,4.81-1,7.22-1.42A5.89,5.89,0,0,1,744.61,551.61Z"/><path id="e7100c84-4940-4fb7-8630-05f2c484f2f7" data-name="Path 1573" class="ab757d53-406f-40da-b649-b5e0f37b2468" d="M806.8,537.73a9.63,9.63,0,0,1-2.64,5,31.23,31.23,0,0,0-3.69,4.34,35.55,35.55,0,0,1-3.41,6.27,9.39,9.39,0,0,1-2,1.62,14,14,0,0,1-2.66,1.31,18.88,18.88,0,0,1-7.52.44,6.26,6.26,0,0,1-2.38-.5,7.22,7.22,0,0,1-1-.65,5,5,0,0,1-1.5-1.67,1.75,1.75,0,0,1-.14-1.21,2.68,2.68,0,0,1,.75-1.18,17.68,17.68,0,0,1,1.81-1.76,10.63,10.63,0,0,0,2.36-2.23,7.23,7.23,0,0,0,.91-2.23,21,21,0,0,0,.67-4.24,13.47,13.47,0,0,1,.27-2.84c.38-1.45,1.39-2.77,1.27-4.29a1.08,1.08,0,0,1,0-.64.89.89,0,0,1,.47-.32,8.44,8.44,0,0,1,2.47-.61,2.76,2.76,0,0,1,2.26,1c.35.45.58,1.07,1.1,1.28a1.58,1.58,0,0,0,.75,0,6.08,6.08,0,0,0,3.58-1.19,5,5,0,0,0,1.51-3.53c0-.5-.21-1,.5-1.13.54-.08,1,.54,1.26.93a13.41,13.41,0,0,1,2.42,4.74,1.06,1.06,0,0,1,.46-.1,2,2,0,0,1,1.65.9A3.74,3.74,0,0,1,806.8,537.73Z"/><path id="b6cec0c9-a901-41ad-9977-0a45a4a2a391" data-name="Path 1574" class="f90a9b8d-c9a6-4e3f-a7cb-1e8abe605fa4" d="M806.81,537.73a9.49,9.49,0,0,1-2.64,5,31.16,31.16,0,0,0-3.68,4.34,36.21,36.21,0,0,1-3.41,6.27A9.69,9.69,0,0,1,795,555a14,14,0,0,1-2.66,1.31,18.88,18.88,0,0,1-7.52.44,6.26,6.26,0,0,1-2.38-.5,7.22,7.22,0,0,1-1-.65,5.11,5.11,0,0,1-1.5-1.67,3.37,3.37,0,0,1,1.55-.4c1.12.06,1.93,1.2,3,1.54,1.5.49,3-.66,4.58-1.06a31,31,0,0,0,3.06-.53,7.53,7.53,0,0,0,2.26-1.47,12,12,0,0,0,2.42-2.51,16.22,16.22,0,0,0,1.43-3,44.44,44.44,0,0,1,2.86-5.89,3.66,3.66,0,0,1,.59-.81c.24-.24.54-.41.75-.62a6.56,6.56,0,0,0,1.82-3.56,7,7,0,0,1,.41-1.19,1.93,1.93,0,0,1,1.64.9A3.68,3.68,0,0,1,806.81,537.73Z"/><path id="ebc8aecd-30c3-4bc7-b448-13b77bcd5c1f" data-name="Path 1575" class="fd5b037b-5853-442f-be3e-72fd0cb007ed" d="M698.71,365a11.64,11.64,0,0,1,3.07,3.86,83,83,0,0,1,4.64,15c1.35-1.47,6.73-1.71,8.08-3.18.57-.61,3.66-3.68,4.12-4.39s3.91-2.24,4.28-3c1.41-2.71-10-12.92-8.52-15.65a.76.76,0,0,0,.12-.42.7.7,0,0,0-.19-.32,17.84,17.84,0,0,0-3.3-2.42,5.65,5.65,0,0,1-2.51-3.24,10.88,10.88,0,0,0-2.91,2.12q-3.12,2.88-6.16,5.89c-.8.81-2.31,1.83-2.69,3S698,364.38,698.71,365Z"/><path id="af751c67-bfa7-4d0c-9b25-69654023086e" data-name="Path 1576" class="ab757d53-406f-40da-b649-b5e0f37b2468" d="M717.14,360.69a33.7,33.7,0,0,0-4.88,4.28,10.65,10.65,0,0,0-3.1,5.35c-.15.81-.13,1.66-.25,2.5-.5,3.62-3.43,6.28-4.71,9.69a17.22,17.22,0,0,0-.83,3.23,41.1,41.1,0,0,0-.59,6.36c0,2.07,1.85,3.5,2.54,5.42a34.72,34.72,0,0,1,1.23,5.88,74.9,74.9,0,0,0,3.08,10.91c2.54,7.54,10.77,28.4,13.32,35.95,7.79-2.1,28.53-6.92,35.42-11.31,2.3-1.47-16-18.09-13.49-19.24a1.23,1.23,0,0,0,.68-.55,1.4,1.4,0,0,0,0-.81c-2.45-11.56-10.15-21-13.63-32.34a99.45,99.45,0,0,0-5-10.95c-1.5-3.36-2.29-7.08-4.08-10.27a6.58,6.58,0,0,0-1.3-1.76,8.43,8.43,0,0,0-1.44-.93C719.08,361.53,718.13,361.23,717.14,360.69Z"/><ellipse id="a0c36392-6bda-4aea-a048-14b82cdf0d3f" data-name="Ellipse 684" class="fd5b037b-5853-442f-be3e-72fd0cb007ed" cx="699.12" cy="350.63" rx="12.19" ry="13.1"/><path id="a89058ca-3fe0-444b-899b-2dfca3167d60" data-name="Path 1577" class="f90a9b8d-c9a6-4e3f-a7cb-1e8abe605fa4" d="M711.52,356.78a3.87,3.87,0,0,1,4.58-.7,2.43,2.43,0,0,1,1.36,2.36l6,.09a12,12,0,0,1,2.87.29,4.06,4.06,0,0,1,2.39,1.61c.08.11.16.23.27.25a.43.43,0,0,0,.27-.1,5,5,0,0,1,3-.58,15.74,15.74,0,0,1,8.85,4.18,3,3,0,0,1,1.05,1.38c.21.74,0,1.68.5,2.18a83.41,83.41,0,0,0,3.25,17.73,7.85,7.85,0,0,0,1.83,2.82,11.5,11.5,0,0,1,2,3.14c1.09,3.08-.43,6.69.65,9.79a16,16,0,0,0,2.07,3.52,9.39,9.39,0,0,1,1.77,4.54c0,.75,0,1.49,0,2.24a14.58,14.58,0,0,0,.5,2.94q.66,2.69,1.39,5.36a12.2,12.2,0,0,0,4.2,7.54c-5.8,1.05-11.91,2.08-17.44-.08a8.65,8.65,0,0,1-2.18-1.17,13.72,13.72,0,0,1-3.81-6.61,33.13,33.13,0,0,1-2.14-8.54,10.13,10.13,0,0,0-.36-2.79,7.49,7.49,0,0,0-3.42-3.46,16.85,16.85,0,0,1-4.12-3.45,7.21,7.21,0,0,1-1.67-5.17c.11-.92.44-1.8.48-2.72a2.21,2.21,0,0,0-1.18-2.24c-4.22-1.38-6.23-6.73-7.17-11.37a38.62,38.62,0,0,1-.54-7.28l0-4.68a6.37,6.37,0,0,1-1.89-4.47,5.31,5.31,0,0,0,0-1.49,4.14,4.14,0,0,0-1-1.61A13.91,13.91,0,0,1,711.52,356.78Z"/><path id="b8af26bf-dd9d-4310-9657-402e9c71d3ce" data-name="Path 1578" class="f90a9b8d-c9a6-4e3f-a7cb-1e8abe605fa4" d="M698.55,371.76a35.88,35.88,0,0,1-.14,4.4c-.12.54-.32,1.08-.47,1.62a10.17,10.17,0,0,0,.56,6.16,34.46,34.46,0,0,0,2.93,5.45,8.77,8.77,0,0,1,.94,1.89,11.1,11.1,0,0,1,.36,2.15,68.89,68.89,0,0,0,1.43,8.68,17.67,17.67,0,0,0,2.85,7,1.5,1.5,0,0,0,2,.73,1,1,0,0,0,.17-.1l3.12-1.27a2,2,0,0,0,.75-.42,2.11,2.11,0,0,0,.44-1.31,20.65,20.65,0,0,0-1.37-7.93,213.59,213.59,0,0,1-7.53-23.12,17.39,17.39,0,0,0-2.21-7.4c-.62-.72-.41-.41-1.16,0a9.92,9.92,0,0,0-1.09.63A3.88,3.88,0,0,0,698.55,371.76Z"/><path id="e18cce53-25e9-48b0-b04d-fc4485c10ec4" data-name="Path 1580" class="a3444ce0-07a1-4848-a337-faf5f6962665" d="M707.92,386.39q1.25,7.07,2.54,14.13l12.1-3.41a9.8,9.8,0,0,0-1-3.9c-1.11-3-1.14-6.28-2-9.33-.68-2.33-1.85-4.47-2.48-6.81-.37-1.35-.54-2.79-.91-4.15a32.81,32.81,0,0,0-1.43-4A25.4,25.4,0,0,0,712,363.7a7.72,7.72,0,0,0-4.07,2.84,6.36,6.36,0,0,0-.76,2.79c-.21,2.93.76,5.86.45,8.76A27.84,27.84,0,0,0,707.92,386.39Z"/><path id="bab8dd2a-0154-4fca-b715-47860d1092de" data-name="Path 1581" class="f90a9b8d-c9a6-4e3f-a7cb-1e8abe605fa4" d="M722.76,449.12a16.6,16.6,0,0,1-1.1,8.42,69.33,69.33,0,0,0-2.47,12.68,11.19,11.19,0,0,1-.61,3.24c-.45.88-.94,1.75-1.47,2.58a13.92,13.92,0,0,0-.93,7.78c.18,1.75.44,3.49.76,5.21a14.15,14.15,0,0,1,.31,6.34c1-.23,1.62,1.1,1.58,2.15a6.5,6.5,0,0,0,.08,3.13c1.18.46,1.2,2.21,1.16,3.56a32.78,32.78,0,0,0,.81,7q2.7,13.91,5.72,27.72c4.36,1.46,9.44,3,13.6,1a2.8,2.8,0,0,0,1.72-1.86,3.65,3.65,0,0,0-.16-1.43l-2-7.7a15,15,0,0,1-.7-5.65,7.43,7.43,0,0,0,.12-4.23,11.94,11.94,0,0,0-.83-1.18,9.85,9.85,0,0,1-.41-5.76,4.5,4.5,0,0,0-.09-1.32,6.68,6.68,0,0,0-.58-1.44,23.48,23.48,0,0,1-2.25-11,2.84,2.84,0,0,0-.19-1.44,4.13,4.13,0,0,1-.33-.58,1.68,1.68,0,0,1,.11-1.06,9,9,0,0,1-1.59-1.61,2.53,2.53,0,0,0,.55-3.53l-.17-.21a1.29,1.29,0,0,0,.89-1.59,1.32,1.32,0,0,0-.33-.56c-.27-.2-.59-.27-.76-.54s-.05-1,.18-1.41l1.2-2.34c.89-1.73,1.1-3.87,2.06-5.56a43.62,43.62,0,0,0,3.18-7.79l3.43-10.26L745.6,462a7.78,7.78,0,0,1,1.92,2.35,10.53,10.53,0,0,1,.61,2.82c.86,5.58,4.13,10.41,5.34,15.91a11.42,11.42,0,0,0,1.1,3.56,6.66,6.66,0,0,1,.63,1,5.43,5.43,0,0,1,.27,1.69,8,8,0,0,0,3.09,5.66c1.15.8,2.6,1.43,3.2,2.77a5.72,5.72,0,0,0,.54,1.18c.56.72,1.76.81,2,1.7.13.51-.12,1.11.15,1.56a1.41,1.41,0,0,0,.57.45l3.36,1.81c3.77,2,5.66,6.62,8.43,10a21.33,21.33,0,0,1,2.53,3.59c1.19,2.3,1.75,5.19,3.77,6.67a5.62,5.62,0,0,1,1.46,1.16,6.08,6.08,0,0,1,.45,3.29c.06,1.13.87,2.47,1.87,2.13a8.22,8.22,0,0,0,0,4.18,18.92,18.92,0,0,0,11.89-5.17,5.14,5.14,0,0,0,1.93-3.49,1.47,1.47,0,0,0-.14-.69,1.81,1.81,0,0,0-.75-.62c-3.14-1.83-4.09-6.06-5.66-9.5a80.63,80.63,0,0,0-5.17-8.48c-3.77-6.06-6.28-13.39-11.93-17.4a8.26,8.26,0,0,1-3.3-3.12,22.85,22.85,0,0,1-.66-2.59,2.09,2.09,0,0,0-1.77-1.61,12.52,12.52,0,0,0,.41-4,5.67,5.67,0,0,0-.19-1.74,8.44,8.44,0,0,0-.83-1.71,17.57,17.57,0,0,1-2.13-8.89,15.57,15.57,0,0,0-.14-4.77c-.23-.81-.62-1.48-.9-2.24a15.05,15.05,0,0,1-.65-4.16l-.31-5.33a26.63,26.63,0,0,0-.64-5.26c-1-4.13-2-21.44-5.59-23.39s-9.59,11.37-13.54,11.64a17,17,0,0,0-5.18,1.07,25.22,25.22,0,0,0-7,5l-7.31,6.6A27.13,27.13,0,0,1,722.76,449.12Z"/><path id="f8ccb94b-b7c7-4bcf-9405-51c3f33e008c" data-name="Path 1582" class="f90a9b8d-c9a6-4e3f-a7cb-1e8abe605fa4" d="M687.67,336.09a9,9,0,0,1,7.1-3.72,15.56,15.56,0,0,1,7.84,2.12,10,10,0,0,0,2.26,1c1.29.27,2.72-.1,3.89.56a5.24,5.24,0,0,1,1.71,5,9.67,9.67,0,0,0,.46,5.53c.33.47.62.95.9,1.44a5.14,5.14,0,0,1-.09,3.08c-.53-.65-1-1.32-1.5-2s-1.47-1.07-2.13-.6-.66,1.35-.69,2.16-.23,1.73-.92,2A1.48,1.48,0,0,1,705,352c-1.18-1.55-.7-4-1.88-5.59-.67-.9-1.78-1.32-2.39-2.25-.49-.73-.61-1.68-1-2.43s-1.4-1.36-2.07-.8a2.86,2.86,0,0,0-.53.8,3.07,3.07,0,0,1-3.78,1.22,6,6,0,0,0-1.63-.75,2,2,0,0,0-1.85,1.07,4.46,4.46,0,0,0-.49,2.32,5.66,5.66,0,0,1-.41,3.17,2.92,2.92,0,0,1-.87.81,2,2,0,0,1-3.5-1.84,19.46,19.46,0,0,1,.61-2.27c.45-1.71-.14-3.65.36-5.26A17,17,0,0,1,687.67,336.09Z"/><path id="bda7f26c-3fc3-44ba-8a72-1aa377fd0242" data-name="Path 1583" class="a3444ce0-07a1-4848-a337-faf5f6962665" d="M694.21,375.16a2.14,2.14,0,0,0,.11,1.2,2,2,0,0,0,.61.64,12.05,12.05,0,0,0,5.75,2,1.67,1.67,0,0,1,.75.22,1.61,1.61,0,0,1,.34,1.72,4.78,4.78,0,0,0-.36,1.83c.15,1.15,1.42,1.68,2.5,1.82a5.49,5.49,0,0,0,4.36-.9,7.31,7.31,0,0,0,1.8-2.9c3-7.27,4-15.35,7-22.64a4.89,4.89,0,0,0,.45-1.51,1.54,1.54,0,0,0-.56-1.4c-.56-.37-1.42-.16-1.79-.74-.19-.3-.17-.69-.34-1-.34-.66-1.25-.58-1.88-.93s-.81-.81-1.35-1a1.71,1.71,0,0,0-1.42.66,19.79,19.79,0,0,0-3.65,6.62,80.38,80.38,0,0,1-5.27,10.44,6.13,6.13,0,0,0-1.64-3.45c-.92-.2-2.1,1.53-2.6,2.19A14.4,14.4,0,0,0,694.21,375.16Z"/><rect id="f5400fd6-11c8-4e60-ad45-7ed16f7f7b52" data-name="Rectangle 4117" class="a5862f61-2cf2-49a9-a872-d7a69ac8f447" x="700.36" y="385.5" width="58.71" height="63.08"/><path id="fca5d6b3-7db0-4227-8081-2b10b13f7b80" data-name="Path 1584" class="fd5b037b-5853-442f-be3e-72fd0cb007ed" d="M758.6,420.25a24.48,24.48,0,0,0-2.78,3.14,6.43,6.43,0,0,0-1.28,4,2.15,2.15,0,0,0,.36,1.17.88.88,0,0,0,1,.35,1.5,1.5,0,0,0,.51-.49,25.59,25.59,0,0,1,1.73-2c.23-.23.51-.48.81-.4a1,1,0,0,1,.36.25,2.76,2.76,0,0,1,.75,1.22,3.06,3.06,0,0,1-.81,2.36,6.22,6.22,0,0,0-1.35,2.14,1,1,0,0,0,0,.68,1,1,0,0,0,.4.37,5.43,5.43,0,0,0,4.87.34c1-.44,1.95-1.22,3-1.61a7,7,0,0,0,1.33-.54,3,3,0,0,0,1.18-1.89,8.27,8.27,0,0,0,.08-2.33,28.24,28.24,0,0,0-1.81-8.81,1,1,0,0,0-.29-.48,1.08,1.08,0,0,0-.5-.15,11.55,11.55,0,0,0-4.75-.34,3.19,3.19,0,0,0-1.12,1.07C760.06,418.61,758.6,419.88,758.6,420.25Z"/><path id="e3daf38c-b07b-4326-8889-dbbfe6c26852" data-name="Path 1585" class="f90a9b8d-c9a6-4e3f-a7cb-1e8abe605fa4" d="M758.15,419c0-1.35-1.56-4.62.91-4.85,0-1.44-1.9-2.34-1.56-3.86.12-.52.5-.93.56-1.45.16-1.48-2.32-2.28-1.92-3.71.15-.53.71-.87.81-1.42.27-1.27-1.85-1.85-1.88-3.16,0-.44.22-.87.21-1.3s-.46-1-.71-1.46c-.63-1.23-.32-3.15-1.5-3.77.75.07,1-1.17.71-1.93s-1-1.41-1-2.25a3.62,3.62,0,0,0,0-.93c-.21-.81-1.44-.87-1.65-1.68a6.91,6.91,0,0,1,0-.91,1.64,1.64,0,0,0-1.24-1.21,4.72,4.72,0,0,1-1.66-.63c-.36-.3-.75-.81-1.16-.54-.15.09-.22.27-.33.41-.46.57-1.35.32-1.93-.11a8.75,8.75,0,0,1-3-5.7c-.37-2.2-.35-4.47-.81-6.66a14,14,0,0,0-.54-2,11,11,0,0,1-.87-2c-.09-1.26,2.36-.4,3.3-.27a13.45,13.45,0,0,1,2.67.54,27.37,27.37,0,0,1,2.74,1.29c3.77,1.77,8.21,2,11.21,5,1,1,1.81,2.26,3.08,2.7a13,13,0,0,1,1.73.48c1.42.72,1.64,2.74,2.42,4.2a8.35,8.35,0,0,1,.64,1.22,4.79,4.79,0,0,1,.2,1.55l.11,3.84a151.31,151.31,0,0,1-.29,19.28,17.11,17.11,0,0,0,.07,6.3c.15.54.37,1.08.5,1.62a12.08,12.08,0,0,1,.19,2l.08,2.49a.76.76,0,0,1-.11.57.7.7,0,0,1-.62.16c-3.23-.3-6.48-2.26-9.53-1.08"/><path id="e70b588e-3af3-4e21-a18e-4f574703c431" data-name="Path 1586" class="fd5b037b-5853-442f-be3e-72fd0cb007ed" d="M698.15,408.87a1.11,1.11,0,0,0-.36.32,2.93,2.93,0,0,0,0,3.28,1.06,1.06,0,0,1,.18.33,1,1,0,0,1-.09.54,1.92,1.92,0,0,0,.23,2c.24.21.54.32.7.59.27.47-.1,1.08,0,1.62.07.72.86,1.08,1.5,1.17a1.54,1.54,0,0,0,1.47-.42,1.41,1.41,0,0,0,0-1.43,3.78,3.78,0,0,0-1-1.08,1.57,1.57,0,0,0,1.42-1.47,2.36,2.36,0,0,0-.86-2,.86.86,0,0,1-.34-.43,1,1,0,0,1,.31-.65c.75-.81,1.33-2.79-.08-3.23a3.22,3.22,0,0,0-1.51.07c-.36.12-.36.36-.63.52S698.47,408.7,698.15,408.87Z"/><path id="ad9da999-7d89-4cd1-99aa-ed81149ee39d" data-name="Path 1587" class="ae9f3467-4b48-45e4-865b-4f28b630c95e" d="M712.94,353a2.41,2.41,0,0,0-1.91,1,6.22,6.22,0,0,0-.81,2.75,25.09,25.09,0,0,1-3,8.78"/><path id="a9362e1e-f378-4679-904b-0a937e206536" data-name="Path 1588" class="ae9f3467-4b48-45e4-865b-4f28b630c95e" d="M715.57,355.25a2.88,2.88,0,0,0-2.5,1.61,9.58,9.58,0,0,0-.63,2.74,15.49,15.49,0,0,1-2.5,5.75"/><path id="e0b36092-f8e7-4a05-b4d0-34e49623051e" data-name="Path 1589" class="f7e8c3eb-1e71-4bd3-821a-19591b1207b1" d="M230.16,406.75c.43,5.12-3.16,10.06-2.11,15.05.23,1.08.66,2.08.81,3.15a12.73,12.73,0,0,1-2.8,8.27l-13.49,21.29a13.48,13.48,0,0,1-1.94,2.56c-2.59,2.43-6.46,2.21-9.85,2.94a16.48,16.48,0,0,0-6.59,3.14.48.48,0,0,0-.09.64,5.55,5.55,0,0,0,4.91,2.47c.35.5,0,1.24-.49,1.62-.75.54-1.72.68-1.87,2a2.28,2.28,0,0,0,.26,1.33,3.77,3.77,0,0,0,2.36,1.76c4.67,1.54,9.72-1.15,13.22-4.85s6-8.3,9.45-12c1.9-2.06,4.06-3.84,6-5.85a73.77,73.77,0,0,0,9.87-13.73,15.58,15.58,0,0,0,2.14-4.67c.36-1.67.2-3.43.62-5.08a18.47,18.47,0,0,1,3.23-5.65,19.73,19.73,0,0,0,3.68-12.25,11.7,11.7,0,0,0-6.67-10.16,5.56,5.56,0,0,0-3.77-.25,9.15,9.15,0,0,0-3.8,3.23l-2.56,3.18a7.21,7.21,0,0,0-1.5,2.43,2.69,2.69,0,0,0,.53,2.69"/><path id="aef2b8fc-53bf-491e-99fd-8fde0c98dd95" data-name="Path 1590" class="f863051f-70a7-4146-ac41-d5cabe8dce23" d="M230.16,406.75c.43,5.12-3.16,10.06-2.11,15.05.23,1.08.66,2.08.81,3.15a12.73,12.73,0,0,1-2.8,8.27l-13.49,21.29a13.48,13.48,0,0,1-1.94,2.56c-2.59,2.43-6.46,2.21-9.85,2.94a16.48,16.48,0,0,0-6.59,3.14.48.48,0,0,0-.09.64,5.55,5.55,0,0,0,4.91,2.47c.35.5,0,1.24-.49,1.62-.75.54-1.72.68-1.87,2a2.28,2.28,0,0,0,.26,1.33,3.77,3.77,0,0,0,2.36,1.76c4.67,1.54,9.72-1.15,13.22-4.85s6-8.3,9.45-12c1.9-2.06,4.06-3.84,6-5.85a73.77,73.77,0,0,0,9.87-13.73,15.58,15.58,0,0,0,2.14-4.67c.36-1.67.2-3.43.62-5.08a18.47,18.47,0,0,1,3.23-5.65,19.73,19.73,0,0,0,3.68-12.25,11.7,11.7,0,0,0-6.67-10.16,5.56,5.56,0,0,0-3.77-.25,9.15,9.15,0,0,0-3.8,3.23l-2.56,3.18a7.21,7.21,0,0,0-1.5,2.43,2.69,2.69,0,0,0,.53,2.69"/><path id="bd46f19b-02e6-471a-b855-25aed555c3e6" data-name="Path 1591" class="fd5b037b-5853-442f-be3e-72fd0cb007ed" d="M127.33,428.46c.75,2.55,1.5,5.11,2.42,7.59A65.26,65.26,0,0,0,136,448.31a86.06,86.06,0,0,0,5.16,7.27,24.74,24.74,0,0,1,5.69,9.58,52.09,52.09,0,0,1,.51,6.6,8.35,8.35,0,0,0,2.52,5.86,9,9,0,0,0,4.16,1.47c1,.18,2.34.23,2.88-.73a2.84,2.84,0,0,0,.28-1.28l.27-3.23c.06-.7.27-1.62.93-1.62s1,.9,1.5,1.31a1.56,1.56,0,0,0,2.15-.59.75.75,0,0,0,.07-.12l0-.1a4.26,4.26,0,0,0,.06-2.82,13.32,13.32,0,0,0-6.42-8.55,18.73,18.73,0,0,1-3.12-1.75,11.17,11.17,0,0,1-2.46-3.33,214.18,214.18,0,0,1-15.43-31.14,24.16,24.16,0,0,1-1.58-6.13,41.14,41.14,0,0,1,.24-6.47,39.66,39.66,0,0,0-1-11.54,9.79,9.79,0,0,0-1-2.81,5.58,5.58,0,0,0-7.76-1.4l-.23.17a9,9,0,0,0-3.18,6.24,18.75,18.75,0,0,0,1.59,6.46Q124.6,419.05,127.33,428.46Z"/><path id="a7ae861e-2618-47a9-966b-8e1059621240" data-name="Path 1592" class="f863051f-70a7-4146-ac41-d5cabe8dce23" d="M127.33,428.46c.75,2.55,1.5,5.11,2.42,7.59A65.26,65.26,0,0,0,136,448.31a86.06,86.06,0,0,0,5.16,7.27,24.74,24.74,0,0,1,5.69,9.58,52.09,52.09,0,0,1,.51,6.6,8.35,8.35,0,0,0,2.52,5.86,9,9,0,0,0,4.16,1.47c1,.18,2.34.23,2.88-.73a2.84,2.84,0,0,0,.28-1.28l.27-3.23c.06-.7.27-1.62.93-1.62s1,.9,1.5,1.31a1.56,1.56,0,0,0,2.15-.59.75.75,0,0,0,.07-.12l0-.1a4.26,4.26,0,0,0,.06-2.82,13.32,13.32,0,0,0-6.42-8.55,18.73,18.73,0,0,1-3.12-1.75,11.17,11.17,0,0,1-2.46-3.33,214.18,214.18,0,0,1-15.43-31.14,24.16,24.16,0,0,1-1.58-6.13,41.14,41.14,0,0,1,.24-6.47,39.66,39.66,0,0,0-1-11.54,9.79,9.79,0,0,0-1-2.81,5.58,5.58,0,0,0-7.76-1.4l-.23.17a9,9,0,0,0-3.18,6.24,18.75,18.75,0,0,0,1.59,6.46Q124.6,419.05,127.33,428.46Z"/><path id="e178e76f-e9ee-428b-a0f2-909450b8eecc" data-name="Path 1593" class="b28f1bc4-45ed-444c-8ca5-d8378b106496" d="M241.51,524.44a14.85,14.85,0,0,1-10,1.62c-.54-.07-1.21-.12-1.56.34-.51.66.09,1.61.72,2.18a14.37,14.37,0,0,0,6.9,3,42.7,42.7,0,0,0,6.78.48,106.34,106.34,0,0,0,18.45-.73,2.4,2.4,0,0,0,1-.32,2.07,2.07,0,0,0,.75-1.24,5.16,5.16,0,0,0-1.61-4.72,13.17,13.17,0,0,0-4.31-2.48l-5.36-2.24c-1.26-.54-3.28-1.93-4.64-1.81C246.07,518.74,243.64,523.1,241.51,524.44Z"/><path id="efeb4032-d8c6-4a59-bfa3-98ee7c800a74" data-name="Path 1594" class="b28f1bc4-45ed-444c-8ca5-d8378b106496" d="M255,538a12.63,12.63,0,0,1-9,3.61c-.84,0-2,.17-2,1.07a1.52,1.52,0,0,0,.25.75,8.37,8.37,0,0,0,4.65,3.92,15.58,15.58,0,0,0,5.61.38l5.49-.31c1-.06,2.09-.11,3.12-.25s2.15-.36,3.23-.54a39.68,39.68,0,0,1,8-.4,2.23,2.23,0,0,0,2-.57c.49-.66.2-1.62,0-2.43-.32-1.7,0-3.5-.31-5.22a8.93,8.93,0,0,0-5.6-6.41c-2.47-1-6.84-2.15-9.18-.48A60.9,60.9,0,0,0,255,538Z"/><path id="b4c391ff-a5ef-4c34-a023-68e96f4aaebb" data-name="Path 1595" class="f90a9b8d-c9a6-4e3f-a7cb-1e8abe605fa4" d="M244.12,461.61c-2.26,3.19-4.52,6.88-4,10.82a25.91,25.91,0,0,0,2.22,6,44.45,44.45,0,0,1,2.26,8.39c.83,4.18,1.67,8.36,2.19,12.6a84.29,84.29,0,0,1,.49,14.47,5.17,5.17,0,0,1-.94,3.23,2.9,2.9,0,0,0-.81,1,1.87,1.87,0,0,0,.17,1.21,12.89,12.89,0,0,0,6.7,6.62,24.31,24.31,0,0,0,9.1,1.83,1.86,1.86,0,0,0,2.16-1.33c2.26-4.61,1-10.17,1-15.35,0-4.34,1-8.64.81-13-.14-3.48-1-6.87-1.32-10.34a65.33,65.33,0,0,1,1.42-17c.75-4.31,1.5-8.61,2.44-12.87a25.69,25.69,0,0,1,2.59-7.47c1.05-1.78,2.48-3.28,3.69-5A23.8,23.8,0,0,0,278.46,429c-.07-.58-7.75,2.09-8.41,2.42a25.86,25.86,0,0,0-7.52,5.19,65.54,65.54,0,0,0-4.73,6.27c-2.2,2.88-4.36,5.76-6.48,8.67Q247.65,456.53,244.12,461.61Z"/><path id="ae2dd3e4-c923-4656-b1f3-2795cf8344f7" data-name="Path 1596" class="f863051f-70a7-4146-ac41-d5cabe8dce23" d="M244.12,461.61c-2.26,3.19-4.52,6.88-4,10.82a25.91,25.91,0,0,0,2.22,6,44.45,44.45,0,0,1,2.26,8.39c.83,4.18,1.67,8.36,2.19,12.6a84.29,84.29,0,0,1,.49,14.47,5.17,5.17,0,0,1-.94,3.23,2.9,2.9,0,0,0-.81,1,1.87,1.87,0,0,0,.17,1.21,12.89,12.89,0,0,0,6.7,6.62,24.31,24.31,0,0,0,9.1,1.83,1.86,1.86,0,0,0,2.16-1.33c2.26-4.61,1-10.17,1-15.35,0-4.34,1-8.64.81-13-.14-3.48-1-6.87-1.32-10.34a65.33,65.33,0,0,1,1.42-17c.75-4.31,1.5-8.61,2.44-12.87a25.69,25.69,0,0,1,2.59-7.47c1.05-1.78,2.48-3.28,3.69-5A23.8,23.8,0,0,0,278.46,429c-.07-.58-7.75,2.09-8.41,2.42a25.86,25.86,0,0,0-7.52,5.19,65.54,65.54,0,0,0-4.73,6.27c-2.2,2.88-4.36,5.76-6.48,8.67Q247.65,456.53,244.12,461.61Z"/><path id="e9481398-672e-4aa4-8cdb-503c28cdf08f" data-name="Path 1597" class="f90a9b8d-c9a6-4e3f-a7cb-1e8abe605fa4" d="M260.42,437.05c.48,2.47,2.71,4.37,2.77,6.9a11.24,11.24,0,0,1-2.25,5.45,38,38,0,0,0-2.31,5.61,87.61,87.61,0,0,1-6.77,14.45,12.06,12.06,0,0,0-2.42,7.16,10.92,10.92,0,0,0,1.17,3.42l3.86,8.25a24.37,24.37,0,0,1,2,5.22c.34,1.57.37,3.23.57,4.78.61,5.06,2.81,10.15,1.5,15.06-.11.42-.54.93-.83.64a16.6,16.6,0,0,1,2.2,8.08,12.16,12.16,0,0,0,.05,4.54,5.2,5.2,0,0,1,.58,1.73c0,.41-.17.8-.21,1.22a2.66,2.66,0,0,0,1.92,2.51c1,.37,2.17.35,3.22.68a19.9,19.9,0,0,1,5.17,3.8,10.44,10.44,0,0,0,5.93,2.08,1.48,1.48,0,0,0,.87-.19,1.59,1.59,0,0,0,.49-1.14,6.59,6.59,0,0,0-2.13-5.51,2.36,2.36,0,0,1-.75-.88,2.27,2.27,0,0,1-.08-1,79.42,79.42,0,0,0-.23-13.62,22.44,22.44,0,0,1-.19-4.33,9.64,9.64,0,0,0-.71-7.07,26,26,0,0,1-.49-6.46,60,60,0,0,0-1.7-11.07,8.74,8.74,0,0,0-1.61-4c-.81-.91-2.11-1.77-1.8-3a3.49,3.49,0,0,1,.75-1.18,5,5,0,0,0,.93-3.61,1.48,1.48,0,0,0,1.73-.87,28.52,28.52,0,0,0,13.6-16.63,5.71,5.71,0,0,1,.61-1.47,6.19,6.19,0,0,1,2.49-1.74,19.63,19.63,0,0,0,6.54-7.16,17.19,17.19,0,0,0,2.53-5.2,18.9,18.9,0,0,0,.35-3.75l.15-6.47a3.65,3.65,0,0,0-.11-1.27,3.13,3.13,0,0,0-.66-1,11.44,11.44,0,0,0-6.42-3.72,49.29,49.29,0,0,0-5-.4,59.44,59.44,0,0,0-9.68-1.12,15.66,15.66,0,0,0-12,9C263.11,435.54,262.22,437,260.42,437.05Z"/><path id="a3f21a1d-feaf-4818-87a5-1ee9bc7acff0" data-name="Path 1598" class="ab757d53-406f-40da-b649-b5e0f37b2468" d="M91.58,536a7.57,7.57,0,0,0,3.46.45c.08-1,1.37-1.26,2.33-1.21a2.61,2.61,0,0,1,1.37.32c.24.17.42.41.65.58a2.66,2.66,0,0,0,1.35.37l5,.46a13.94,13.94,0,0,0,6.6-.48,2.08,2.08,0,0,0,1.06-.75,2.25,2.25,0,0,0-.75-2.74c-.75-.64-1.78-.93-2.56-1.57-1.73-1.42-2-4-2.88-6.18a18,18,0,0,0-2.38-3.71,14.17,14.17,0,0,0-2.36-2.59,11.58,11.58,0,0,0-6.63-1.73,4.24,4.24,0,0,0-4.41,1.3c-1.46,2-.88,5.91-.79,8.24A65,65,0,0,0,91.58,536Z"/><path id="ba2e7597-15e9-4697-a3cc-8d8f8b5afff4" data-name="Path 1599" class="f863051f-70a7-4146-ac41-d5cabe8dce23" d="M91.58,536a7.57,7.57,0,0,0,3.46.45c.08-1,1.37-1.26,2.33-1.21a2.61,2.61,0,0,1,1.37.32c.24.17.42.41.65.58a2.66,2.66,0,0,0,1.35.37l5,.46a13.94,13.94,0,0,0,6.6-.48,2.08,2.08,0,0,0,1.06-.75,2.25,2.25,0,0,0-.75-2.74c-.75-.64-1.78-.93-2.56-1.57-1.73-1.42-2-4-2.88-6.18a18,18,0,0,0-2.38-3.71,14.17,14.17,0,0,0-2.36-2.59,11.58,11.58,0,0,0-6.63-1.73,4.24,4.24,0,0,0-4.41,1.3c-1.46,2-.88,5.91-.79,8.24A65,65,0,0,0,91.58,536Z"/><path id="a0b181f4-d277-426a-929f-b72ec7bd16c8" data-name="Path 1600" class="f90a9b8d-c9a6-4e3f-a7cb-1e8abe605fa4" d="M93.6,432a3.81,3.81,0,0,0-1.9,4.26,15.51,15.51,0,0,0,2,4.65c2.21,4.26,3.17,9.13,5,13.58,1.39,3.32,3.27,6.39,4.65,9.7a17.34,17.34,0,0,1,1.39,10.62c-.4,1.72-1.18,3.31-1.71,5a30.16,30.16,0,0,0-1,5.65A114.89,114.89,0,0,0,101.7,505a6.25,6.25,0,0,0,.46,2.3c.31.65.85,1.33.59,2-.11.27-.33.46-.45.73-.31.74.33,1.52.91,2a1.58,1.58,0,0,1-1,.81,2.59,2.59,0,0,1,1,2.77c-.52.08-.54.93-.22,1.37s.84.73,1.08,1.23a1.77,1.77,0,0,1-.88,2.16,3.87,3.87,0,0,1-2.4.19,25.11,25.11,0,0,1-4-.94,3.59,3.59,0,0,1-1.24-.61,4.06,4.06,0,0,1-1.1-2.62,49.55,49.55,0,0,1-.27-8.08c.22-13.06,0-26.14-.54-39.2a47.9,47.9,0,0,0-3.58-15.23c-1-2.48-2.21-4.9-3.5-7.27A32.09,32.09,0,0,1,82,429.25c.07-.66.3-1.45.9-1.56a1.19,1.19,0,0,1,.69.13A31.17,31.17,0,0,1,87.27,430,13.11,13.11,0,0,0,93.6,432Z"/><path id="fe676874-0dae-40de-83bc-45efc9f41bfe" data-name="Path 1601" class="f863051f-70a7-4146-ac41-d5cabe8dce23" d="M93.6,432a3.81,3.81,0,0,0-1.9,4.26,15.51,15.51,0,0,0,2,4.65c2.21,4.26,3.17,9.13,5,13.58,1.39,3.32,3.27,6.39,4.65,9.7a17.34,17.34,0,0,1,1.39,10.62c-.4,1.72-1.18,3.31-1.71,5a30.16,30.16,0,0,0-1,5.65A114.89,114.89,0,0,0,101.7,505a6.25,6.25,0,0,0,.46,2.3c.31.65.85,1.33.59,2-.11.27-.33.46-.45.73-.31.74.33,1.52.91,2a1.58,1.58,0,0,1-1,.81,2.59,2.59,0,0,1,1,2.77c-.52.08-.54.93-.22,1.37s.84.73,1.08,1.23a1.77,1.77,0,0,1-.88,2.16,3.87,3.87,0,0,1-2.4.19,25.11,25.11,0,0,1-4-.94,3.59,3.59,0,0,1-1.24-.61,4.06,4.06,0,0,1-1.1-2.62,49.55,49.55,0,0,1-.27-8.08c.22-13.06,0-26.14-.54-39.2a47.9,47.9,0,0,0-3.58-15.23c-1-2.48-2.21-4.9-3.5-7.27A32.09,32.09,0,0,1,82,429.25c.07-.66.3-1.45.9-1.56a1.19,1.19,0,0,1,.69.13A31.17,31.17,0,0,1,87.27,430,13.11,13.11,0,0,0,93.6,432Z"/><path id="bdfdde35-275e-45de-91ad-cf831689efa7" data-name="Path 1602" class="f90a9b8d-c9a6-4e3f-a7cb-1e8abe605fa4" d="M73,416.14a5,5,0,0,0-2.65-.89,5.24,5.24,0,0,0-2.88,1.53,31.71,31.71,0,0,0-2.86,2.7,17.32,17.32,0,0,0-3.41,16.25,33,33,0,0,0,4.18,8l3.31,5.11c5,7.8,10.1,15.59,15.4,23.19a.85.85,0,0,0,.56.81c.2.06.44.05.54.22a.61.61,0,0,1,.07.35A5.86,5.86,0,0,1,85,475a.78.78,0,0,0-.06.56c.16.43.89.19,1.12.59a.68.68,0,0,1-.24.81,1,1,0,0,0-.42.81c0,.33.54.63.52,1a1,1,0,0,1-.31.57,1.55,1.55,0,0,0,.17,1.87c.35,3.72-1.5,7.23-1.9,10.95-.6,5.85,1.86,11.56,2.16,17.43a5.05,5.05,0,0,0,.34,1.92c.51,1,1.82,1.61,1.78,2.77a13.74,13.74,0,0,1-.37,1.4,12.2,12.2,0,0,0,.19,2c0,.67-.54,1.47-1.1,1.2.43,1.56.82,3.13,1.15,4.7l11.58,1a11.82,11.82,0,0,0-.1-3.36c-.24-1.2-.75-2.32-1-3.52a4.37,4.37,0,0,1,.46-3.51,1.32,1.32,0,0,1-1.28-1.14,6.25,6.25,0,0,1,0-1.93c.31-3.23-1-6.46-.93-9.69a50.84,50.84,0,0,1,1.3-7.56c.91-5.4,0-11.26,2.2-16.16,1.35-3,3.23-6.27,1.71-9.16-.75-1.42-2.07-2.42-2.93-3.73a16.28,16.28,0,0,1-1.57-4,142.06,142.06,0,0,0-7.2-17.07,19,19,0,0,1-1.56-4.49,24.91,24.91,0,0,1-.18-4.14,68.58,68.58,0,0,0-.43-7.44,7.34,7.34,0,0,0-.84-3.07,6.66,6.66,0,0,0-1.81-1.78A121.72,121.72,0,0,0,73,416.14Z"/><path id="e44670c3-0c56-47e1-9d04-afae2f019063" data-name="Path 1603" class="ab757d53-406f-40da-b649-b5e0f37b2468" d="M86.92,540.61a7.7,7.7,0,0,0,3.46.44c.1-1,1.38-1.25,2.33-1.2a2.55,2.55,0,0,1,1.35.33c.24.16.42.4.66.57a2.53,2.53,0,0,0,1.34.37l5,.46a14.11,14.11,0,0,0,6.61-.47,2.17,2.17,0,0,0,1-.76,2.26,2.26,0,0,0-.75-2.74c-.75-.63-1.78-.93-2.57-1.57-1.72-1.42-2-4-2.89-6.18a17.84,17.84,0,0,0-2.37-3.71,13.71,13.71,0,0,0-2.35-2.58,11.67,11.67,0,0,0-6.63-1.74,4.25,4.25,0,0,0-4.41,1.31c-1.5,2-.89,5.9-.8,8.23A65.09,65.09,0,0,0,86.92,540.61Z"/><rect id="ad94a5d6-5212-40c1-98b3-5799188f74da" data-name="Rectangle 4118" class="a5862f61-2cf2-49a9-a872-d7a69ac8f447" x="149.75" y="446.85" width="58.71" height="63.08"/><ellipse id="f47f5df6-e55f-4e05-9ae6-0605aa2e37d1" data-name="Ellipse 685" class="fd5b037b-5853-442f-be3e-72fd0cb007ed" cx="138.27" cy="382.26" rx="11.47" ry="12.33"/><path id="bfa660d4-8ce3-4dd5-829c-8a8732142601" data-name="Path 1604" class="fd5b037b-5853-442f-be3e-72fd0cb007ed" d="M127.45,385.92a10.42,10.42,0,0,1-6.16,1.88A36.87,36.87,0,0,0,108,391.92a4.78,4.78,0,0,0-1.5,1.14,4.93,4.93,0,0,0-.76,1.76,12.37,12.37,0,0,0-.43,4.28,13.17,13.17,0,0,0,1.1,4,21.38,21.38,0,0,0,7.12,8.72,5.37,5.37,0,0,0,1.73.89c1.51.34,3-.61,4.46-1a6.71,6.71,0,0,1,4.11.15c1.25.44,2.57,1.26,3.77.71a4.16,4.16,0,0,0,1.72-2.09,73.12,73.12,0,0,0,3.12-7.36,29.54,29.54,0,0,1,1.14-2.87c1.33-2.72,3.63-4.84,4.78-7.64a1.81,1.81,0,0,0,.1-1.44,2,2,0,0,0-.84-.7,20.16,20.16,0,0,1-4.58-3.86c-.75-.81-2.15-2.88-3.23-3.06S128.28,385.16,127.45,385.92Z"/><path id="a28d1ca2-0b82-4f73-b1c5-4a94e2795ad8" data-name="Path 1605" class="ab757d53-406f-40da-b649-b5e0f37b2468" d="M127.72,411a6.47,6.47,0,0,1-4.34.06,46,46,0,0,1-10.91-3.42,5.91,5.91,0,0,1-2.69-2.2,7.47,7.47,0,0,1-.75-2.77l-.63-4.58a29.52,29.52,0,0,1,.19-4.7,1.45,1.45,0,0,0-.25-1,1,1,0,0,0-.75-.25c-1.72,0-2.76,2-4,3.28a7.29,7.29,0,0,1-2.43,1.76c-1.11.49-2.47.81-2.91,2-.19.49-.16,1.06-.36,1.55-.75,2-4.06,1.32-4.89,3.23-.25.54-.23,1.24-.63,1.68s-1.13.42-1.73.54c-2.39.42-3.56,3.39-5.6,4.79a44,44,0,0,1-5.8,2.08,21.25,21.25,0,0,1-3,1.62,13.67,13.67,0,0,1-3.5.18,1,1,0,0,0-.7.24,1.1,1.1,0,0,0-.11.81A22.44,22.44,0,0,0,85,433.43a4.66,4.66,0,0,1,1.11.57c1,.81,1.22,2.65,2.41,3.24a2.37,2.37,0,0,0,2.51-.58,22,22,0,0,0,1.81-2.16,7.16,7.16,0,0,1,4-2.28,8.36,8.36,0,0,0,4.16-1,11.72,11.72,0,0,0,1.31-1.51,8.07,8.07,0,0,1,3-1.9,28.21,28.21,0,0,1,9.41-2.14,30.89,30.89,0,0,0,9-.94,5.22,5.22,0,0,0,2-1.22,6.48,6.48,0,0,0,1.35-2.5A20.35,20.35,0,0,0,127.72,411Z"/><path id="e78606a1-5a8a-4025-a3c8-47c0fcb71796" data-name="Path 1606" class="ab757d53-406f-40da-b649-b5e0f37b2468" d="M112.93,392.8c.85-.08,1.7,0,2.55,0s2-.27,3-.27a7.53,7.53,0,0,1,7,5.73,1.56,1.56,0,0,1,.05.8.54.54,0,0,1-.58.42,14.51,14.51,0,0,0-1.29-2.77,7.35,7.35,0,0,0-3.85-2.88,9.29,9.29,0,0,0-4.74-.18,18.09,18.09,0,0,0-1.92.51l-3.13.9a16.43,16.43,0,0,0-1.68.54c-.42.16-1.15.81-1.56.81-.57,0-.11-.54.14-.88a4,4,0,0,1,2-1.56A16,16,0,0,1,112.93,392.8Z"/><path id="ef854bef-ca32-40f1-8314-2651f0c2b6f4" data-name="Path 1607" class="fd5b037b-5853-442f-be3e-72fd0cb007ed" d="M120.66,429.84c.75,2.55,1.51,5.12,2.43,7.6a65.48,65.48,0,0,0,6.26,12.25,86.17,86.17,0,0,0,5.17,7.27,24.84,24.84,0,0,1,5.68,9.58,54.18,54.18,0,0,1,.52,6.61,8.26,8.26,0,0,0,2.52,5.85,8.83,8.83,0,0,0,4.15,1.47c1,.18,2.34.23,2.88-.73a3,3,0,0,0,.29-1.28l.25-3.23c.05-.69.28-1.62.93-1.62s1,.9,1.51,1.32a1.57,1.57,0,0,0,2.14-.6.47.47,0,0,0,.07-.12l0-.09a4.36,4.36,0,0,0,.06-2.83,13.24,13.24,0,0,0-6.4-8.55A19.62,19.62,0,0,1,146,461a11.17,11.17,0,0,1-2.46-3.33,213.57,213.57,0,0,1-15.43-31.13,24.66,24.66,0,0,1-1.58-6.14,43.52,43.52,0,0,1,.24-6.46,39.41,39.41,0,0,0-1-11.56,9.4,9.4,0,0,0-1-2.81,5.57,5.57,0,0,0-7.76-1.4l-.23.17a9,9,0,0,0-3.17,6.24,19,19,0,0,0,1.58,6.46Q118,420.44,120.66,429.84Z"/><path id="b583b875-cd8f-414f-89d0-ed25fbad9b71" data-name="Path 1608" class="f90a9b8d-c9a6-4e3f-a7cb-1e8abe605fa4" d="M155,373.55a3.19,3.19,0,0,0-1.74-2.62,22.51,22.51,0,0,1-3-1.94c-.88-.81-1.35-1.86-2.22-2.67a9.39,9.39,0,0,0-3.31-1.77,23.56,23.56,0,0,0-7.92-1.53,13.24,13.24,0,0,0-7.58,2.15,4.62,4.62,0,0,0-1.28,1.29,6.13,6.13,0,0,0-.63,2,41.67,41.67,0,0,1-2,6.47,15.19,15.19,0,0,1-3.77,6.53c-2.15,1.92-5.43,3-6.85,5.35a1.86,1.86,0,0,0-.3,1.5c.2.58.86,1,1.45,1.35a20.34,20.34,0,0,1,8,8.26,10.18,10.18,0,0,1-.7,10.31c-.81,1.13-1.92,2.47-1.13,3.61,1.2,1.73,5.33.74,6.27,2.57a3.75,3.75,0,0,1,.13,1.88,5.53,5.53,0,0,0,3.82,4.51,20,20,0,0,0,6.86,1.22,6.84,6.84,0,0,0,.17-4.78,2.05,2.05,0,0,1-.17-1.07,2.63,2.63,0,0,1,.75-1,7.93,7.93,0,0,0,.47-9.34,54.45,54.45,0,0,1-4.73-9,4.87,4.87,0,0,1,.75-4.69,14.62,14.62,0,0,1,2.16-1.69,8.82,8.82,0,0,0,3-4c.7-2.11.59-4.64,2.65-6s4.73-.93,6.91-1.83A7.87,7.87,0,0,0,155,373.55Z"/><ellipse id="a8d62c88-364f-4563-9c03-d0e6ccd6e18a" data-name="Ellipse 686" class="f7e8c3eb-1e71-4bd3-821a-19591b1207b1" cx="219.3" cy="377.91" rx="12.51" ry="13.44"/><path id="ae4d2c11-97d7-4a44-95cf-e72be164d491" data-name="Path 1609" class="f7e8c3eb-1e71-4bd3-821a-19591b1207b1" d="M230.58,377.34A16.3,16.3,0,0,0,241,385.15l-.94,3.67c-1.61,6.32-3.46,13-8,17.4a8.62,8.62,0,0,0-1.28-6.29,22.91,22.91,0,0,0-4.24-4.77l-7.2-6.73a2.26,2.26,0,0,1-.54-.65,2.18,2.18,0,0,1,0-1.47,17.89,17.89,0,0,1,5.66-7.06,20.8,20.8,0,0,0,2.85-3.56C228.74,373.49,229.66,375.7,230.58,377.34Z"/><path id="acac33c9-404a-4183-842c-f6930023dfd1" data-name="Path 1610" class="b28f1bc4-45ed-444c-8ca5-d8378b106496" d="M232.16,394.73a8,8,0,0,1-.37,3,1.92,1.92,0,0,1-2.26,1.25,1,1,0,0,0-1.08-1.29A2.06,2.06,0,0,0,227,399a5.12,5.12,0,0,0-.42,3,13,13,0,0,1,.71,3.77c-.14,1.06-.88,2.12-.49,3.11a5,5,0,0,0,.94,1.2,3.57,3.57,0,0,1-.34,4.65l9.78.2a7.81,7.81,0,0,0,1.21,5.11,29.87,29.87,0,0,0,22.29,15.63,2.19,2.19,0,0,0-.69,2.86,3.29,3.29,0,0,0,.23.33,2.57,2.57,0,0,0,3.12.19,24.24,24.24,0,0,0,2.7-2.15,7.79,7.79,0,0,1,5.5-1.62c1.23.12,2.43.54,3.64.62,3.61.21,6.73-2.59,10.17-3.73a20.88,20.88,0,0,0,7.52-2.54,3.26,3.26,0,0,0,1.4-3.12,5.23,5.23,0,0,0-1.05-1.83,33.1,33.1,0,0,1-2.82-5.65,33.85,33.85,0,0,0-7.05-10.14,63.57,63.57,0,0,0-7-5.7,12.45,12.45,0,0,0-1.89-1.22,18.62,18.62,0,0,1-2.59-1.13,15.41,15.41,0,0,1-2.69-3.23,40.74,40.74,0,0,0-7.29-5.45,17.33,17.33,0,0,0-4.92-3.57c-.92-.3-1.92-.33-2.84-.63-2.11-.68-3.65-2.69-5.71-3.5a21,21,0,0,0-5.17-.71,11.48,11.48,0,0,1-5.31-2.16,6.4,6.4,0,0,0-1.72-1.08c-2.61-.8-2.82,4.39-3.07,6.2A56.06,56.06,0,0,0,232.16,394.73Z"/><path id="bd5ed0be-45d7-4bde-ba08-f5d6a21a8379" data-name="Path 1611" class="f7e8c3eb-1e71-4bd3-821a-19591b1207b1" d="M234.71,412.28c.44,5.1-3.15,10.05-2.1,15.05.22,1.08.64,2.07.81,3.15a12.69,12.69,0,0,1-2.79,8.26L217.09,460a12.65,12.65,0,0,1-1.93,2.56c-2.58,2.47-6.46,2.21-9.84,3a16.39,16.39,0,0,0-6.6,3.14.48.48,0,0,0-.08.63,5.52,5.52,0,0,0,4.9,2.48c.35.5,0,1.25-.49,1.61-.75.54-1.72.69-1.86,2a2.3,2.3,0,0,0,.24,1.34,3.86,3.86,0,0,0,2.37,1.77c4.67,1.53,9.72-1.17,13.22-4.85s6-8.3,9.45-12.05c1.9-2.07,4.06-3.84,6-5.84a76.35,76.35,0,0,0,9.88-13.74,16,16,0,0,0,2.14-4.68c.36-1.65.19-3.41.61-5.06a18.36,18.36,0,0,1,3.23-5.65,19.75,19.75,0,0,0,3.68-12.3,11.71,11.71,0,0,0-6.66-10.16,5.56,5.56,0,0,0-3.77-.24,9.06,9.06,0,0,0-3.81,3.23l-2.57,3.18a7.54,7.54,0,0,0-1.5,2.43,2.68,2.68,0,0,0,.54,2.69"/><path id="efb0371e-b8e7-41d4-91b5-d94bcce69c60" data-name="Path 1612" class="b28f1bc4-45ed-444c-8ca5-d8378b106496" d="M241.55,391.32a7.21,7.21,0,0,0-5,1.61,7.55,7.55,0,0,0-1.25,2.12,21.83,21.83,0,0,0-2.49,8.42,39.79,39.79,0,0,0,.9,7,28,28,0,0,1-.57,5.91,35.88,35.88,0,0,0,7.11-2.94,23.51,23.51,0,0,1,4.16-2.32,11.7,11.7,0,0,1,7.68,1.62c.11-1.52-.95-4.16-.84-5.65a6.75,6.75,0,0,1,.32-1.89,11.37,11.37,0,0,1,1.06-1.82,7.89,7.89,0,0,0-.62-8.74,10.84,10.84,0,0,0-7.25-3.3,29.66,29.66,0,0,0-5.07-.19"/><path id="bc233455-00d5-4ae9-8a6d-43b3590dec85" data-name="Path 1613" class="f90a9b8d-c9a6-4e3f-a7cb-1e8abe605fa4" d="M202.82,364.39l-.29-2.53c2,.54,3.85-1.25,5.12-3.12s2.42-4,4.35-4.85c2.34-.94,4.81.57,7.05,1.81a20.8,20.8,0,0,0,8.07,2.88,5.17,5.17,0,0,1,1.35.24c1.45.55,2.16,2.51,2.36,4.29a17.7,17.7,0,0,0,.86,5.25c.54,1.2,1.5,2.1,2.05,3.23,1.5,3.18,0,7.54,1.67,10.65l-4-3.94c-.37-.37-.89-.75-1.29-.44s-.35.8-.48,1.19a2,2,0,0,1-2.62,1.21l-.14-.05-.09,0a8,8,0,0,1-2.55-2.5,15.87,15.87,0,0,0-6.37-5.19,7.63,7.63,0,0,0-6.73.43c-1.89,1.14-3.23,3.77-5.54,3.88-3.14.12-4.45-6.16-5.9-8.64a3.22,3.22,0,0,0,.82-3.82C200.73,364.23,202.77,364,202.82,364.39Z"/><path id="e2ca5337-0d85-4287-9aac-8cd6a6356295" data-name="Path 1614" class="a3444ce0-07a1-4848-a337-faf5f6962665" d="M485.88,204.4a13.18,13.18,0,0,1-3.93,1.16,7.31,7.31,0,0,0,3-4,13.26,13.26,0,0,1-4.35,1.79,6.5,6.5,0,0,0-9.16-.84c-.17.14-.34.3-.5.46a7.56,7.56,0,0,0-2.17,5.38A7.4,7.4,0,0,0,469,210a18.94,18.94,0,0,1-14.1-7.7,7.71,7.71,0,0,0,2.12,9.83,6.33,6.33,0,0,1-3.11-.92v.09a7.27,7.27,0,0,0,5.49,7.22,6.42,6.42,0,0,1-1.8.26,6.21,6.21,0,0,1-1.29-.13,6.94,6.94,0,0,0,6.39,5.11,13.06,13.06,0,0,1-8.5,3.15,12.74,12.74,0,0,1-1.63-.1A18.21,18.21,0,0,0,463,230.13c12.6,0,19.48-11.21,19.48-20.94v-.95A14.68,14.68,0,0,0,485.88,204.4Z"/><path id="b05b7f69-1ac7-4671-94d3-20971f2cb49d" data-name="Path 1615" class="a3444ce0-07a1-4848-a337-faf5f6962665" d="M461,362.68l2.26,6.09L478,385.56l4.93-5,3.11,3.54,3.29-3.34.19-6.86,4.11-4.18.33-12-13.2-15Zm29.72-3.36-.2,6.88-4.93,5-.18,6.85-3.11-3.53-4.11,4.17-13.22-15,15.62-15.84Z"/><path id="aeb4949b-de37-43d3-a989-7f1b9d192e18" data-name="Path 1616" class="a3444ce0-07a1-4848-a337-faf5f6962665" d="M478.74,356.31l2.47-2.49,6.26,7.12L485,363.43ZM473,362.15l2.46-2.5,6.26,7.13-2.47,2.49Z"/><path id="e7da1a83-e654-42ab-9b75-f946262ee87b" data-name="Path 1617" class="a3444ce0-07a1-4848-a337-faf5f6962665" d="M188.28,458.82H164.14a1.56,1.56,0,0,0-1.5,1.62v25.94a1.56,1.56,0,0,0,1.5,1.62h12V476.45H173V472.2h3.3v-3.15a5.35,5.35,0,0,1,4.85-5.8,5.61,5.61,0,0,1,.71,0,33.85,33.85,0,0,1,3.49.18v3.93h-2.49c-1.7,0-2,.86-2,2.14v2.71h4.06l-.54,4.25h-3.54V488h7.53a1.56,1.56,0,0,0,1.5-1.62V460.45a1.56,1.56,0,0,0-1.49-1.63Z"/><path id="f880d92d-827c-44c4-9a55-092cfe639fe6" data-name="Path 1618" class="a3444ce0-07a1-4848-a337-faf5f6962665" d="M399.31,273.69a5.89,5.89,0,0,1,5.65,6.07v12.12a5.88,5.88,0,0,1-5.65,6.07H388a5.49,5.49,0,0,1-4-1.78,6.21,6.21,0,0,1-1.66-4.29V279.76a5.88,5.88,0,0,1,5.65-6.07h11.29m0-2.43H388a8.25,8.25,0,0,0-7.91,8.51v12.12A8.25,8.25,0,0,0,388,300.4h11.29a8.26,8.26,0,0,0,7.92-8.48V279.81a8.26,8.26,0,0,0-7.92-8.54Z"/><path id="fc72426b-45d9-424c-a20d-46d40595d67e" data-name="Path 1619" class="a3444ce0-07a1-4848-a337-faf5f6962665" d="M401,279.78a1.83,1.83,0,1,1,1.69-2V278a1.75,1.75,0,0,1-1.67,1.82ZM393.68,281a4.86,4.86,0,1,1-4.5,5.2c0-.12,0-.24,0-.35a4.69,4.69,0,0,1,4.51-4.85m0-2.42a7.29,7.29,0,1,0,6.76,7.79c0-.17,0-.35,0-.52a7,7,0,0,0-6.77-7.27Z"/><path id="f91aa66d-3b6f-4f02-8408-4d894f9fb86c" data-name="Path 1620" class="a3444ce0-07a1-4848-a337-faf5f6962665" d="M748.58,408.6a5.74,5.74,0,0,0-5.26-6.16c-3.92-.2-7.91-.27-12-.27h-1.27c-4.07,0-8.08.07-12,.27a5.76,5.76,0,0,0-5.23,6.18c-.18,2.7-.26,5.4-.25,8.07s.07,5.41.24,8.08a5.78,5.78,0,0,0,5.23,6.2q6.16.3,12.61.29c4.29,0,8.51-.08,12.63-.29a5.81,5.81,0,0,0,5.27-6.2c.16-2.71.25-5.41.24-8.12s-.07-5.4-.24-8.08Zm-21.31,15.58V409.25l10.23,7.46Z"/><path id="b4e6fff9-978f-4706-b6ad-0f2bec9b54bc" data-name="Path 1621" class="a3444ce0-07a1-4848-a337-faf5f6962665" d="M374.87,122.52a16.4,16.4,0,0,0-15.94,16.82,17.08,17.08,0,0,0,9.59,15.77,15.92,15.92,0,0,1,.27-3.9c.31-1.39,2-9.28,2-9.28a6.88,6.88,0,0,1-.51-2.69c0-2.52,1.36-4.4,3.05-4.4,1.45,0,2.14,1.16,2.14,2.55a37.68,37.68,0,0,1-1.4,6,2.65,2.65,0,0,0,1.77,3.2,2.56,2.56,0,0,0,.73.08c3,0,5-4.14,5-9a6.12,6.12,0,0,0-5.71-6.51,6.46,6.46,0,0,0-.88,0,7.77,7.77,0,0,0-7.79,7.76v.38a5.12,5.12,0,0,0,1.05,3.34.87.87,0,0,1,.22.95c-.07.31-.24,1.08-.32,1.36a.54.54,0,0,1-.61.49h0a.49.49,0,0,1-.17-.06,6.64,6.64,0,0,1-3.23-6.46,10.77,10.77,0,0,1,10.91-10.63h.38a9.79,9.79,0,0,1,10,9.55V138c0,6.67-3.45,11.66-8.55,11.66a4.43,4.43,0,0,1-3.86-2.12s-.92,3.91-1.12,4.67a14.44,14.44,0,0,1-1.59,3.65,15.06,15.06,0,0,0,4.52.69,17.07,17.07,0,0,0,0-34Z"/><path id="fed384bc-860e-47da-be38-59ef7fcb216a" data-name="Path 1622" class="bd2807b3-1de9-49f9-a1d2-73b80176f4c5" d="M540.57,593.44c-.6-2.78-1-5.2-1-5.2a11.44,11.44,0,0,0-1.12-5.28v-.77h0v-5.57a19.09,19.09,0,0,1,1.3-2.92c.94-1.75,0-8.17,0-8.17s-3.46-9-2.62-14.78-7.1-25.49-7.1-25.49a26.94,26.94,0,0,1,.75-5.66,4.25,4.25,0,0,0,.1-1.18v-.1A46.17,46.17,0,0,0,528,507.44l.38-13.51a42.63,42.63,0,0,0-1.12-18.69c-1-3.73-1.66-6.73-2.08-9,0-.27-.09-.51-.12-.75,6-1,10.53-1.79,10.53-1.79s-3.46-15.57-5.8-18.29-4.2-11.28-4.2-11.28-1.22-11,.75-14.2a22.81,22.81,0,0,0,2.26-8.76s4.51-3.5,5-5.06a27.11,27.11,0,0,0,1.51-6.9c0-1.85-.57-3.5-.38-4.48s-1.31-4.66-.55-6.42a5.07,5.07,0,0,0,.29-1.68v-.05h0a26,26,0,0,0-.4-4.58,11.85,11.85,0,0,0-4.44-2.56l-.1-.41-.27-1.09a3.29,3.29,0,0,0-.44-.28v-2l.7-3.56c1.39-6.17-6.29-7.09-6.29-7.09a4.14,4.14,0,0,0-2.17-2c-1.51-.58-.27,9.29.46,9.92a32.68,32.68,0,0,1,3,5.1h0l.14.25a2.23,2.23,0,0,0-.35.4l.29,2.14,0,.33a9,9,0,0,0-1.22,2.24,5,5,0,0,1,1.12,3.5,11.84,11.84,0,0,0,.46,4.27c-.08-.1-1.07-1.25-2-1s-3.77,1.17-3.77,1.17-2.06.38-1.87.87-1.4,2.63-1.4,2.63l-5.53-5.66-.17-.51a15.22,15.22,0,0,1-.47-2.42,12.21,12.21,0,0,0,1.76-.61,3.69,3.69,0,0,0,1.5-1.05,6.47,6.47,0,0,0,.89-2.56A37.73,37.73,0,0,1,516,377a17.21,17.21,0,0,0,1.08-8.78,6.19,6.19,0,0,0-.84-2.58c-.91-1.35-2.55-1.89-3.77-2.94s-2-2.7-3.35-3.49a6.15,6.15,0,0,0-4.2-.39,21.28,21.28,0,0,0-7.83,3.06,3.89,3.89,0,0,1-2.63.93,3.56,3.56,0,0,1-1.88-1.49.14.14,0,0,1,0-.09l-.07-.07a11.12,11.12,0,0,0-.86,4.44v1.17h0a1.67,1.67,0,0,1,0,.31,2.23,2.23,0,0,1-.51.81,3.34,3.34,0,0,0-.45.66.68.68,0,0,1,.08-.24,3.64,3.64,0,0,0-.58,1.86,1.88,1.88,0,0,0,.42,1.35,6.2,6.2,0,0,0,.89.81,13,13,0,0,0-.16,2,11.68,11.68,0,0,0,5.21,9.8l.19.51a15.19,15.19,0,0,1,1,6.47,1.08,1.08,0,0,1-.07.47l-.19.25h0s-9.14.09-11.29-2-5.43,5.11-5.43,5.11-3.27.69-3.92,0-4.52-.09-4.52-.09a7.91,7.91,0,0,0-5.7-2.23,16.53,16.53,0,0,0-4.19-2.51h0l-.11,0h0a4.37,4.37,0,0,0-2.06-.27,42,42,0,0,1-5.79-6.13c-1.28-2.13-7.53-10.08-7.58-10.12v-.38l-.07-1.15a3.53,3.53,0,0,1-.56.05,1.17,1.17,0,0,0-.13-.4,22.11,22.11,0,0,0-1.32-3.23s0-1.46.4-1.82a26.69,26.69,0,0,0-.17-5.72s-4-10.16-7.66-2.58c0,0-6.86,4.91-1.11,10.64,0,0,2.26,1.18,2.62,2.13.22.61,1,2.34,1.51,3.47l.23.51-.07.06.09.95v.37c-1.08.66-1.81,1.31-1.64,1.81a11.93,11.93,0,0,1,.66,2.63s7.95,10.7,9,15.27c0,0,21.32,13.62,28.33,14.59l-1.21,6.81c-.18,1.84-.27,3.69-.27,5.54.09,1.46-.84,8.08-.84,8.08s-1.22,9.7-2.26,11.09a19.94,19.94,0,0,0-.84,7.2,51.28,51.28,0,0,1-1.4,8.26,22.56,22.56,0,0,0-.27,8.27s-3.56,8.75,5,2.82c0,0,4.18-.26,9-.45V471c-.06,5-.09,11.92.12,17.15.37,9.24,3,27.49,3,27.49v9.18a12.94,12.94,0,0,0-.24,2.63,18,18,0,0,0,2.3,9.2l.65,6.13a26.63,26.63,0,0,1,1.57,6.46,3.83,3.83,0,0,1-.07.58,4.21,4.21,0,0,0-.07.94,55.89,55.89,0,0,0,1.5,9.44s.1,6.71,1,7.1-1.08,3.87-1.62,4.84l0-.19a2.05,2.05,0,0,1-.12.2,5.19,5.19,0,0,0-.29,1.7,2.48,2.48,0,0,0,1,2.36c1.78,1.17,2.73,2.16,1.23,2.53a15.16,15.16,0,0,0-1.65.37c0-.07-.06-.15-.08-.22a1.09,1.09,0,0,0-.59,1.12,5.26,5.26,0,0,0,.57,2.27,25,25,0,0,0,2.52,5l.75-.09a3.12,3.12,0,0,1-.42.81,3,3,0,0,1-1.05,1,3.28,3.28,0,0,1-1.27.48,3.46,3.46,0,0,0-2.65,1.38,3.1,3.1,0,0,0,.07,4.4l.25.22L497,598s11.5,1.62,10.89-1.16-1-5.18-1-5.18a11.54,11.54,0,0,0-.94-4.92,4.68,4.68,0,0,0-.4-.73l.4-.05a23.84,23.84,0,0,1,2-7.27c.27-.27.32-.48.27-.64.11-.33-.18-.52-.54-.64l-.08.25a4.7,4.7,0,0,0-1.12-.13s-.37-3.23.84-4.38a1.32,1.32,0,0,0,.24-1,5.77,5.77,0,0,0-.13-1.31l0,.09a48.14,48.14,0,0,0-2.7-7.55,10,10,0,0,1,.66-4.08c.74-1.17-.09-15.86-.09-15.86a51.75,51.75,0,0,0-.57-10.4,12.44,12.44,0,0,1,1-7.21v-.26s-.05-.44-.12-1.13v.07c-.19-1.88-.54-5.28-.81-6.85-.37-2.24.1-12.93.1-12.93l1.68-4.57,3,7.87,3.17,10.5a9.31,9.31,0,0,1,1.62,4.46v.34c0,.23,0,.46,0,.7a6.66,6.66,0,0,0,1,3.74,17.07,17.07,0,0,0,2.16,6.23,5.9,5.9,0,0,1,1.31,3.69,64,64,0,0,0,2.34,8.47,13.46,13.46,0,0,1,.65,4.84h0v.27s.22,2.57.21,4.74v.75a8,8,0,0,1-.2,1.75v-.27a19.92,19.92,0,0,0-.48,4.49,12.15,12.15,0,0,0,1.78,7.44c2.54,3.11,4.12,2.73,4.12,2.73s-1.22,3.88-2.72,4.67l-.15.1a.54.54,0,0,0,0-.22,2,2,0,0,0-.44,1.45,11,11,0,0,0,1.85,5.77,3,3,0,0,0,1.27.81l-.24.15a4.25,4.25,0,0,1-.52.27,2.39,2.39,0,0,1-.75.21,3.48,3.48,0,0,0-2.65,1.38,3.11,3.11,0,0,0,.08,4.4l.25.22,6.69,2.47S541.15,596.25,540.57,593.44Z"/><path id="b6cd0ab1-d07c-4b1d-ae47-7adbb06e8431" data-name="Path 1623" class="ba72ac58-5d97-4e26-b411-ce06297f3569" d="M496.63,598l-6.48-2.48a3.17,3.17,0,0,1-.44-4.46l.13-.15a3.36,3.36,0,0,1,2.56-1.39,2.88,2.88,0,0,0,1.24-.47,3,3,0,0,0,1-1,5.39,5.39,0,0,0,.75-2.69s7.11-2.23,9,0a6,6,0,0,1,.87,1.35,12.17,12.17,0,0,1,.9,4.92s.36,2.42.95,5.2S496.63,598,496.63,598Z"/><path id="b28efe9c-0429-4ecf-b351-85ada92d5a73" data-name="Path 1624" class="ba72ac58-5d97-4e26-b411-ce06297f3569" d="M528.32,594.63l-6.46-2.47a3.16,3.16,0,0,1-.47-4.44l.15-.17a3.3,3.3,0,0,1,2.57-1.39,2.47,2.47,0,0,0,.75-.21,4.82,4.82,0,0,0,.5-.27,4.55,4.55,0,0,0,1.77-3.7s7.1-2.23,9,0a4.77,4.77,0,0,1,.68,1,11.74,11.74,0,0,1,1.09,5.29s.36,2.42,1,5.19S528.32,594.63,528.32,594.63Z"/><path id="b46a6ac2-5ca4-4cb6-a961-b30f18d247f4" data-name="Path 1625" class="ae9f3467-4b48-45e4-865b-4f28b630c95e" d="M504.46,585.38a6,6,0,0,1,.87,1.35h0l-10.66,1.33a5.36,5.36,0,0,0,.75-2.7S502.52,583.15,504.46,585.38Z"/><path id="b62b0ab8-a1e4-4e04-bf8d-2a5fbd873164" data-name="Path 1626" class="ae9f3467-4b48-45e4-865b-4f28b630c95e" d="M536.83,583v2.14c-1.66,2.94-9.67,2.3-12,.81a4.67,4.67,0,0,0,.49-.27,4.52,4.52,0,0,0,1.77-3.7s7.1-2.23,9,0A5.12,5.12,0,0,1,536.83,583Z"/><path id="e18023f1-680f-412c-a960-9b372a20f8e4" data-name="Path 1627" class="f90a9b8d-c9a6-4e3f-a7cb-1e8abe605fa4" d="M538.1,573.71a19.39,19.39,0,0,0-1.27,2.92v7.68c-1.81,3.24-11.23,2.16-12.49.39s-2.63-6.32-1.19-7.09,2.63-4.68,2.63-4.68-1.5.39-4-2.72-1.71-10-1.26-11.67a37.65,37.65,0,0,0,0-7.2,15.54,15.54,0,0,0-.64-5.16,68.44,68.44,0,0,1-2.25-8.46,6,6,0,0,0-1.27-3.7,17.53,17.53,0,0,1-2.08-6.22,6.86,6.86,0,0,1-.91-4.18,8.8,8.8,0,0,0-1.54-5.06l-3.07-10.5-2.9-7.88-1.62,4.57s-.46,10.71-.09,12.93.91,8.17.91,8.17a12.72,12.72,0,0,0-1,7.2,51.69,51.69,0,0,1,.54,10.4s.81,14.69.09,15.86a10.13,10.13,0,0,0-.63,4s3.71,8.57,2.53,9.7-.81,4.38-.81,4.38,2.53,0,1.45,1.16a24.79,24.79,0,0,0-1.91,7.27l-11,1.49a25.7,25.7,0,0,1-2.45-5c-1.45-3.6.27-3.24,1.73-3.6s.53-1.35-1.19-2.53-.76-3.79-.76-3.79,2.63-4.77,1.73-5.16-1-7.1-1-7.1a46.58,46.58,0,0,1-1.35-10.11,20.56,20.56,0,0,0-1.45-7.27L489,536.7a17.9,17.9,0,0,1-2-11.59v-9.47s-2.53-18.28-2.9-27.48c-.23-5.93-.17-14-.09-19,0-2.82.09-4.7.09-4.7l39.12-4.37a36.38,36.38,0,0,0,.72,6.24c.4,2.3,1,5.29,2,9A44.1,44.1,0,0,1,527.07,494l-.36,13.52s3.43,9,2.72,12.12a27.63,27.63,0,0,0-.76,5.65s7.7,19.75,6.89,25.49,2.54,14.75,2.54,14.75S539,572,538.1,573.71Z"/><path id="b15028e9-e6f2-424a-9962-2c39042e5d49" data-name="Path 1628" class="f863051f-70a7-4146-ac41-d5cabe8dce23" d="M515.74,523l11.87-1.7S520.9,528.72,515.74,523Z"/><path id="e9dcca1d-f20e-4805-87ac-b5476119e248" data-name="Path 1629" class="ae9f3467-4b48-45e4-865b-4f28b630c95e" d="M525.92,508.83s.41,4.52-2.16,6.23C523.75,515.06,528.36,514.29,525.92,508.83Z"/><path id="f95f74a6-7e77-4af7-9d7f-6c7bb8d80878" data-name="Path 1630" class="ae9f3467-4b48-45e4-865b-4f28b630c95e" d="M525.19,494.44s-10,8.8-13.55,8.08S525.19,494.44,525.19,494.44Z"/><path id="a997dc96-8e9e-4c3d-9a1c-fa47eafe4e50" data-name="Path 1631" class="ae9f3467-4b48-45e4-865b-4f28b630c95e" d="M501,527.17s-7.53,1.85-7.78,5.12S501,527.17,501,527.17Z"/><path id="af5d37ef-5c31-4386-8e3b-975b7e2ce633" data-name="Path 1632" class="f863051f-70a7-4146-ac41-d5cabe8dce23" d="M502.63,567.73s-10.68,2.14-7.64,3.6a49,49,0,0,0,8,2.62S506.45,574.15,502.63,567.73Z"/><g id="ebda8aae-44b0-445e-b7ea-9f3c0f1fa98e" data-name="Group 462" class="b5995228-db11-4bc1-b6a0-91b02f5f2540"><path id="b303330c-9a1c-4d60-b93f-d50cfa8a125d" data-name="Path 1633" d="M492.83,573.61a2.31,2.31,0,0,1-1-1.67l-.11.21s-1,2.62.76,3.8l.55.39c.32-.06.66-.11,1-.2C495.47,575.79,494.56,574.81,492.83,573.61Z"/><path id="a9d48266-ecba-476a-aad7-cd106aace606" data-name="Path 1634" d="M506.59,572.87c.3-.29.27-1,.11-2a5.79,5.79,0,0,0-.61,2.83A2.16,2.16,0,0,1,506.59,572.87Z"/><path id="a5d06464-104b-4fac-93e4-84dc194babee" data-name="Path 1635" d="M505,524.48a14,14,0,0,0-.75,3.57,14.67,14.67,0,0,1,.82-2.42A7.33,7.33,0,0,0,505,524.48Z"/><path id="bd564511-7cb9-45d4-b7c4-23634b02221f" data-name="Path 1636" d="M529.41,519.37a5.64,5.64,0,0,0,.1-1.08c-.14.73-.23,1.4-.29,2C529.27,520,529.33,519.68,529.41,519.37Z"/><path id="b58b0c58-eaed-4034-a2f8-42531dd2bc96" data-name="Path 1637" d="M504.68,559.06a6.58,6.58,0,0,0,.27-2.16,7.7,7.7,0,0,0-.52,2.73A2.9,2.9,0,0,1,504.68,559.06Z"/><path id="a560a076-5fc5-4069-9c00-a4db7fc5c469" data-name="Path 1638" d="M506.94,577.39a40.7,40.7,0,0,0-1.24,6l-10.95,1.36a24.65,24.65,0,0,1-2.46-5,8.82,8.82,0,0,1-.31-.86c-.65.33-.91,1.06-.05,3.23a24.87,24.87,0,0,0,2.45,5l10.94-1.37a24.78,24.78,0,0,1,1.9-7.27C507.76,577.84,507.42,577.55,506.94,577.39Z"/><path id="fe71955e-d046-4d97-8ae8-2b3759ee26f4" data-name="Path 1639" d="M492.48,559.92s.08,6.72,1,7.11h0c.45-1.11.75-2.15.35-2.34-.9-.39-1-7.09-1-7.09a46.14,46.14,0,0,1-1.35-10.12A20.62,20.62,0,0,0,490,540.2l-.64-6.12a18,18,0,0,1-2-11.58v-9.45s-2.53-18.29-2.89-27.53c-.24-5.92-.17-14-.09-19v-2.43h-.31s-.05,1.87-.1,4.7c-.07,5-.14,13.12.1,19,.36,9.24,2.89,27.53,2.89,27.53v9.42a17.87,17.87,0,0,0,2,11.68l.63,6.12a20.61,20.61,0,0,1,1.45,7.27A45.23,45.23,0,0,0,492.48,559.92Z"/><path id="a78acfbc-8f5f-4b7a-926f-7e4fcfafd6e1" data-name="Path 1640" d="M524.7,582.11a11.94,11.94,0,0,1-1.73-4.62c-1.12,1.08.17,5.29,1.37,7s10.69,2.82,12.5-.39v-1.85C534.39,584.81,525.91,583.76,524.7,582.11Z"/><path id="e67bce31-e042-4d74-a76c-f85871045ae4" data-name="Path 1641" d="M538.46,571.11A19.78,19.78,0,0,0,537.2,574v1.37c.2-.5.5-1.17.9-1.95a6.25,6.25,0,0,0,.4-2.42Z"/><path id="aae1f9dc-be8a-425a-b3b9-3a93231503ed" data-name="Path 1642" d="M525.26,572.65a19.64,19.64,0,0,0,.89-2.31s-1.5.39-4-2.73a14.71,14.71,0,0,1-1.61-9.34c-.45,1.66-1.18,8.56,1.26,11.67A6.44,6.44,0,0,0,525.26,572.65Z"/><path id="a7e1e7d8-3b10-4ac2-a41c-8df93b2a1349" data-name="Path 1643" d="M520.54,551.08a55.41,55.41,0,0,1,.18,5.76c.06-.38.13-.68.18-.9a36,36,0,0,0,0-7.19,15.5,15.5,0,0,0-.63-5.16,66.91,66.91,0,0,1-2.26-8.47,6,6,0,0,0-1.26-3.69,17.45,17.45,0,0,1-2.08-6.23,6.8,6.8,0,0,1-.92-4.18,8.93,8.93,0,0,0-1.5-5.06l-3.08-10.5-2.93-7.83-1.64,4.58s0,.57-.05,1.48l1.32-3.72,2.9,7.88,3.08,10.5a8.73,8.73,0,0,1,1.5,5,6.74,6.74,0,0,0,.94,4.14,17.64,17.64,0,0,0,2.08,6.23,6,6,0,0,1,1.27,3.69,63.16,63.16,0,0,0,2.26,8.46A15,15,0,0,1,520.54,551.08Z"/></g><path id="aa49e00b-636e-45e8-9eb7-74d583056716" data-name="Path 1644" class="f9b9bc55-947b-43b4-8867-018529035bfd" d="M528.14,372.12l-.68,3.55,0,1.62v1.16l-3.77.43-.42-.81h0a35.88,35.88,0,0,0-2.94-5.1c-.7-.63-1.94-10.5-.45-9.92A4.13,4.13,0,0,1,522,365.1S529.48,365.94,528.14,372.12Z"/><path id="f7e6de5a-8279-47b2-8e2c-59e12e93bbb8" data-name="Path 1645" class="ae9f3467-4b48-45e4-865b-4f28b630c95e" d="M527.53,378.41l-3.77.42-.42-.8h0a3.15,3.15,0,0,1,4.16-.74Z"/><path id="e03a5e4a-2bf7-473a-91f5-e77f1101b6b6" data-name="Path 1646" class="f143e964-b13b-4cfa-85ad-5f2cd56c882a" d="M528.47,380.34l-5,1.24-.1-.81-.29-2.15a3.26,3.26,0,0,1,4.52-.93,1.89,1.89,0,0,1,.27.2l0,0,.25,1.09Z"/><path id="af33423e-436a-4222-b8b4-493aba37c69d" data-name="Path 1647" class="f9b9bc55-947b-43b4-8867-018529035bfd" d="M447.79,372.5l-5.31,3.08L442,374.5c-.51-1.14-1.27-2.85-1.51-3.47-.31-.94-2.53-2.15-2.53-2.15-5.57-5.72,1.06-10.62,1.06-10.62,3.5-7.59,7.42,2.57,7.42,2.57a27.26,27.26,0,0,1,.16,5.71c-.38.36-.38,1.83-.38,1.83a23.13,23.13,0,0,1,1.29,3.23C447.71,372.18,447.79,372.5,447.79,372.5Z"/><path id="f64a7b9f-8805-47c8-816e-903c6030c5b0" data-name="Path 1648" class="ae9f3467-4b48-45e4-865b-4f28b630c95e" d="M447.79,372.51l-5.32,3.07L442,374.5c.76-.67,3.42-3,4.29-2.88a6.63,6.63,0,0,0,1.26,0C447.71,372.18,447.79,372.51,447.79,372.51Z"/><path id="f871bfe4-4792-4c15-b91a-a0c78666586c" data-name="Path 1649" class="f143e964-b13b-4cfa-85ad-5f2cd56c882a" d="M448.33,374.24l-6,3.16-.12-1.38-.08-.95s3.46-3.19,4.51-3.07a5.17,5.17,0,0,0,1.57,0l.06,1.16Z"/><path id="e4fc509b-e553-47bc-87f5-2124ff1da784" data-name="Path 1650" class="f9b9bc55-947b-43b4-8867-018529035bfd" d="M513.65,395.71s-26,3.16-21.18,1.46a6.92,6.92,0,0,0,5-6.07,15.79,15.79,0,0,0-1-6.46,28.28,28.28,0,0,0-2.33-5.06s19.92-11.78,15.94-1.08a17.6,17.6,0,0,0-1.14,5.07,15.19,15.19,0,0,0,.51,5.11A15.57,15.57,0,0,0,513.65,395.71Z"/><path id="a1573c73-3254-4c93-80ae-fd9949ae14ed" data-name="Path 1651" class="ae9f3467-4b48-45e4-865b-4f28b630c95e" d="M510.13,378.49a17.74,17.74,0,0,0-1.13,5.07,8.7,8.7,0,0,1-6.58,1.62c-2,0-4.28.54-5.9-.52a28.6,28.6,0,0,0-2.33-5.06S514.11,367.79,510.13,378.49Z"/><ellipse id="b8e67f46-7df8-4be2-825f-e0f5abd1f253" data-name="Ellipse 687" class="f9b9bc55-947b-43b4-8867-018529035bfd" cx="502.07" cy="374.32" rx="10.77" ry="11.58"/><path id="b5bdb23a-f4e0-41ea-9460-bc89a5079511" data-name="Path 1652" class="ae9f3467-4b48-45e4-865b-4f28b630c95e" d="M513.65,395.71s-26,3.16-21.18,1.46a6.92,6.92,0,0,0,5-6.07,14,14,0,0,1,5.58-3.18,7.24,7.24,0,0,1,4.71-.08,6,6,0,0,1,1.72.81A15.57,15.57,0,0,0,513.65,395.71Z"/><path id="bb55fd65-70cb-409b-929d-b35d90e66b99" data-name="Path 1653" class="ae9f3467-4b48-45e4-865b-4f28b630c95e" d="M528.48,380.34l-5,1.24-.11-.81a4.25,4.25,0,0,1,4.79-1.76Z"/><path id="b97badf1-e115-4c11-8c58-d79f8a502100" data-name="Path 1654" class="ae9f3467-4b48-45e4-865b-4f28b630c95e" d="M448.33,374.23l-6,3.16-.12-1.38a43.06,43.06,0,0,1,6-2.86Z"/><path id="a81e64ca-e65a-4cae-bf78-f587f7656e8e" data-name="Path 1655" class="ae9f3467-4b48-45e4-865b-4f28b630c95e" d="M524,466.25c-10.08,1.7-24.45,3.94-26.73,3.19a61.89,61.89,0,0,0-13.19-.36c0-2.82.09-4.7.09-4.7L523.25,460A37.51,37.51,0,0,0,524,466.25Z"/><path id="b0038a40-25a4-4a5a-aae6-30295d51a621" data-name="Path 1656" class="b28f1bc4-45ed-444c-8ca5-d8378b106496" d="M534,463.67s-33.23,6.13-36.79,4.95-21.88.11-21.88.11c-8.23,5.92-4.79-2.82-4.79-2.82a22.55,22.55,0,0,1,.27-8.27,55.26,55.26,0,0,0,1.35-8.27,20.4,20.4,0,0,1,.81-7.2,59.6,59.6,0,0,0,2.17-11.09s.91-6.61.81-8.08.27-5.54.27-5.54l1.17-6.81c-6.77-1-27.43-14.59-27.43-14.59-1-4.58-8.69-15.28-8.69-15.28a11.91,11.91,0,0,0-.63-2.62c-.54-1.55,7.6-4.67,7.6-4.67s6.07,8,7.33,10.11a42.92,42.92,0,0,0,5.61,6.13,4.25,4.25,0,0,1,2,.27h.1a15.86,15.86,0,0,1,4,2.5,7.59,7.59,0,0,1,5.53,2.24s3.71-.58,4.34.1,3.77,0,3.77,0,3.18-7.2,5.27-5.12,10.92,2,10.92,2a12.8,12.8,0,0,1,5.84-3.5,7.31,7.31,0,0,1,4.71-.08,6,6,0,0,1,1.87,1l5.36,5.66s1.5-2.14,1.36-2.63,1.81-.87,1.81-.87,2.63-.87,3.62-1.17,1.92.87,2,1a12.14,12.14,0,0,1-.45-4.28,5.08,5.08,0,0,0-1.08-3.5c3.2-8.31,10.35-1.28,10.35-1.28a17.22,17.22,0,0,1,.09,6.32c-.72,1.76.75,5.45.54,6.43s.36,2.62.36,4.46a28.23,28.23,0,0,1-1.44,6.92c-.54,1.55-4.89,5.05-4.89,5.05a23.31,23.31,0,0,1-2.18,8.75c-1.9,3.21-.75,14.21-.75,14.21s1.8,8.56,4.07,11.31S534,463.67,534,463.67Z"/><path id="a980946d-d4dd-436e-bb3b-e6824595ac32" data-name="Path 1657" class="ae9f3467-4b48-45e4-865b-4f28b630c95e" d="M485.59,399.7s-1-3.23-1.91-3.5a21,21,0,0,1-2.62-1.26l.59-1.2s3.4,1,3.94,2.07A9.44,9.44,0,0,1,485.59,399.7Z"/><path id="a56b9b4b-af41-4354-854c-b69fcd2cd8ef" data-name="Path 1658" class="ae9f3467-4b48-45e4-865b-4f28b630c95e" d="M467.42,392.59c-.18,1-8.23,1.86-8.23,1.86l4.07-4.39h0l.11,0h0A16.28,16.28,0,0,1,467.42,392.59Z"/><ellipse id="a4f52f6f-b94e-4772-9e8d-e2180af05242" data-name="Ellipse 688" class="ea6bc01a-ed55-437f-b554-1522fd95a77f" cx="444.08" cy="379.25" rx="0.72" ry="0.78"/><ellipse id="a6c9c48b-a0ef-4782-94bd-067a6ca112fb" data-name="Ellipse 689" class="ea6bc01a-ed55-437f-b554-1522fd95a77f" cx="445.01" cy="380.81" rx="0.72" ry="0.78"/><ellipse id="b9858d5a-565a-4fa5-b90d-1973328312bd" data-name="Ellipse 690" class="ea6bc01a-ed55-437f-b554-1522fd95a77f" cx="445.92" cy="382.24" rx="0.72" ry="0.78"/><ellipse id="f71b1adb-ccfe-4144-8740-e0daffb6c26a" data-name="Ellipse 691" class="ea6bc01a-ed55-437f-b554-1522fd95a77f" cx="446.86" cy="383.8" rx="0.72" ry="0.78"/><ellipse id="f939a616-a050-4777-bd49-0160d2fa734f" data-name="Ellipse 692" class="ea6bc01a-ed55-437f-b554-1522fd95a77f" cx="532.2" cy="383.71" rx="0.59" ry="0.63"/><ellipse id="a4678a40-8a87-43bc-a4f0-3997c6208542" data-name="Ellipse 693" class="ea6bc01a-ed55-437f-b554-1522fd95a77f" cx="532.29" cy="385.15" rx="0.59" ry="0.63"/><ellipse id="bd02c71b-b626-4852-92dc-635bb2c5ba2e" data-name="Ellipse 694" class="ea6bc01a-ed55-437f-b554-1522fd95a77f" cx="532.37" cy="386.58" rx="0.59" ry="0.63"/><path id="aa1d9eb7-f4b4-49e8-898b-8dec2aa39e6d" data-name="Path 1659" class="ae9f3467-4b48-45e4-865b-4f28b630c95e" d="M485.63,426.05c-.08-.11,20.32,27.58,36.17,11.58C521.8,437.63,496.76,441.28,485.63,426.05Z"/><path id="a0fa542d-e116-4f53-b10a-cddb7d8a0adf" data-name="Path 1660" class="ae9f3467-4b48-45e4-865b-4f28b630c95e" d="M473.91,440.45s12.22.36,13.49,4.13v3.93a2.17,2.17,0,0,1-2.25,0c-1.24-.71-8.62-4.74-11.22-2.8Z"/><path id="ad33a467-650e-45c5-b9d5-4fbe68fa2f34" data-name="Path 1661" class="b28f1bc4-45ed-444c-8ca5-d8378b106496" d="M474.14,440.45s11.68.34,12.9,3.94v3.75a2.11,2.11,0,0,1-2.17,0c-1.19-.69-8.28-4.53-10.74-2.67Z"/><path id="a7decc18-7619-439e-8b1c-0b33ef3a565f" data-name="Path 1662" class="ae9f3467-4b48-45e4-865b-4f28b630c95e" d="M480.58,411.93a43.27,43.27,0,0,0,4.73,8.72,33.28,33.28,0,0,0,7.42,7.7S480.78,413.77,480.58,411.93Z"/><path id="aed86e46-3cc2-460d-b171-3cf084186db4" data-name="Path 1663" class="ae9f3467-4b48-45e4-865b-4f28b630c95e" d="M476.58,396.72s2,9.44,7.29,12.65Z"/><path id="b6d1042b-d402-4d48-8bc0-0f2aee9b2a66" data-name="Path 1664" class="ae9f3467-4b48-45e4-865b-4f28b630c95e" d="M473.44,397.67c-.05-.18-1.82,7.47,6.77,11.71C480.21,409.38,476.58,408.05,473.44,397.67Z"/><path id="bf237a5e-321a-480c-b4a4-b4294b6aec99" data-name="Path 1665" class="ae9f3467-4b48-45e4-865b-4f28b630c95e" d="M526.78,391.33a61.74,61.74,0,0,1,5.42,4.38S529.36,391.14,526.78,391.33Z"/><path id="f896a956-3891-4cd2-8793-24184ba45393" data-name="Path 1666" class="ba72ac58-5d97-4e26-b411-ce06297f3569" d="M499.16,384.8a2.46,2.46,0,0,0,.83,1.57,2.25,2.25,0,0,0,1,.24,20.58,20.58,0,0,0,9.78-1,3.71,3.71,0,0,0,1.5-1.06,6.63,6.63,0,0,0,.81-2.55,41.83,41.83,0,0,1,2-4.92,17.5,17.5,0,0,0,1.06-8.83,6.18,6.18,0,0,0-.8-2.58c-.87-1.35-2.46-1.89-3.61-2.94s-1.89-2.7-3.24-3.5a5.87,5.87,0,0,0-4.06-.39,20.42,20.42,0,0,0-7.58,3.07,3.67,3.67,0,0,1-2.54.93,3.57,3.57,0,0,1-1.86-1.54,11.39,11.39,0,0,0-.81,5,2.49,2.49,0,0,1,0,.77,2.4,2.4,0,0,1-.5.8,3.11,3.11,0,0,0-.52,3.64c.35.44.89.68,1.22,1.14a4.84,4.84,0,0,1,.39,3,1.69,1.69,0,0,0,.24,1,1.34,1.34,0,0,0,1.35.33,3.52,3.52,0,0,1,1.41-.14,2.42,2.42,0,0,1,1.23,1A19.26,19.26,0,0,1,499.16,384.8Z"/><g id="b0f21a1c-180f-42fd-b464-305d38b94640" data-name="Group 463" class="ab5e8a18-3183-4555-9af8-36c63805abd5"><path id="b13fa6ef-0d45-4356-b263-bd7eff44348b" data-name="Path 1667" d="M512.56,383.68a3.59,3.59,0,0,1-1.5,1.05,20.29,20.29,0,0,1-9.74,1,2.17,2.17,0,0,1-1-.25,2.49,2.49,0,0,1-.84-1.56,18.63,18.63,0,0,0-2.75-6.84,2.35,2.35,0,0,0-1.23-1,3.79,3.79,0,0,0-1.42.15,1.3,1.3,0,0,1-1.33-.34,1.66,1.66,0,0,1-.23-1,5,5,0,0,0-.39-3c-.34-.45-.87-.69-1.23-1.14a2.42,2.42,0,0,1-.2-2.33,2.84,2.84,0,0,0-.16,3.11c.35.44.89.68,1.23,1.14a5,5,0,0,1,.38,3,1.69,1.69,0,0,0,.24,1,1.34,1.34,0,0,0,1.33.34,3.39,3.39,0,0,1,1.41-.15,2.4,2.4,0,0,1,1.24,1,19.12,19.12,0,0,1,2.75,6.84,2.46,2.46,0,0,0,.83,1.57,2.25,2.25,0,0,0,1,.24,20.58,20.58,0,0,0,9.78-1,3.71,3.71,0,0,0,1.5-1.06,3.07,3.07,0,0,0,.47-.94A.46.46,0,0,1,512.56,383.68Z"/></g><path id="bc0c6a38-9c6b-40f3-b25d-a241ff5e1f18" data-name="Path 1668" class="ae9f3467-4b48-45e4-865b-4f28b630c95e" d="M497.23,391.82s13.47,1.91,14.67-.27"/><path id="a933885e-7077-44a5-9594-af1142800a48" data-name="Path 1669" class="ae9f3467-4b48-45e4-865b-4f28b630c95e" d="M523.4,385.84s7.47,0,9.12,3"/></g></g></g></svg>