<svg xmlns="http://www.w3.org/2000/svg" viewBox="0 0 829.79 462.09"><defs><style>.a5400fcb-3e37-4a0c-86eb-ce29dc1f5e55,.a8151577-5c4d-44a9-b405-4f4095130f81{fill:#6c63ff;}.a5400fcb-3e37-4a0c-86eb-ce29dc1f5e55,.af7b9606-ad4a-466d-8022-bcb4df06639a,.bfe59872-9848-460c-b725-29afbff00788{opacity:0.1;}.a5400fcb-3e37-4a0c-86eb-ce29dc1f5e55,.af7b9606-ad4a-466d-8022-bcb4df06639a,.e3984245-0463-4492-b943-d997485f8d13{isolation:isolate;}.ba85b097-ff55-4919-b94a-476b33ace49e{fill:#2f2e41;}.be245e68-b39c-4aff-90be-34a45a8e88b5,.e3984245-0463-4492-b943-d997485f8d13{opacity:0.2;}.ae0c64a0-a6ad-4d0e-b52b-e96de9168b9a{fill:#656478;}.a493c150-27bc-44b6-9ee6-5fc3232b3c71{fill:#fbbebe;}.a6c44438-342d-42a3-83fd-3d29b061071c{fill:#3f3d56;}.b7f3479c-11d5-4f8f-bfa6-68fe245fe095{fill:#434175;}</style></defs><g id="b894870d-19b3-49ca-acf0-cf9c9f81a6e3" data-name="Layer 2"><g id="a576771e-8a52-48e8-898d-2f45f9d2224b" data-name="Layer 1"><g id="ab9e5632-555f-4942-8615-ed36e5af6502" data-name="icon trabajamos mobile"><path id="a223cf54-6617-490d-8bb9-6cf236721986" data-name="Path 1051" class="a5400fcb-3e37-4a0c-86eb-ce29dc1f5e55" d="M829.79,302a131,131,0,0,1-18.95,68.09c0,25.11-11.71,47.88-30.7,64.46a103.9,103.9,0,0,1-15.29,11.08c-.21.14-.44.27-.66.4l-1.23.73-.39.22h0c-1.74,1-3.5,1.92-5.3,2.81a120.31,120.31,0,0,1-53.51,12.33H157.52q-6.53,0-12.94-.52a153.37,153.37,0,0,1-44.29-10.25q-4.14-1.63-8.12-3.53c-1.27-.59-2.53-1.2-3.77-1.83-.78-.39-1.56-.8-2.33-1.21a138.21,138.21,0,0,1-13.53-8.23,133.79,133.79,0,0,1-11.46-8.79C36.4,406.55,21.13,377.24,21.13,344.9A130.92,130.92,0,0,1,0,273.32c0-71.91,57.48-130.2,128.39-130.2,2.17,0,4.35.07,6.52.18a7.25,7.25,0,0,1,.93,0A221.23,221.23,0,0,1,183,87.77c52.4-44.9,129-73.2,214.29-73.2,71.67,0,137.19,20,187.38,53A126.35,126.35,0,0,1,647,51.21c70.9,0,128.39,58.3,128.39,130.21a131.77,131.77,0,0,1-.73,13.62A130.56,130.56,0,0,1,829.79,302Z"/><path id="acb1844b-5d69-4bd4-9b27-ab6ffef5632a" data-name="Path 1052" class="a5400fcb-3e37-4a0c-86eb-ce29dc1f5e55" d="M660.55,198.72v-7.78a28.33,28.33,0,1,0-21.31,0v7.78A39.87,39.87,0,0,0,620.72,210a40,40,0,0,0-22.55-16.33v-7.79a28.33,28.33,0,1,0-21.31,0v7.79A40,40,0,0,0,560,203.2a40,40,0,0,0-21.34-14.62v-7.79a28.33,28.33,0,1,0-21.3,0v7.79a39.83,39.83,0,0,0-18.87,11.65,40,40,0,0,0-26.51-24v-7.78a28.33,28.33,0,1,0-21.31,0v7.78a39.91,39.91,0,0,0-29,34.65,39.59,39.59,0,0,0-12-5.63v-7.78a28.33,28.33,0,1,0-21.31,0v7.78a40,40,0,0,0-25.14,20.82,39.53,39.53,0,0,0-10.88-4.86v-7.79a28.33,28.33,0,1,0-21.31,0v7.79a39.25,39.25,0,0,0-10.3,4.51,40,40,0,0,0-25-20.47v-7.78a28.33,28.33,0,1,0-21.31,0v7.78a40,40,0,0,0-26,22.75,39.69,39.69,0,0,0-13.6-6.79v-7.79a28.33,28.33,0,1,0-21.31,0v7.79a39.91,39.91,0,0,0-29.24,38.44V439.55H264v-16h37.72v16h79.79v-16h57.3v-29h49.33V406.9h59.48V412H610v5.08h79.79V237.16A39.87,39.87,0,0,0,660.55,198.72Z"/><path id="a4fd5091-c868-4467-82a7-3a5d581d7da0" data-name="Path 1053" class="ba85b097-ff55-4919-b94a-476b33ace49e" d="M356,122.58H422.3A123.52,123.52,0,0,1,545.82,246.09h0V413.44H232.47V246.09A123.51,123.51,0,0,1,356,122.58Z"/><path id="e3d4a3b3-b333-41a7-87dc-1633916bb8e3" data-name="Path 1054" class="e3984245-0463-4492-b943-d997485f8d13" d="M363.23,129.31h51.82A123.51,123.51,0,0,1,538.56,252.82h0V406.71H239.72V252.82A123.51,123.51,0,0,1,363.23,129.31Z"/><path id="b56fee25-ecdd-4149-9c4b-0259631fb784" data-name="Path 1055" class="ba85b097-ff55-4919-b94a-476b33ace49e" d="M757.25,437.08v12.67a120.24,120.24,0,0,1-53.5,12.33H157.52q-6.53,0-12.94-.52a153.38,153.38,0,0,1-44.29-10.26q-4.14-1.64-8.12-3.53c-1.27-.59-2.53-1.2-3.77-1.83-.78-.39-1.56-.8-2.33-1.2a140,140,0,0,1-13.53-8.21v-34.4a21,21,0,0,1,21-21H696.42a20.87,20.87,0,0,1,13.78,5.2l39.9,35A20.92,20.92,0,0,1,757.25,437.08Z"/><path id="b98fb68a-3b3b-4e9b-9c42-61edc8e7865b" data-name="Path 1056" class="a8151577-5c4d-44a9-b405-4f4095130f81" d="M350.1,163.79q-23.73,1.58-47.27,5.08a44.76,44.76,0,0,0-13.06,3.38,38.41,38.41,0,0,0-8.66,6.21,114.22,114.22,0,0,0-27.56,37.37c-4,8.82-6.94,18.14-10.74,27-13.56,31.74-38.14,57.69-52.45,89.08a77.76,77.76,0,0,0-6.75,21.28c-1.07,7.65.14,16.57,6.43,21a26,26,0,0,0,9.86,3.63,1191.36,1191.36,0,0,0,131.7,21.5A22.61,22.61,0,0,1,325.83,381a66.55,66.55,0,0,1,5.81-19q-37.58-8.3-75-17.41c-3.72-.9-8.19-2.61-8.65-6.41a9.42,9.42,0,0,1,1.67-5.51,294.89,294.89,0,0,1,38-53.68c0,20.35-1,43.33-1,63.69H521.77a180.12,180.12,0,0,1-5-35.43c-1.09-39,12-77.69,8.62-116.6a23.61,23.61,0,0,0-2.69-10.37c-3.24-5.31-9.71-7.5-15.66-9.32-22.81-6.93-46.09-13.94-69.93-13.4-7.09.16-14.15,1-21.19,1.83C394.51,161.85,371.67,162.36,350.1,163.79Z"/><path id="e7c5c3c8-aaca-4d66-ab14-53a877bea2bd" data-name="Path 1057" class="ae0c64a0-a6ad-4d0e-b52b-e96de9168b9a" d="M240,397.7l17.12,54.79a1.72,1.72,0,0,0,1.63,1.2H332.2l-17.41-63.84-73.3,5.63a1.71,1.71,0,0,0-1.56,1.85,1.51,1.51,0,0,0,.07.37Z"/><path id="ac225dbd-e809-4a2b-bdfc-211f68c766de" data-name="Path 1058" class="a493c150-27bc-44b6-9ee6-5fc3232b3c71" d="M365.57,187.35A31.9,31.9,0,0,1,355,190.47l-23.41,4.06a26.08,26.08,0,0,0-12.86,4.7c-7.18,6.15-5.63,17.45-3.45,26.65l4.35,18.45c3.28,13.87,6.63,27.91,13.35,40.47,11.74,21.93,33.28,37.72,57,45.33a63.77,63.77,0,0,0,26.24,3.51c17.3-1.9,32.11-14.24,41.23-29.07s13.47-32,17.45-49c3.83-16.23,7.46-32.69,7.21-49.38a28.66,28.66,0,0,0-3.36-15c-6.07-9.66-19.83-10.39-31.11-8.61a11.44,11.44,0,0,1-5.27.06c-5.07-1.58-5.19-8.55-7.37-13.39-4.11-9.12-16.31-10.73-26.28-9.91s-25.5,1.89-34.19,7.54C366.19,172.27,375.37,181.7,365.57,187.35Z"/><path id="f8de202a-edbd-4a5d-926b-4d64a6f4f557" data-name="Path 1059" class="af7b9606-ad4a-466d-8022-bcb4df06639a" d="M365.57,187.35A31.9,31.9,0,0,1,355,190.47l-23.41,4.06a26.08,26.08,0,0,0-12.86,4.7c-7.18,6.15-5.63,17.45-3.45,26.65l4.35,18.45c3.28,13.87,6.63,27.91,13.35,40.47,11.74,21.93,33.28,37.72,57,45.33a63.77,63.77,0,0,0,26.24,3.51c17.3-1.9,32.11-14.24,41.23-29.07s13.47-32,17.45-49c3.83-16.23,7.46-32.69,7.21-49.38a28.66,28.66,0,0,0-3.36-15c-6.07-9.66-19.83-10.39-31.11-8.61a11.44,11.44,0,0,1-5.27.06c-5.07-1.58-5.19-8.55-7.37-13.39-4.11-9.12-16.31-10.73-26.28-9.91s-25.5,1.89-34.19,7.54C366.19,172.27,375.37,181.7,365.57,187.35Z"/><path id="ad11030a-bb81-4927-b75b-8dd1a98a7065" data-name="Path 1060" class="a8151577-5c4d-44a9-b405-4f4095130f81" d="M346.2,208.13a240.24,240.24,0,0,0,10.47,22.35,110.4,110.4,0,0,0,12.1,15.4c11.24,12.71,22.62,25.52,36.52,35.2A161.71,161.71,0,0,1,445.45,202c6-6.44,13.49-12.77,22.28-12.54a29.54,29.54,0,0,1,15,5.87,53.63,53.63,0,0,1,13.53,12.09A48.84,48.84,0,0,1,505,234.51a143.91,143.91,0,0,1-2.53,28.7l-7.62,49.11a11.11,11.11,0,0,1-3.38,7.69,10.56,10.56,0,0,1-4.35,1.57c-27.69,5.39-56.22,1.89-84.44,1.62-31.19-.29-63.25,3.25-92.78-6.68a8.94,8.94,0,0,1-4.19-2.36,8.69,8.69,0,0,1-1.45-3.13c-6.89-22.28-1.37-46.22,2.71-69.18a540.18,540.18,0,0,0,6.9-55c.13-1.65,18.37,2,20.41,3.2C339.84,193.35,343.53,202.54,346.2,208.13Z"/><g id="e0e688b5-0fe1-49fd-abe0-3ae03546b346" data-name="Group 383" class="be245e68-b39c-4aff-90be-34a45a8e88b5"><path id="b4cda5f2-655f-4368-aaaa-1fdc19837c92" data-name="Path 1061" class="a6c44438-342d-42a3-83fd-3d29b061071c" d="M121,389.35c0,.33,0,.66-.07,1q-4.16-1.63-8.13-3.52a6.65,6.65,0,0,1-3.77-1.83l-2.32-1.21a9.11,9.11,0,0,1,.58-1.06,6.75,6.75,0,0,1,12.28.38,12.31,12.31,0,0,1,1.43,6.27Z"/><path id="e06620c6-7bd7-469a-8cb7-d7adb10ae2fd" data-name="Path 1062" class="a6c44438-342d-42a3-83fd-3d29b061071c" d="M121.43,376.92a12.25,12.25,0,0,1-1.82,6.15,7.29,7.29,0,0,1-6.27,3.76l-.51,0a6.6,6.6,0,0,1-3.77-1.84,8.69,8.69,0,0,1-1.74-2.26,12.72,12.72,0,0,1,.39-12.42,6.75,6.75,0,0,1,12.28.38A12.18,12.18,0,0,1,121.43,376.92Z"/><ellipse id="b58fddf9-87f1-4043-8fbe-b39d32003e9c" data-name="Ellipse 594" class="a6c44438-342d-42a3-83fd-3d29b061071c" cx="114.06" cy="364.29" rx="10.16" ry="7.76" transform="translate(-253.65 466.79) rotate(-88.19)"/><ellipse id="bdeb2e8d-f30c-4a5d-b464-6345dd5847e0" data-name="Ellipse 595" class="a6c44438-342d-42a3-83fd-3d29b061071c" cx="114.46" cy="351.87" rx="10.16" ry="7.76" transform="translate(-240.85 455.16) rotate(-88.19)"/><ellipse id="b1cb397d-e140-4098-a954-1391055df031" data-name="Ellipse 596" class="a6c44438-342d-42a3-83fd-3d29b061071c" cx="114.85" cy="339.46" rx="10.16" ry="7.76" transform="translate(-228.07 443.53) rotate(-88.19)"/><path id="e72de996-6b54-4bc2-b2a2-7aae10ba6925" data-name="Path 1063" class="a8151577-5c4d-44a9-b405-4f4095130f81" d="M88.49,253.55a37.13,37.13,0,0,1-2.76-4.35l20.5-2.7L84.14,246a37.26,37.26,0,0,1,.22-29.47l29.1,16.27L86.81,211.85a37.19,37.19,0,1,1,60.08,43.53,37,37,0,0,1,4,6.91L124,275.23l28.53-8.58a37.25,37.25,0,0,1-7.11,34.74A37.2,37.2,0,1,1,87,299.53,37.21,37.21,0,0,1,88.49,253.55Z"/><path id="a2b4832e-5d0e-4ece-8aaf-73dfea7e32dd" data-name="Path 1064" class="af7b9606-ad4a-466d-8022-bcb4df06639a" d="M154.14,278.63a37.07,37.07,0,0,1-8.7,22.74,37.2,37.2,0,1,1-58.39-1.84C82.24,293,154.27,274.45,154.14,278.63Z"/></g><circle id="b9f4c932-074a-40ef-aeb1-6e373df28cf9" data-name="Ellipse 597" class="a5400fcb-3e37-4a0c-86eb-ce29dc1f5e55" cx="49.34" cy="102.4" r="15.69"/><circle id="a6903a6e-b4f2-44bf-a223-e370989f97ee" data-name="Ellipse 598" class="a5400fcb-3e37-4a0c-86eb-ce29dc1f5e55" cx="114.73" cy="15.69" r="15.69"/><circle id="a969784c-d8bf-4693-943f-b8b09da93739" data-name="Ellipse 599" class="a5400fcb-3e37-4a0c-86eb-ce29dc1f5e55" cx="109.41" cy="75.26" r="26.29"/><circle id="a05354e9-6959-4e6b-8e66-fd8007797f17" data-name="Ellipse 600" class="a493c150-27bc-44b6-9ee6-5fc3232b3c71" cx="393.86" cy="134.55" r="60.93"/><path id="eeb01a91-80e2-49eb-822e-3e26c8dbbb79" data-name="Path 1065" class="b7f3479c-11d5-4f8f-bfa6-68fe245fe095" d="M369.11,15c-16.25,2.06-33.8,4.77-45.29,16.45A64.25,64.25,0,0,0,310.53,55.3c-4.8,13.42-8.38,27.57-7.25,41.8,1,12.74,5.71,25.77,1.9,38a103.75,103.75,0,0,1-7.88,15.74,83.23,83.23,0,0,0-8.15,31.48,54.61,54.61,0,0,0,2,22.26c2.61,7.54,7.72,14,11,21.26,4.78,10.78,5.26,22.9,5.63,34.69s.68,23.5,1,35.24c.17,7.38.19,15.29-3.9,21.44,15.09-6,30.37-12.2,43.28-22.07s23.35-24.08,25-40.25c1.35-13.1-3.08-26-6.9-38.61-9.43-31.19-15.52-64.44-8.66-96.29,2.48-11.47,8.49-24.27,20-26.38,7-1.29,14.08,1.93,20.42,5.25,15,7.83,30.47,18,36.05,34,5.08,14.45.81,30.55-5.8,44.34s-15.6,26.48-20.74,40.91a76.66,76.66,0,0,0,7.44,67.52c13.1,19.49,37.3,31.48,60.58,28.33-1.82-7.86-7.53-14.22-10.6-21.69-5.56-13.57-1.81-29.18,4.17-42.57s14.16-25.87,17.9-40.09a119.6,119.6,0,0,0,2.94-30.82c0-16.29-.8-32.59-2.37-48.81a221.16,221.16,0,0,0-9.12-48.24,91.49,91.49,0,0,0-19.23-34.21C449.56,37.27,437,30.34,424.75,23.55a78.44,78.44,0,0,0-23.12-9.66,124.58,124.58,0,0,0-20.05-3A17,17,0,0,0,369.11,15Z"/><rect id="ff1ca4ab-00ce-4007-a426-59099255bd84" data-name="Rectangle 4060" class="ae0c64a0-a6ad-4d0e-b52b-e96de9168b9a" x="403.01" y="118.23" width="102.83" height="44.15" rx="8.42" transform="translate(230.36 559.8) rotate(-79.05)"/><rect id="e96b87e1-9f69-4778-a6d2-290105494fa1" data-name="Rectangle 4061" class="a6c44438-342d-42a3-83fd-3d29b061071c" x="405.97" y="118.8" width="102.83" height="44.15" rx="8.42" transform="translate(232.19 563.18) rotate(-79.05)"/><ellipse id="fe307f5e-180c-44bc-a3eb-3e18b0a058e3" data-name="Ellipse 601" class="a8151577-5c4d-44a9-b405-4f4095130f81" cx="462.86" cy="112.26" rx="7.29" ry="3.01" transform="translate(264.72 545.36) rotate(-79.05)"/><path id="e2edf0f9-4a70-45e8-bd44-ff3f21b2a0cf" data-name="Path 1066" class="a493c150-27bc-44b6-9ee6-5fc3232b3c71" d="M475.1,145.79A19.12,19.12,0,0,0,462,134.07a79,79,0,0,0-21.61-5.33,4.06,4.06,0,0,0-3.39.93c-1.62,1.91.95,4.5,3.18,5.66l17.7,9.17-16.33-1.72c-2.37-.26-5.75.39-5.58,2.77.12,1.56,1.83,2.41,3.31,2.9,10.48,3.63,22.6,6.47,28.33,16a73.31,73.31,0,0,0-22.95.23,9.71,9.71,0,0,0-5.51,2.8,4.07,4.07,0,0,0,.2,5.64,5.74,5.74,0,0,0,3.76.72c5.31-.25,10.77-1.31,15.87.2s9.64,6.87,7.88,11.9a28.67,28.67,0,0,0,14.07-2c4.61-2.18,4.5-6.27,4.22-11.2C484.52,163.08,479.73,154.06,475.1,145.79Z"/><path id="f2105daa-d515-4743-84ef-82d6eef54732" data-name="Path 1067" class="af7b9606-ad4a-466d-8022-bcb4df06639a" d="M470.52,303.91a818.22,818.22,0,0,0-16.68-84.81c-3.63-14.5-7.75-29.26-6.71-44.18,15,1.9,28.41,3.32,42.22-2.8.23,7.83,5.91,14.5,8,22.08a98,98,0,0,1,1.41,15.67,95.33,95.33,0,0,0,3.57,15.38,188.76,188.76,0,0,1,4.81,77.42C494.3,304.21,483.31,305.89,470.52,303.91Z"/><path id="ef805764-f920-4d12-b47f-9e74b29b92d5" data-name="Path 1068" class="a8151577-5c4d-44a9-b405-4f4095130f81" d="M468.34,303.91a818.22,818.22,0,0,0-16.68-84.81c-3.63-14.5-7.75-29.26-6.71-44.18,15,1.9,28.41,3.32,42.22-2.8.23,7.83,5.91,14.5,8,22.08,1.38,5.08.87,10.45,1.41,15.67a96.4,96.4,0,0,0,3.57,15.38,188.58,188.58,0,0,1,4.81,77.42C492.13,304.21,481.13,305.89,468.34,303.91Z"/><path id="b3632151-16ef-410b-9bb6-ab3738602b67" data-name="Path 1069" class="a6c44438-342d-42a3-83fd-3d29b061071c" d="M258.68,445.19,265.78,269a10.77,10.77,0,0,1,10.88-10.35L557,261.37a10.77,10.77,0,0,1,10.66,10.89,7.69,7.69,0,0,1,0,.83l-14.8,168.76a10.78,10.78,0,0,1-10.55,9.84L269.64,456.4a10.77,10.77,0,0,1-11-10.6c0-.2,0-.41,0-.61Z"/><ellipse id="f4290e3b-e9e7-4f65-8f89-60c9b4286a4a" data-name="Ellipse 602" class="a8151577-5c4d-44a9-b405-4f4095130f81" cx="415.26" cy="338.74" rx="12.33" ry="14.51"/><path id="f8366821-2f4b-435d-99c0-3361e42169b1" data-name="Path 1070" class="a6c44438-342d-42a3-83fd-3d29b061071c" d="M678.92,328.77l-.59,5-9.43,80.41c-24.58,17.14-43.7.67-43.86,0l-11.89-80.78-.67-4.6Z"/><path id="e194176d-4c9f-47b4-96bc-ffd05fd44377" data-name="Path 1071" class="af7b9606-ad4a-466d-8022-bcb4df06639a" d="M678.92,328.77l-.59,5c-27.69,16.11-57.23,3.57-65.17-.37l-.68-4.6Z"/><path id="f1bb021b-b419-4dcd-b5ed-8523c7d5aede" data-name="Path 1072" class="a8151577-5c4d-44a9-b405-4f4095130f81" d="M611.1,324.4v7.26s36.63,21.29,69.64,0V324.4Z"/><path id="bd135316-aa2b-447b-b24c-353c3f5a547c" data-name="Path 1073" class="a8151577-5c4d-44a9-b405-4f4095130f81" d="M615.36,314.82s-1.07,4.89-4.26,5.32v6.17h69.64v-5.53a5.14,5.14,0,0,1-3.63-6Z"/><ellipse id="f76bb898-9eef-47e8-a798-570b7667093b" data-name="Ellipse 603" class="a8151577-5c4d-44a9-b405-4f4095130f81" cx="645.7" cy="315.35" rx="31.41" ry="9.05"/><ellipse id="a9dc507b-ae46-4471-bd17-ee695ef9c19f" data-name="Ellipse 604" class="af7b9606-ad4a-466d-8022-bcb4df06639a" cx="645.7" cy="315.35" rx="31.41" ry="9.05"/><path id="a5a91636-7f3b-4902-b985-5cef620b5da3" data-name="Path 1074" class="af7b9606-ad4a-466d-8022-bcb4df06639a" d="M673.27,314.83c0,3.62-11.89,6.6-26.61,6.6h-.78a62.05,62.05,0,0,1-22.76-3.51c-2-.93-3.08-2-3.08-3.09,0-1.85,3.05-3.52,8-4.71a81.88,81.88,0,0,1,18.66-1.89C661.36,308.22,673.27,311.17,673.27,314.83Z"/><path id="e83b0749-746d-4d82-95fc-d0712bf48047" data-name="Path 1075" class="af7b9606-ad4a-466d-8022-bcb4df06639a" d="M645.88,321.42a62.05,62.05,0,0,1-22.76-3.51h0l4.88-7.84Z"/><path id="b880040b-3d8e-47b9-baa2-277a9460e524" data-name="Path 1076" class="af7b9606-ad4a-466d-8022-bcb4df06639a" d="M618.06,315.33c-.38-.08-.87.05-.95.42a.88.88,0,0,0,.15.55,7.72,7.72,0,0,0,3.46,3,2.1,2.1,0,0,0,.79.26.74.74,0,0,0,.73-.38.82.82,0,0,0,0-.67,3,3,0,0,0-.9-1C620.32,316.72,619.32,315.54,618.06,315.33Z"/><circle id="f1b79801-6b2f-4ab8-89d6-bd40e27f1675" data-name="Ellipse 605" class="a8151577-5c4d-44a9-b405-4f4095130f81" cx="646.76" cy="374.12" r="18.74"/><path id="ae818593-fe5b-419f-ac90-bcd4f6a86c8a" data-name="Path 1077" class="a6c44438-342d-42a3-83fd-3d29b061071c" d="M136.6,374.17h8.79a18.13,18.13,0,0,1,18.13,18.13h0v26.95H118.47V392.3a18.13,18.13,0,0,1,18.13-18.13Z"/><path id="fa8185a1-b592-403e-b0b4-28145b1612f0" data-name="Path 1078" class="af7b9606-ad4a-466d-8022-bcb4df06639a" d="M136.6,374.17h8.79a18.13,18.13,0,0,1,18.13,18.13h0v26.95H118.47V392.3a18.13,18.13,0,0,1,18.13-18.13Z"/><circle id="a86048ec-63be-4956-8c66-31732b38ff8d" data-name="Ellipse 606" class="a6c44438-342d-42a3-83fd-3d29b061071c" cx="139.19" cy="380.47" r="3.6"/><circle id="f9e71650-5b70-475f-b0fc-2415a73a2841" data-name="Ellipse 607" class="a6c44438-342d-42a3-83fd-3d29b061071c" cx="139.19" cy="375.97" r="3.6"/><circle id="afc8749e-7963-4133-98e4-09bd17560207" data-name="Ellipse 608" class="a6c44438-342d-42a3-83fd-3d29b061071c" cx="139.19" cy="371.46" r="3.6"/><circle id="b301f78f-0020-4d11-b5a4-db90da704c65" data-name="Ellipse 609" class="a6c44438-342d-42a3-83fd-3d29b061071c" cx="139.19" cy="366.95" r="3.6"/><circle id="eb473556-bc10-4dd6-8cd1-3fc400b34423" data-name="Ellipse 610" class="a6c44438-342d-42a3-83fd-3d29b061071c" cx="139.19" cy="362.45" r="3.6"/><circle id="b67a2a17-5d3e-43bf-8928-1f5aca9166e2" data-name="Ellipse 611" class="a6c44438-342d-42a3-83fd-3d29b061071c" cx="139.19" cy="357.95" r="3.6"/><circle id="ba02ec01-ee3f-4e77-8d8f-17ec2487d758" data-name="Ellipse 612" class="a6c44438-342d-42a3-83fd-3d29b061071c" cx="139.19" cy="353.44" r="3.6"/><circle id="fcb5c9a8-e9bd-46de-b70d-fe4e4b5fd911" data-name="Ellipse 613" class="a6c44438-342d-42a3-83fd-3d29b061071c" cx="144.6" cy="355.24" r="3.6"/><circle id="ae853b73-0e82-4066-aeb5-27f8adbca92c" data-name="Ellipse 614" class="a6c44438-342d-42a3-83fd-3d29b061071c" cx="148.21" cy="353.44" r="3.6"/><circle id="b0259d08-10df-4b37-9cb8-b2b320eba55a" data-name="Ellipse 615" class="a6c44438-342d-42a3-83fd-3d29b061071c" cx="151.81" cy="351.64" r="3.6"/><circle id="a856784a-ef4d-4c0a-934a-35b01570ebd7" data-name="Ellipse 616" class="a6c44438-342d-42a3-83fd-3d29b061071c" cx="139.19" cy="348.94" r="3.6"/><circle id="b212e61f-6954-4d25-980e-b4d294544cf0" data-name="Ellipse 617" class="a6c44438-342d-42a3-83fd-3d29b061071c" cx="139.19" cy="344.43" r="3.6"/><circle id="a9c04715-594d-4ec3-acf9-17fc771a32e3" data-name="Ellipse 618" class="a6c44438-342d-42a3-83fd-3d29b061071c" cx="139.19" cy="339.92" r="3.6"/><circle id="bc6f29c9-eded-454d-9e54-2e4b55546f95" data-name="Ellipse 619" class="a6c44438-342d-42a3-83fd-3d29b061071c" cx="139.19" cy="335.42" r="3.6"/><path id="f22b079d-6e2f-4946-b83a-40dcb3ec84e7" data-name="Path 1079" class="a8151577-5c4d-44a9-b405-4f4095130f81" d="M154.13,323.8c-.89.13-1.79.22-2.69.29a21.12,21.12,0,0,0,2.33-2.4,15.51,15.51,0,0,0-2.18-4.22,7.4,7.4,0,0,1-2.9.91c-.89.13-1.79.23-2.69.29a43.76,43.76,0,0,0,3.44-3.63,15.29,15.29,0,1,0,4.8,8.71Z"/><path id="b091a8a8-0040-46cf-9c4e-8e7cb9e9bf3f" data-name="Path 1080" class="a8151577-5c4d-44a9-b405-4f4095130f81" d="M166.18,341.71a7.1,7.1,0,0,1-3,1c-.89.13-1.79.24-2.69.29a25,25,0,0,0,2.67-2.77,9,9,0,1,0,3.05,1.45Z"/><circle id="b0ee0111-d286-46fb-bf5a-937f8942e3ab" data-name="Ellipse 620" class="a6c44438-342d-42a3-83fd-3d29b061071c" cx="133.79" cy="355.24" r="3.6"/><circle id="bca9b2b7-0591-4ae3-b8f5-7730647f1c55" data-name="Ellipse 621" class="a6c44438-342d-42a3-83fd-3d29b061071c" cx="130.18" cy="353.44" r="3.6"/><circle id="f66c7a64-9e14-406e-a645-421f273b5442" data-name="Ellipse 622" class="a6c44438-342d-42a3-83fd-3d29b061071c" cx="126.58" cy="351.64" r="3.6"/><path id="b9701cce-f06b-444c-9e2f-64f49dae03dc" data-name="Path 1081" class="a8151577-5c4d-44a9-b405-4f4095130f81" d="M112.21,341.71a7,7,0,0,0,3,1c.89.13,1.79.24,2.69.29a25,25,0,0,1-2.67-2.77,9,9,0,1,1-3.05,1.45Z"/><path id="b21c4d1e-04fc-4612-9802-15bfb9743d7b" data-name="Path 1082" class="a6c44438-342d-42a3-83fd-3d29b061071c" d="M136.6,376.87h8.79A18.13,18.13,0,0,1,163.52,395h0v23.85a3.08,3.08,0,0,1-3.08,3.07H121.55a3.08,3.08,0,0,1-3.08-3.07V395a18.13,18.13,0,0,1,18.13-18.13Z"/><g id="f23bdc50-49a3-4662-8a86-35396fabff44" data-name="Group 384" class="bfe59872-9848-460c-b725-29afbff00788"><path id="ea44f0b1-a159-4e7e-882c-97a102c32480" data-name="Path 1083" d="M154.41,324.78a15.2,15.2,0,0,1-1.16,1.11c.41,0,.82-.06,1.23-.11A6.63,6.63,0,0,0,154.41,324.78Z"/><path id="a28542f0-5ed4-4f85-a126-070c8796cb07" data-name="Path 1084" d="M147.84,320.48q1.35-.09,2.7-.3a8.73,8.73,0,0,0,2.34-.63,16.21,16.21,0,0,0-1.26-2.08,5.51,5.51,0,0,1-1.46.61A21,21,0,0,1,147.84,320.48Z"/><path id="a6f8184f-7c6b-40f5-8cbf-bb68bf645eec" data-name="Path 1085" d="M125.68,328.22a15.29,15.29,0,0,1,23.57-12.88l.23-.25a15.3,15.3,0,0,0-20.17,23A15.2,15.2,0,0,1,125.68,328.22Z"/></g><g id="f88f6737-d418-4d0a-ba9f-e9dd669086e1" data-name="Group 385" class="bfe59872-9848-460c-b725-29afbff00788"><path id="f0e67f9d-49ce-4f22-873c-2a0557b88dc0" data-name="Path 1086" d="M160.46,344.81c.9-.06,1.8-.16,2.69-.29a7.13,7.13,0,0,0,3-1,9,9,0,0,1,3.63,6.38c0-.31.05-.63.05-.95a9,9,0,0,0-3.63-7.25,6.93,6.93,0,0,1-3,1l-.72.1A19.36,19.36,0,0,1,160.46,344.81Z"/><path id="b76154c2-edbe-4e9c-a90d-71bd9eaede8d" data-name="Path 1087" d="M160.81,341.73a6.82,6.82,0,0,1,.9.07c.47-.51.93-1,1.4-1.56a9,9,0,0,0-11,6.37,9.14,9.14,0,0,0-.3,2.33,6.78,6.78,0,0,0,0,.9A9,9,0,0,1,160.81,341.73Z"/></g><g id="b5809a63-d861-4aea-8621-1efbaabb49b4" data-name="Group 386" class="bfe59872-9848-460c-b725-29afbff00788"><path id="b19bc752-69b9-4b7b-907e-964465bccb7f" data-name="Path 1088" d="M117.93,344.81c-.9-.06-1.8-.16-2.69-.29a7,7,0,0,1-3-1,9,9,0,0,0-3.63,6.38,7.47,7.47,0,0,1,0-.95,9,9,0,0,1,3.62-7.25,7,7,0,0,0,3,1l.73.1A17.52,17.52,0,0,0,117.93,344.81Z"/><path id="b06b45c7-5893-4f87-93ca-fbd7db215a09" data-name="Path 1089" d="M117.56,341.73a6.84,6.84,0,0,0-.91.06l-1.4-1.55a9,9,0,0,1,11,6.36,8.85,8.85,0,0,1,.31,2.34,6.78,6.78,0,0,1,0,.9A9,9,0,0,0,117.56,341.73Z"/></g></g></g></g></svg>