<svg xmlns="http://www.w3.org/2000/svg" viewBox="0 0 319.95 628.38"><defs><style>.f4c81034-0bee-4083-9eb0-b577f03cdfd3{fill:#f2f2f2;}.fde5f2eb-eaa1-4fee-b00c-ad82fea35c1a{fill:none;stroke:#3f3d56;stroke-miterlimit:10;}.bef21351-3d6d-4487-a600-e236f8a2bbdc{fill:#a0616a;}.bddf47cf-a350-42d6-bb09-91670ceaa7d9{fill:#6c63ff;}.f6669ca9-ddfc-4058-a8d2-78da9ca4063b{fill:#2f2e41;}.b7dfb979-124c-4628-b892-ee57eb87cb1f{opacity:0.1;isolation:isolate;}.f8f2e63b-dcf1-4f3b-b0ad-08023a2c466b{fill:#444053;}.bc72e364-f1ac-461d-9925-7a811432da71{fill:#3f3d56;}.af9f2eec-c398-4584-9405-9af2fb89e46a{fill:#f6f8fb;}</style></defs><g id="f60064d7-503e-4d78-a1c6-8fcd969cdf97" data-name="Layer 2"><g id="e1b00b0b-f466-40c3-959b-d45287549460" data-name="Layer 1"><g id="e804a8f5-019e-45fd-a00e-24f915093c51" data-name="icon smile mobile"><path id="f9059db4-3394-4caa-a6c8-9810d8702f40" data-name="Path 1090" class="f4c81034-0bee-4083-9eb0-b577f03cdfd3" d="M154.27,15C69.07,15,0,60.94,0,117.53c0,25.28,13.78,48.41,36.61,66.28v74.4l48.9-48.91A219.06,219.06,0,0,0,154.27,220c85.21,0,154.28-45.89,154.28-102.5S239.48,15,154.27,15Z"/><path id="b92105d1-ea22-42d6-9363-b64c06c76430" data-name="Path 1147" class="fde5f2eb-eaa1-4fee-b00c-ad82fea35c1a" d="M165.18.5C80,.5,10.9,46.4,10.9,103c0,25.28,13.78,48.41,36.61,66.29v74.39l48.9-48.9a219.35,219.35,0,0,0,68.77,10.72c85.2,0,154.27-45.89,154.27-102.5S250.38.5,165.18.5Z"/><path id="e0742125-4849-4add-a62d-25993cc3f587" data-name="Path 1148" class="bef21351-3d6d-4487-a600-e236f8a2bbdc" d="M98.15,265.73s-3.1-41.78-1.64-49.44,2.83-29.4-5.2-22.25-5.18,23.38-5.18,23.38-7.63,44.17-.57,50.16S98.15,265.73,98.15,265.73Z"/><path id="fb5c57c7-8a72-415d-9a23-32ec6c3b82f6" data-name="Path 1149" class="bddf47cf-a350-42d6-bb09-91670ceaa7d9" d="M103.93,307.06S80,285.72,81.31,267.65c0,0,14.23-11,17.45-5.17s26.72,28.51,22.73,36.23S103.93,307.06,103.93,307.06Z"/><path id="fa26e3f4-dda9-45bd-9aa1-77f202f46b07" data-name="Path 1150" class="bef21351-3d6d-4487-a600-e236f8a2bbdc" d="M188.59,268.93s14.23-39.41,14.87-47.18,5.17-29.08,11-20-1.3,23.91-1.3,23.91-4.52,44.59-12.92,48.47S188.59,268.93,188.59,268.93Z"/><path id="bebdb719-6402-4619-9e3d-925177e43905" data-name="Path 1151" class="bef21351-3d6d-4487-a600-e236f8a2bbdc" d="M149.82,466.68H188l1.94,19.39-9,1.94s-21.34-6.46-33.61-4.53S149.82,466.68,149.82,466.68Z"/><path id="a0e5fbaf-20a6-4bb0-af36-404ad1e27af6" data-name="Path 1152" class="f6669ca9-ddfc-4058-a8d2-78da9ca4063b" d="M175,464.1s18.1-12.28,21.33-1.94,14.87,47.82,11,51.7-8.4-3.23-8.4-3.23-7.76-16.16-13.57-16.8a13.48,13.48,0,0,1-9.05-5.82S193.12,475.1,175,464.1Z"/><path id="fbc0193f-8a03-4d1f-b867-2c0439426225" data-name="Path 1153" class="bef21351-3d6d-4487-a600-e236f8a2bbdc" d="M140.12,564.27s7.11,29.08,5.82,33.6,20.68,1.94,20.68,1.94l1.29-8.4S155,570.73,155,561.68,140.12,564.27,140.12,564.27Z"/><path id="e02461e0-9f5b-4d16-8f43-1970680c1b43" data-name="Path 1154" class="f6669ca9-ddfc-4058-a8d2-78da9ca4063b" d="M166.62,585.59S184.07,598.52,175,605s-42.67,23.27-42.67,23.27-12.27,1.93-3.23-9,11.63-12.93,12.28-18.74a28.23,28.23,0,0,1,4-10.91S154.34,607.57,166.62,585.59Z"/><path id="b9f33c8b-5c0c-4bf3-81d1-85c6709f66e3" data-name="Path 1155" class="f6669ca9-ddfc-4058-a8d2-78da9ca4063b" d="M113.63,430.49s-7.12,67.22,3.87,88.54,23.92,50.41,23.27,51.7,18.74-1.93,18.74-7.75-21.33-64-21.33-64,9-75.61,16.15-80.78S113.63,430.49,113.63,430.49Z"/><path id="a77a721a-6ab5-4fb5-a0eb-e30f8b03552a" data-name="Path 1156" class="b7dfb979-124c-4628-b892-ee57eb87cb1f" d="M113.63,430.49s-7.12,67.22,3.87,88.54,23.92,50.41,23.27,51.7,18.74-1.93,18.74-7.75-21.33-64-21.33-64,9-75.61,16.15-80.78S113.63,430.49,113.63,430.49Z"/><path id="fc36d1f2-f572-4264-86c3-f762430712b3" data-name="Path 1157" class="f6669ca9-ddfc-4058-a8d2-78da9ca4063b" d="M128.23,240.82a16,16,0,0,0-11.49,7.7c-2.14,4-2.28,9.45-5.69,12.35a46.42,46.42,0,0,1-7.07,3.49,10.94,10.94,0,0,0-5,9.7c.18,3.56,2.08,6.89,2,10.46-.06,4.64-3.26,8.47-6.28,11.83l10,1.86a9.93,9.93,0,0,0,4.63.12c1.73-.51,3.13-1.93,4.88-2.37a10.09,10.09,0,0,1,7.23,2.26,157.14,157.14,0,0,0,20,9.65,7.87,7.87,0,0,0,6.25.78c1.59-.74,2.59-2.48,4.08-3.41,2.69-1.68,6.06-.42,9.08.41a30,30,0,0,0,20.51-1.74c-1.39-1.62-3.2-2.75-4.69-4.25a6.88,6.88,0,0,1-2.3-5.78c.4-2.18,2.28-3.64,3.56-5.4a12.71,12.71,0,0,0,1.93-9.63,17.56,17.56,0,0,0-4.61-8.73,42.84,42.84,0,0,1-3.77-4,27.29,27.29,0,0,1-3.7-11.36,17.16,17.16,0,0,0-5-10.6c-4.87-3.85-12.78-2.54-18.48-2.92C138.89,240.92,133.65,240.82,128.23,240.82Z"/><path id="a59487f2-829c-41e1-b022-1eaf37976d36" data-name="Path 1158" class="f6669ca9-ddfc-4058-a8d2-78da9ca4063b" d="M96.18,384.61,108.46,415s-56.22,61.4-24.55,69.8,42.66-6.46,62.68,5.17c0,0,9.7-14.87,8.4-23.91,0,0-27.78-5.17-42.66-4.53,0,0,40.07-34.89,43.94-36.19s16.81-22-3.23-38.77-14.86-25.85-14.86-25.85Z"/><path id="b0683642-04a3-48b4-b660-3026b0e3acf3" data-name="Path 1159" class="bef21351-3d6d-4487-a600-e236f8a2bbdc" d="M125.26,279.28s1.94,20-6.46,22.62,33,1.94,33,1.94a14.57,14.57,0,0,1-5.17-18.1C151.11,273.45,125.26,279.28,125.26,279.28Z"/><path id="b16befef-412b-4028-b428-fddf6f2860d4" data-name="Path 1160" class="b7dfb979-124c-4628-b892-ee57eb87cb1f" d="M125.26,279.28s1.94,20-6.46,22.62,33,1.94,33,1.94a14.57,14.57,0,0,1-5.17-18.1C151.11,273.45,125.26,279.28,125.26,279.28Z"/><path id="fe4f726a-1a64-46ca-822f-494ae873040d" data-name="Path 1161" class="bddf47cf-a350-42d6-bb09-91670ceaa7d9" d="M169.2,314.17s-3.87-20-11.63-18.74-23.26,2.58-25.2,3.87a85.22,85.22,0,0,1-12.28,3.94s3.88-4.58,0-5.23-16.16,2.59-17.45,5.17-6.46,7.76-6.46,16.8-3.88,24.56-2.58,31-.65,21.34-4.53,29.73-.64,16.8,5.82,8.4,3.23,0,8.4.65,28.44-23.27,34.9-17.45,12.92,9.7,14.22,6.46-5.17-9.05-5.17-11.63-10.34,8.4.64-14.22S148.53,323.86,169.2,314.17Z"/><path id="bba96613-9e40-41d7-a966-cfddb77b9733" data-name="Path 1162" class="bddf47cf-a350-42d6-bb09-91670ceaa7d9" d="M164,312.87l5.17,1.3S188,300.6,193.12,290.9s9-17.45,9-17.45-8.4-10.34-13.57-6.46-28.44,30.37-28.44,30.37Z"/><circle id="f65f9f56-d77d-40e9-b220-d890991b3ef0" data-name="Ellipse 623" class="bef21351-3d6d-4487-a600-e236f8a2bbdc" cx="140.12" cy="272.81" r="20.04"/><path id="e70b5530-7cfc-4f76-85c3-3da5dd80daa2" data-name="Path 1163" class="f6669ca9-ddfc-4058-a8d2-78da9ca4063b" d="M122.4,267a17.58,17.58,0,0,1,12.24-4c7.68.47,14.44,5.94,22.13,6.11a7.89,7.89,0,0,1,.66-4.9,7.52,7.52,0,0,0,1.41-3.76,4.61,4.61,0,0,0-1.66-2.72,25.93,25.93,0,0,0-16.71-6.65c-4.11-.19-11.94-.09-15.11,3C122.62,256.74,122.94,263.56,122.4,267Z"/><circle id="bd3f4afc-0b52-4f1f-804d-2d1810e04f3f" data-name="Ellipse 624" class="bddf47cf-a350-42d6-bb09-91670ceaa7d9" cx="165.18" cy="122.09" r="42"/><ellipse id="af07cb2d-6409-461b-a6fb-144eccc07300" data-name="Ellipse 625" class="f8f2e63b-dcf1-4f3b-b0ad-08023a2c466b" cx="154.92" cy="106.26" rx="4.03" ry="5.27"/><ellipse id="e5002cd8-8d9d-4c95-8f7f-006a55b74dcd" data-name="Ellipse 626" class="f8f2e63b-dcf1-4f3b-b0ad-08023a2c466b" cx="175.73" cy="106.26" rx="4.03" ry="5.27"/><path id="bc546855-a92e-4ab9-9c97-d8c4662a0603" data-name="Path 1164" class="bc72e364-f1ac-461d-9925-7a811432da71" d="M190.36,122.86c0,7.57-12.65,20.33-25.42,20.33S140,130.16,140,122.57s11.91-.65,24.67-.65S190.36,115.28,190.36,122.86Z"/><path id="abe3977e-4ee6-4cea-a5c8-bf91397879c3" data-name="Path 1165" class="af9f2eec-c398-4584-9405-9af2fb89e46a" d="M144,124.16s22.94,5.11,42.22.15c0,0,2.37,0,.75,2.73a4.35,4.35,0,0,1-1.78,1.65c-3.72,1.9-17.48,7.51-39.47.35a4.3,4.3,0,0,1-2.85-2.92C142.65,125.17,142.76,124.28,144,124.16Z"/></g></g></g></svg>