<svg xmlns="http://www.w3.org/2000/svg" viewBox="0 0 722.94 613.49"><defs><style>.ac0c3101-3802-4c77-82fe-86bd53745e9e{fill:#f1f1f1;}.a8e78364-b9a5-43eb-abc0-12d83461c33e,.ae6a6647-5308-4895-a1e6-cdafb313214b{fill:#6c63ff;}.aea571c7-3202-4313-aad3-925c14565377{fill:#2f2e41;}.b1c1caf4-7ee2-4a0e-99ae-906fdf177171{fill:#9f616a;}.b2731805-0f64-47d9-898a-f5e58cf7b376{fill:#a0616a;}.aa30cd2a-6911-4da2-95dc-7e685109f314{fill:none;stroke:#3f3d56;stroke-miterlimit:10;stroke-width:2px;}.b905e2ee-9f87-4962-a283-aa3298864bf4{fill:#3f3d56;}.ae6a6647-5308-4895-a1e6-cdafb313214b{opacity:0.3;isolation:isolate;}</style></defs><g id="f6f3f635-9e91-4e71-b623-e66d9ac1a934" data-name="Layer 2"><g id="f08d6932-e3ba-4187-a988-29623fbf0517" data-name="Layer 1"><circle id="e3b9c67a-6306-463a-bd48-44b25d641d04" data-name="Ellipse 718" class="ac0c3101-3802-4c77-82fe-86bd53745e9e" cx="581.96" cy="38.49" r="11.48"/><circle id="fda81d99-ce46-4ec3-8bef-66fc5abad83d" data-name="Ellipse 719" class="ac0c3101-3802-4c77-82fe-86bd53745e9e" cx="514.29" cy="482.64" r="11.48"/><circle id="a8777555-8020-4158-a1f7-8afb737be316" data-name="Ellipse 720" class="ac0c3101-3802-4c77-82fe-86bd53745e9e" cx="228.82" cy="148.94" r="11.48"/><ellipse id="e85cf4f4-8238-4c1e-8748-b2cf02c59d1d" data-name="Ellipse 721" class="ac0c3101-3802-4c77-82fe-86bd53745e9e" cx="122.41" cy="596.21" rx="122.41" ry="17.28"/><path id="a9b665de-e0bd-4c43-850d-44861adc8241" data-name="Path 1951" class="a8e78364-b9a5-43eb-abc0-12d83461c33e" d="M186.63,465.91l30.66-9.6a112.27,112.27,0,0,0-11.45-36.56l-30.66,9.61A68.81,68.81,0,0,1,186.63,465.91Z"/><circle id="b79e5601-7c50-4802-b960-c20c75c0851d" data-name="Ellipse 722" class="aea571c7-3202-4313-aad3-925c14565377" cx="112.94" cy="207.18" r="28.62"/><path id="ff0facfd-0017-4748-9a59-bd2caf4bba2f" data-name="Path 1952" class="b1c1caf4-7ee2-4a0e-99ae-906fdf177171" d="M82.06,565.89l-5.44,23.33H89.84l5.44-26.45Z"/><path id="a2fdb73b-8ebf-47f6-a8c7-0c61069a8b0d" data-name="Path 1953" class="b1c1caf4-7ee2-4a0e-99ae-906fdf177171" d="M145.85,565.89v21.78l13.22,1.55V565.89Z"/><path id="edfce7c8-a014-4c2a-a10f-9d389f288522" data-name="Path 1954" class="b1c1caf4-7ee2-4a0e-99ae-906fdf177171" d="M78.17,318.53s1.56,33.45,3.11,35.78,15.56,35.78,15.56,35.78l7-21.78s-10.89-17.89-9.34-28a115.64,115.64,0,0,0,.58-22.55Z"/><circle id="a3a0c64c-ac91-4e2a-8df5-41cf08c60ee2" data-name="Ellipse 723" class="b1c1caf4-7ee2-4a0e-99ae-906fdf177171" cx="122.51" cy="215.86" r="21.78"/><path id="b5ed42e1-374c-428a-9c06-627745248593" data-name="Path 1955" class="b1c1caf4-7ee2-4a0e-99ae-906fdf177171" d="M104.62,218.19s.77,31.1-4.67,35.78,31.11.78,31.11.78S123.28,233,129.5,228.3,104.62,218.19,104.62,218.19Z"/><path id="f51f3eb5-a0e2-4e12-a1f5-e60f6ae5a90b" data-name="Path 1956" class="aea571c7-3202-4313-aad3-925c14565377" d="M133.4,253.19s-4.66-8.56-10.89-7.77-26.44,2.33-27.22,3.88a46.41,46.41,0,0,1-4.67,8.56c-1.55,1.56-13.22,3.89-14,13.22s28,66.12,28,66.12-3.89,13.22-3.11,16.33S97.62,366,98.4,369.87,86.73,397.09,93,427.43v49s-21,84.79-14.78,91,27.22,2.33,31.11,0,20.22-119.79,20.22-119.79L137.29,408l.78,87.12s-1.56,73.12,3.88,75.46,26.45,3.11,28-1.55c1.21-3.64,7.15-100.49,9.71-142.94a158.55,158.55,0,0,0-3.42-43.72c-3.24-14.69-7.94-31.94-13.29-38.94-10.11-13.22-16.33-55.22-16.33-55.22l13.22-24.12s-7.78-7.77-12.45-7.77A64.58,64.58,0,0,1,133.4,253.19Z"/><path id="b8315262-e8e2-4541-b434-68e3a1a20058" data-name="Path 1957" class="aea571c7-3202-4313-aad3-925c14565377" d="M81.29,265.64l-4.1,2.79s-2.9,50.1-.58,53.21,18.56,1.59,19.78-1.15S81.29,265.64,81.29,265.64Z"/><path id="aff237a8-91db-4802-8041-b209763c78ec" data-name="Path 1958" class="b1c1caf4-7ee2-4a0e-99ae-906fdf177171" d="M145.07,312.31s.78,32.67,5.44,42,21.78,48.23,21.78,48.23-1,42.8,7.67,32.29,3.22-35.4,3.22-35.4L168.4,341.85s-7.78-25.66-7-33.44S145.07,312.31,145.07,312.31Z"/><path id="e89bf653-2564-4371-856b-9578f49a63eb" data-name="Path 1959" class="aea571c7-3202-4313-aad3-925c14565377" d="M159.07,575.07s.78-.63,3.11,1.71,8.56,5.44,7.78,14-5.45,10.11-5.45,10.11v-2.33h-2.33v3.89s-3.89,12.44-21.78,4.66a40.72,40.72,0,0,1,0-10.11c.78-3.89.78-22.56,3.11-21.78s8.56,1.55,10.11,4.66S159.85,581.91,159.07,575.07Z"/><path id="ee0d38ee-62e4-4a38-82ba-ba8d3d60dfa2" data-name="Path 1960" class="aea571c7-3202-4313-aad3-925c14565377" d="M79,575.84s-.78-.62-3.11,1.71-8.56,5.45-7.78,14,5.45,10.11,5.45,10.11v-2.33h2.33v3.88s3.89,12.45,21.78,4.67a40.72,40.72,0,0,0,0-10.11c-.78-3.89-.78-22.56-3.11-21.78S86,577.55,84.4,580.66,78.17,582.69,79,575.84Z"/><path id="fa593537-f129-4b1d-a950-a0567ae4c00c" data-name="Path 1961" class="aea571c7-3202-4313-aad3-925c14565377" d="M149,261.75l10.89,2.33s0,17.11,3.11,24.11,8.56,23.33,6.22,24.12-24.11,11.66-25.67,5.44S138.07,261.75,149,261.75Z"/><circle id="a7091a53-d5e0-4aab-98c6-474777ed7639" data-name="Ellipse 724" class="aea571c7-3202-4313-aad3-925c14565377" cx="81.93" cy="169.49" r="28.62"/><path id="ff32d457-b1e6-4dc6-92ef-fb25595c1376" data-name="Path 1962" class="aea571c7-3202-4313-aad3-925c14565377" d="M57.24,193.2a28.65,28.65,0,0,0,44.21-15A28.63,28.63,0,0,1,44.64,171a27.66,27.66,0,0,1,1-4.6A28.61,28.61,0,0,0,57.24,193.2Z"/><circle id="afea33ab-4857-466e-a050-3f6e72892240" data-name="Ellipse 725" class="aea571c7-3202-4313-aad3-925c14565377" cx="105.31" cy="211.95" r="20.99"/><ellipse id="a00e043a-00a0-4e80-a1b9-d9471720d444" data-name="Ellipse 726" class="aea571c7-3202-4313-aad3-925c14565377" cx="122.96" cy="204.08" rx="18.61" ry="14.55"/><ellipse id="a859559f-dd9d-46de-b7b5-1176992cb3ac" data-name="Ellipse 727" class="b2731805-0f64-47d9-898a-f5e58cf7b376" cx="127.93" cy="218.99" rx="3.53" ry="6.25"/><rect id="b76029f3-7a70-47ce-bbf7-b6a5a2a66692" data-name="Rectangle 4138" class="ac0c3101-3802-4c77-82fe-86bd53745e9e" x="299.97" y="28.75" width="333.82" height="415.52" transform="translate(105.97 615.53) rotate(-73.27)"/><line id="ec15ecb5-eb88-4e20-bfd2-89354fd79329" data-name="Line 2" class="aa30cd2a-6911-4da2-95dc-7e685109f314" x1="475.4" y1="110.37" x2="569.63" y2="148.46"/><path id="a5923510-ae46-4171-951b-4405ff2f369d" data-name="Path 1963" class="b905e2ee-9f87-4962-a283-aa3298864bf4" d="M477.79,118.2l1.41-.66L476,110.6l7.17-2.74-.56-1.44-8.73,3.34Z"/><path id="f65b5f60-4dcd-47ec-b6d0-110277569a8a" data-name="Path 1964" class="b905e2ee-9f87-4962-a283-aa3298864bf4" d="M562.46,152.43,561.9,151l7.17-2.74-3.25-6.95,1.41-.66,4,8.47Z"/><circle id="bd6c5fc1-2c28-4189-8bdb-0abe6c683dac" data-name="Ellipse 728" class="b905e2ee-9f87-4962-a283-aa3298864bf4" cx="522.51" cy="129.42" r="8.56"/><line id="af3a8a77-f54d-4afd-b924-aa35a7cbf9a1" data-name="Line 3" class="aa30cd2a-6911-4da2-95dc-7e685109f314" x1="468.21" y1="374.42" x2="555.03" y2="321.56"/><path id="e5937e18-6301-4c0c-8d43-f40e42516242" data-name="Path 1965" class="b905e2ee-9f87-4962-a283-aa3298864bf4" d="M475.93,377.17l.31-1.52-7.51-1.54,2.08-7.38-1.5-.42-2.53,9Z"/><path id="ef6be73e-cac3-42cc-b9f5-d0f789288da1" data-name="Path 1966" class="b905e2ee-9f87-4962-a283-aa3298864bf4" d="M553.93,329.68l-1.5-.42,2.09-7.38L547,320.34l.32-1.52,9.15,1.87Z"/><circle id="f6fb23fd-170f-416a-bdde-43f674bde622" data-name="Ellipse 729" class="b905e2ee-9f87-4962-a283-aa3298864bf4" cx="511.62" cy="347.99" r="8.56"/><line id="b49b8244-8f78-48e5-b031-39d6d220f63a" data-name="Line 4" class="aa30cd2a-6911-4da2-95dc-7e685109f314" x1="359.14" y1="206.94" x2="359.18" y2="308.58"/><path id="ea633978-a62e-4acd-91c8-0f7f4ff68e67" data-name="Path 1967" class="b905e2ee-9f87-4962-a283-aa3298864bf4" d="M352.79,212.1l1.15,1.06,5.22-5.62,5.22,5.62,1.15-1.07-6.36-6.84Z"/><path id="b319df85-31dc-4f44-b82b-f810225cfb52" data-name="Path 1968" class="b905e2ee-9f87-4962-a283-aa3298864bf4" d="M352.81,303.43l1.15-1.07,5.23,5.62,5.22-5.62,1.15,1.06-6.36,6.84Z"/><circle id="eb7b06d1-7a21-4c8a-8271-092bddfb08d8" data-name="Ellipse 730" class="b905e2ee-9f87-4962-a283-aa3298864bf4" cx="359.16" cy="257.76" r="8.56"/><rect id="a3e8ecb0-dd7c-4192-83f9-cab572a66607" data-name="Rectangle 4139" class="b905e2ee-9f87-4962-a283-aa3298864bf4" x="285.15" width="144.01" height="175.7"/><rect id="bd57b175-d7e9-41aa-8c42-d12f44eab0d2" data-name="Rectangle 4140" class="b905e2ee-9f87-4962-a283-aa3298864bf4" x="581.81" y="167.05" width="141.13" height="175.7"/><rect id="be6509b9-f2f2-4043-b561-10a0eb118cb5" data-name="Rectangle 4141" class="a8e78364-b9a5-43eb-abc0-12d83461c33e" x="601.97" y="204.5" width="100.81" height="2.88"/><rect id="f89e77c3-8b1d-4607-b19b-ce6da0154c91" data-name="Rectangle 4142" class="a8e78364-b9a5-43eb-abc0-12d83461c33e" x="601.97" y="221.78" width="100.81" height="2.88"/><rect id="b82e6cb0-478c-48b0-baa0-26d286b0c382" data-name="Rectangle 4143" class="a8e78364-b9a5-43eb-abc0-12d83461c33e" x="601.97" y="236.18" width="100.81" height="5.76"/><rect id="a498ca99-b6a7-450a-bd73-25ec2e5677d9" data-name="Rectangle 4144" class="a8e78364-b9a5-43eb-abc0-12d83461c33e" x="601.97" y="253.46" width="100.81" height="5.76"/><rect id="a35d47ea-52e7-4cf2-b005-264eca7dc4c7" data-name="Rectangle 4145" class="a8e78364-b9a5-43eb-abc0-12d83461c33e" x="601.97" y="270.74" width="100.81" height="2.88"/><rect id="f08f97bb-8eef-459c-b400-53a5b1e261a7" data-name="Rectangle 4146" class="a8e78364-b9a5-43eb-abc0-12d83461c33e" x="625.02" y="285.15" width="54.72" height="20.16"/><rect id="a83127bf-3fde-4805-b89f-4d2dc9b24877" data-name="Rectangle 4147" class="b905e2ee-9f87-4962-a283-aa3298864bf4" x="299.55" y="348.51" width="141.13" height="175.7"/><rect id="a1c282a6-927e-4d8a-a2ba-d540587faa81" data-name="Rectangle 4148" class="a8e78364-b9a5-43eb-abc0-12d83461c33e" x="319.93" y="445.56" width="101.12" height="4.67"/><rect id="b7d948f7-dc35-4960-ab89-19082699855c" data-name="Rectangle 4149" class="a8e78364-b9a5-43eb-abc0-12d83461c33e" x="319.93" y="461.89" width="101.12" height="4.67"/><rect id="a1e3a5b3-0e56-4804-87ab-f4344b270477" data-name="Rectangle 4150" class="a8e78364-b9a5-43eb-abc0-12d83461c33e" x="319.93" y="478.23" width="101.12" height="4.67"/><rect id="aedc0e37-9e5d-4329-8912-390ed0e81d5d" data-name="Rectangle 4151" class="a8e78364-b9a5-43eb-abc0-12d83461c33e" x="319.93" y="494.56" width="101.12" height="4.67"/><path id="ffdff470-464e-484d-822e-c9ebfee36c84" data-name="Path 1972" class="ae6a6647-5308-4895-a1e6-cdafb313214b" d="M350.9,410.27H318.78a112,112,0,0,1,0-38.3H350.9A68.89,68.89,0,0,0,350.9,410.27Z"/><rect id="a5508e79-89f9-4b9a-a942-a7a45f5ff17f" data-name="Rectangle 4152" class="ae6a6647-5308-4895-a1e6-cdafb313214b" x="364.27" y="375.55" width="59.12" height="3.89"/><rect id="b73f1a17-1f85-4a52-b7b6-2e4dacecd082" data-name="Rectangle 4153" class="ae6a6647-5308-4895-a1e6-cdafb313214b" x="364.27" y="389.55" width="59.12" height="3.89"/><rect id="aa403e5e-3c20-4c6f-97cc-c09967f793e6" data-name="Rectangle 4154" class="ae6a6647-5308-4895-a1e6-cdafb313214b" x="364.27" y="403.55" width="59.12" height="3.89"/><rect id="af021033-31c6-4198-bb74-df4568402c1e" data-name="Rectangle 4155" class="ae6a6647-5308-4895-a1e6-cdafb313214b" x="364.27" y="417.55" width="59.12" height="3.89"/></g></g></svg>