<svg xmlns="http://www.w3.org/2000/svg" viewBox="0 0 809.4 626.37"><defs><style>.a9e5c45c-16f2-43db-a43f-27fc9a6d92cb{fill:#f2f2f2;}.edb01c89-27e7-46da-8892-e98f92a7efc8{fill:#fff;}.ae331f62-e559-4087-9412-42d132a0980d{fill:#3f3d56;}.a8c66c06-9bc6-43aa-a3e7-c811429fcb71{fill:#6c63ff;}.ee464b46-71f5-4001-9b8f-d7d9137165f7{fill:#2f2e41;}.f02a7f13-ee3e-43cf-851b-39cd3b2d56fe{fill:#ffb8b8;}.a35d2e5a-60f6-4a6f-90a4-5370f82c0d38{fill:#ccc;}</style></defs><g id="a278e8bc-9434-42a8-bbe2-5f5940e646d8" data-name="Layer 2"><g id="acb591ce-ff36-4b6a-b5d2-34956a3993ce" data-name="Layer 1"><path id="ed8fe64e-8b26-4881-b3a2-e51451882495" data-name="Path 4265" class="a9e5c45c-16f2-43db-a43f-27fc9a6d92cb" d="M35.9,608.5c25.21,18.18,57.91,19.09,89.52,16.86,4.42-.31,8.8-.68,13.14-1.07h.09l.62-.06L142,624l-.21.4-.66,1.24.71-1.24L142,624c8.19-14.25,16.31-29,18.38-45.29,2.14-16.88-3.88-36-18.74-44.3a29.88,29.88,0,0,0-6.15-2.58c-.89-.28-1.79-.49-2.7-.68a32.14,32.14,0,0,0-37.38,41.78C82.81,560,85.15,539.06,89.5,521.55s9.63-37,.78-52.74A34.79,34.79,0,0,0,67,452.43l-.9-.19a46.93,46.93,0,0,0-33.7,5.91C13.81,469.86,4.26,492.05,1.16,513.8-3.83,548.78,7.21,587.83,35.9,608.5Z"/><path id="ef0ecef0-48aa-4a1d-b160-549de3d6ef58" data-name="Path 4266" class="edb01c89-27e7-46da-8892-e98f92a7efc8" d="M44,552.41a79.85,79.85,0,0,0,5.5,22.47A69.13,69.13,0,0,0,60.3,592.44,88.72,88.72,0,0,0,94.38,617a127.48,127.48,0,0,0,31,8.34q6.62-.47,13.13-1.07h.09l.62,0,2.68-.25-.21.4-.66,1.24.71-1.24L142,624a70,70,0,0,1-6.51-92.17,27.53,27.53,0,0,0-2.71-.68,74.22,74.22,0,0,0-6.73,11.15,72.27,72.27,0,0,0-6.24,45,74,74,0,0,0,18.73,36.88L136,624A129.61,129.61,0,0,1,90.19,612.3a82.54,82.54,0,0,1-30.92-25.37A74.65,74.65,0,0,1,46.13,546,172.53,172.53,0,0,1,51,499.22a196.66,196.66,0,0,1,16.5-44.93,1.41,1.41,0,0,0-.55-1.86,1.21,1.21,0,0,0-.9-.19,1,1,0,0,0-.69.59c-.9,1.76-1.79,3.52-2.64,5.3a198.71,198.71,0,0,0-15.54,46.62A159.65,159.65,0,0,0,44,552.41Z"/><path id="b707c45f-920b-4d68-818a-7324ffc0745c" data-name="Path 4267" class="ae331f62-e559-4087-9412-42d132a0980d" d="M793.17,538.52H375.9a16.24,16.24,0,0,1-16.23-16.23V16.23A16.25,16.25,0,0,1,375.9,0H793.17A16.25,16.25,0,0,1,809.4,16.23V522.29A16.24,16.24,0,0,1,793.17,538.52ZM375.9,1.91a14.33,14.33,0,0,0-14.32,14.32V522.29a14.33,14.33,0,0,0,14.32,14.32H793.17a14.33,14.33,0,0,0,14.32-14.32V16.23A14.34,14.34,0,0,0,793.17,1.91Z"/><rect id="a3211770-9c10-42c8-87ba-784cb24ed3c0" data-name="Rectangle 4189" class="ae331f62-e559-4087-9412-42d132a0980d" x="360.63" y="39.71" width="447.81" height="1.91"/><circle id="fabad891-7580-4117-ad3a-d2aafa99eefe" data-name="Ellipse 965" class="ae331f62-e559-4087-9412-42d132a0980d" cx="382.59" cy="21.01" r="7.64"/><circle id="e933242e-e34f-4a60-8c96-79d552be4f96" data-name="Ellipse 966" class="ae331f62-e559-4087-9412-42d132a0980d" cx="406.47" cy="21.01" r="7.64"/><circle id="bf7c24b1-65a5-4954-a077-f917b7758a5f" data-name="Ellipse 967" class="ae331f62-e559-4087-9412-42d132a0980d" cx="430.34" cy="21.01" r="7.64"/><path id="b97d54cb-0509-40cd-b5c6-642931954718" data-name="Path 4268" class="ae331f62-e559-4087-9412-42d132a0980d" d="M728.49,115.53H430.59a12.41,12.41,0,1,1,0-24.82h297.9a12.41,12.41,0,1,1,0,24.82ZM430.59,92.62a10.51,10.51,0,0,0,0,21h297.9a10.51,10.51,0,0,0,0-21Z"/><path id="bc9edd0c-be06-4eee-900c-6a06c18222e0" data-name="Path 4269" class="ae331f62-e559-4087-9412-42d132a0980d" d="M542.05,290.27H424.6A16.26,16.26,0,0,1,408.36,274V177.6a16.26,16.26,0,0,1,16.24-16.23H542a16.24,16.24,0,0,1,16.23,16.23V274A16.24,16.24,0,0,1,542,290.27Zm-117.45-127a14.32,14.32,0,0,0-14.32,14.32V274a14.32,14.32,0,0,0,14.32,14.32H542A14.33,14.33,0,0,0,556.36,274V177.6A14.32,14.32,0,0,0,542,163.28Z"/><rect id="b9086aea-9ded-44bb-a2de-204ea0ff0f16" data-name="Rectangle 4190" class="a9e5c45c-16f2-43db-a43f-27fc9a6d92cb" x="611.75" y="166.14" width="148" height="126.99" rx="44.34"/><path id="a67563a5-60c0-4517-83e7-f6366f64890f" data-name="Path 4270" class="ae331f62-e559-4087-9412-42d132a0980d" d="M542.05,469.78H424.6a16.26,16.26,0,0,1-16.24-16.24V357.11a16.26,16.26,0,0,1,16.24-16.24H542a16.24,16.24,0,0,1,16.23,16.24v96.43A16.25,16.25,0,0,1,542,469.78Zm-117.45-127a14.33,14.33,0,0,0-14.32,14.32v96.44a14.33,14.33,0,0,0,14.32,14.32H542a14.34,14.34,0,0,0,14.32-14.32V357.1A14.34,14.34,0,0,0,542,342.78Z"/><rect id="af3368bf-4f4e-480b-905a-788ee57d19ee" data-name="Rectangle 4191" class="a9e5c45c-16f2-43db-a43f-27fc9a6d92cb" x="611.75" y="345.65" width="148" height="126.99" rx="44.34"/><path id="b50055ae-0c86-4c58-8357-e8e12e4d23b1" data-name="Path 4271" class="a8c66c06-9bc6-43aa-a3e7-c811429fcb71" d="M454.1,266.94H454l-13.36-.49a1.72,1.72,0,0,1-1.66-1.54c-.92-8.2-4.71-50,11.15-67.38A22.64,22.64,0,0,1,468.11,190a.78.78,0,0,0,.69-.37l3.23-5.08a1.75,1.75,0,0,1,1.66-.79c2.6.31,15.8,1.79,21.37.18a1.74,1.74,0,0,1,1.84.56l4.24,5.19a.74.74,0,0,0,.62.27,21.81,21.81,0,0,1,16.35,7.79c7.18,8,14.59,26.14,9.11,66.84a1.74,1.74,0,0,1-1.72,1.51H515a1.74,1.74,0,0,1-1.72-1.49l-3.44-23.71a.78.78,0,0,0-1.56.09L508,252.13a1.74,1.74,0,0,1-1,1.55,58.38,58.38,0,0,1-45.47-.3,1.75,1.75,0,0,1-1-1.52L460,241.74a.78.78,0,0,0-1.56-.06l-2.67,23.7A1.76,1.76,0,0,1,454.1,266.94Z"/><path id="e287eff6-d5fc-42e1-9999-43ed78d01fa4" data-name="Path 4272" class="a8c66c06-9bc6-43aa-a3e7-c811429fcb71" d="M509.36,441.66h0L457,441.32a1.56,1.56,0,0,1-1.54-1.38l-5.27-44.76a1.2,1.2,0,0,0-1.16-1.07c-4.16-.14-14-1.08-16.09-6.93-1.83-5.21,3.17-12.9,14.83-22.85a1.58,1.58,0,0,1,2.21.17,1.63,1.63,0,0,1,.31.58l6,20.88a1.23,1.23,0,0,0,1.16.87l49.63.33a1.2,1.2,0,0,0,1.17-.85l6.74-21.44a1.56,1.56,0,0,1,2.44-.77c4.59,3.51,19.41,15.57,17,23.28-1.28,4-7,6.29-17.12,6.69a1.21,1.21,0,0,0-1.16,1.07l-5.26,45.11A1.56,1.56,0,0,1,509.36,441.66Z"/><path id="bc6fefe4-ef50-42a5-ab46-9d0a189de7f6" data-name="Path 4273" class="edb01c89-27e7-46da-8892-e98f92a7efc8" d="M738.75,253.18a110.16,110.16,0,0,0-45.36,20.09,8.42,8.42,0,0,0-3.61-4.3,12.66,12.66,0,0,0-3.68-1.54,3.65,3.65,0,0,0-3.35,1.45,19,19,0,0,0-3,4.42c-18-12.34-45.24-20.22-45.24-20.22v-2.46a12.83,12.83,0,0,1,.18-1.74c.09-.66.2-1.25.35-2,2.32-11.76,11.46-38.65,11.46-38.65h10.34l20,4.15L699.46,211l22.72-4.73,3-.62c4.91,3.86,10.49,30.85,12.68,42.34.27,1.46.49,2.66.65,3.55S738.75,253.18,738.75,253.18Z"/><path id="bf65d8bb-cfe8-4318-8a44-d0a9e4967330" data-name="Path 4274" class="edb01c89-27e7-46da-8892-e98f92a7efc8" d="M677,371.64h0s-4.8,1.2-12.25,21.37a223.21,223.21,0,0,0-10.09,46.25s-4.19,7.09,13.69,7.56c0,0-1.44,4.69,8.65,4a53.29,53.29,0,0,0,8.64-.71s6.48-4.09,9.37-3.37a15.22,15.22,0,0,1,7.8,3.61c3.12,2.63,13.1,1.56,13.22-.48a18.91,18.91,0,0,0,0-3s15.24,1,12.37-10.09-5.29-29.19-5.29-29.19-7.8-35.43-16.69-35.91S677,371.64,677,371.64Z"/><circle id="bfde3832-dc47-4d74-a69c-684a80ac95a5" data-name="Ellipse 968" class="ee464b46-71f5-4001-9b8f-d7d9137165f7" cx="183.94" cy="308.98" r="28.65"/><circle id="b22d62e3-665a-4bbb-b84f-df0d0f02598b" data-name="Ellipse 969" class="f02a7f13-ee3e-43cf-851b-39cd3b2d56fe" cx="186.35" cy="314.23" r="23.45"/><path id="f4e332b4-9edd-4e03-b518-e71de8822280" data-name="Path 4275" class="f02a7f13-ee3e-43cf-851b-39cd3b2d56fe" d="M275.66,385.56a9.89,9.89,0,0,0-1,1.21l-47.33-1.67L221.9,375l-16.38,6.17,7.83,18.9a7.64,7.64,0,0,0,7.89,4.67l53.55-5.88a10,10,0,1,0,1.81-14.06,9,9,0,0,0-.94.82Z"/><path id="a1367866-aa09-4448-8fad-7e3d58e26a5a" data-name="Path 4276" class="a35d2e5a-60f6-4a6f-90a4-5370f82c0d38" d="M199.21,390.24a4.59,4.59,0,0,1-2.52-2.89l-6.6-22.12a12.78,12.78,0,0,1,23.12-10.88L226,373.67a4.61,4.61,0,0,1-1.3,6.38c-.19.12-.39.23-.59.33L203,390.21A4.63,4.63,0,0,1,199.21,390.24Z"/><path id="ad664453-9efe-4cd8-a415-0ad80d8cfb66" data-name="Path 4277" class="f02a7f13-ee3e-43cf-851b-39cd3b2d56fe" d="M245.82,614.84l10.28-5.6-16.7-42.32-15.17,8.26Z"/><path id="b72ead90-a899-43a2-ad05-ea2dc1133396" data-name="Path 4278" class="ee464b46-71f5-4001-9b8f-d7d9137165f7" d="M241.37,612.91l20.25-11h0a14.68,14.68,0,0,1,19.92,5.88h0l.23.42-33.16,18Z"/><path id="e1a3d05d-6080-435d-85c6-e2467dd4114b" data-name="Path 4279" class="f02a7f13-ee3e-43cf-851b-39cd3b2d56fe" d="M132.68,614.89h11.71L150,569.73H132.68Z"/><path id="f0342ace-d4a3-457b-a800-543a5f5d00b3" data-name="Path 4280" class="ee464b46-71f5-4001-9b8f-d7d9137165f7" d="M129.7,611.07h23a14.69,14.69,0,0,1,14.69,14.68v.48H129.7Z"/><path id="b2192ebc-a979-46c2-8465-b809d093ec89" data-name="Path 4281" class="ee464b46-71f5-4001-9b8f-d7d9137165f7" d="M205.42,414.49l3.82,45.83,42.61,127.81a3.83,3.83,0,0,1-2.42,4.83,1.68,1.68,0,0,1-.32.09l-13.06,3.11a3.81,3.81,0,0,1-4.29-2L177.28,486.11a1.91,1.91,0,0,0-3.57.45l-24,109.19a3.81,3.81,0,0,1-3.73,3H133.87a3.82,3.82,0,0,1-3.82-3.81v-.07c1.11-75.72-2.56-162,26.67-175.64l4.78-12.41Z"/><path id="b3ead701-a4d3-48dc-a7fa-1ca678863898" data-name="Path 4282" class="a35d2e5a-60f6-4a6f-90a4-5370f82c0d38" d="M160.13,410.1l-4.92-29.77a29.49,29.49,0,0,1,9.33-26.74A29,29,0,0,1,191.59,347l.83.23a29.4,29.4,0,0,1,21.23,26.11c.94,12.92.1,31.68-9.25,47.61l-.18.31Z"/><path id="f91c258b-5277-439c-94be-d2b349b47008" data-name="Path 4283" class="ee464b46-71f5-4001-9b8f-d7d9137165f7" d="M209.68,301.76a31.89,31.89,0,0,1-18.23,5.63,19.46,19.46,0,0,0,7.76,3.19,64.23,64.23,0,0,1-26.27.15,17,17,0,0,1-5.5-1.89,7,7,0,0,1-3.4-4.54c-.57-3.29,2-6.29,4.66-8.31a34.32,34.32,0,0,1,28.86-5.77,15.82,15.82,0,0,1,8.53,4.84,7.78,7.78,0,0,1,.72,9.25Z"/><path id="aec2fe46-2e02-4325-8e24-be5374f9b9e2" data-name="Path 4284" class="ee464b46-71f5-4001-9b8f-d7d9137165f7" d="M183.56,280.2a19.38,19.38,0,0,0-18.33-22.94c-11.47.23-19.91,10.6-25.71,20.51S128,298.88,117.3,303.15a22.94,22.94,0,0,1-31.46-21.86c-1.43,12,.55,25,8.31,34.33s22.19,13.49,32.56,7.24c5.92-3.57,9.7-9.77,12.83-15.94s5.9-12.68,10.63-17.74,12-8.39,18.62-6.27a63.61,63.61,0,0,0,7.66,3c2.7.5,6.09-.79,6.46-3.51Z"/><path id="e2579422-0de7-40bd-b66f-eed54532d61e" data-name="Path 4285" class="f02a7f13-ee3e-43cf-851b-39cd3b2d56fe" d="M127,479.22a10.25,10.25,0,0,1,1.13-14.46,10.56,10.56,0,0,1,1.49-1.06L150,372.53,170.64,381l-26.49,87A10.31,10.31,0,0,1,127,479.22Z"/><path id="a365168c-26d2-4ed3-b9ec-7d456b3a2925" data-name="Path 4286" class="a35d2e5a-60f6-4a6f-90a4-5370f82c0d38" d="M141.94,385.61a4.57,4.57,0,0,1-.32-3.82l7.82-21.72a12.77,12.77,0,0,1,25.06,5l-1.19,23.13a4.6,4.6,0,0,1-4.83,4.35,4.91,4.91,0,0,1-.67-.08L145,387.86a4.54,4.54,0,0,1-3.1-2.25Z"/><path id="b2c765e7-aa87-4a92-ad7b-cf470a9d9c84" data-name="Path 22" class="ae331f62-e559-4087-9412-42d132a0980d" d="M308.62,375.38l-.34-.05,1.28-9.28a5.43,5.43,0,0,0-4.64-6.11h0l-19.67-2.71a5.43,5.43,0,0,0-6.12,4.64h0l-7,50.93a5.44,5.44,0,0,0,4.64,6.11h0l19.67,2.71a5.44,5.44,0,0,0,6.12-4.64h0l4.81-35,.34.05Z"/><path id="a3019985-32e0-4662-ab5c-6230abbd8195" data-name="Path 23" class="edb01c89-27e7-46da-8892-e98f92a7efc8" d="M304.3,362.67l-2.45-.34a1.83,1.83,0,0,1-1.32,2.23,1.88,1.88,0,0,1-.71,0l-10.75-1.47a1.84,1.84,0,0,1-1.56-2.07,1.72,1.72,0,0,1,.23-.67l-2.29-.32a3.86,3.86,0,0,0-4.35,3.3h0l-6.67,48.51a3.87,3.87,0,0,0,3.3,4.36h0l18.84,2.59a3.87,3.87,0,0,0,4.36-3.3h0L307.59,367a3.86,3.86,0,0,0-3.3-4.35h0Z"/><circle id="bd4666c6-d1ca-4895-9cd9-6e0fd5f41b85" data-name="Ellipse 970" class="a8c66c06-9bc6-43aa-a3e7-c811429fcb71" cx="290.93" cy="392.44" r="10.5"/><path id="f21534ba-0aab-49a1-b610-a344b240ff29" data-name="Path 4287" class="edb01c89-27e7-46da-8892-e98f92a7efc8" d="M289.89,396.44a1,1,0,0,1-.65-.22h0l-2.47-1.89a1.1,1.1,0,0,1-.44-1.5,1.12,1.12,0,0,1,1.51-.44,1.64,1.64,0,0,1,.26.2l1.6,1.23,3.77-4.93a1.12,1.12,0,0,1,1.54-.2l0,0,0,0a1.12,1.12,0,0,1,.2,1.54L290.78,396A1.09,1.09,0,0,1,289.89,396.44Z"/><path id="f9a0a24f-d2a6-403f-a39b-10f1b670bb27" data-name="Path 4288" class="ae331f62-e559-4087-9412-42d132a0980d" d="M387.74,626.37H24a1,1,0,0,1-.11-1.91h363.9a1,1,0,0,1,1,.9,1,1,0,0,1-.9,1Z"/></g></g></svg>