<svg xmlns="http://www.w3.org/2000/svg" xmlns:xlink="http://www.w3.org/1999/xlink" viewBox="0 0 824.99 651.55"><defs><style>.b4a4bc10-802c-41e5-adb7-8bbcf7243480,.b94b579f-17c6-4e83-a870-41b8fa329cf7{fill:#6c63ff;}.af9c6aed-a78a-42ee-9738-26bb0d99e1b0,.b94b579f-17c6-4e83-a870-41b8fa329cf7,.fa37c9ed-4e59-4877-abe3-e1efb9b74e86{opacity:0.1;}.ae08928b-26de-4d36-aff5-06bb34ad0259,.af9c6aed-a78a-42ee-9738-26bb0d99e1b0,.b7130c1d-75bc-4645-a47f-5f66b2f5ef8e,.b94b579f-17c6-4e83-a870-41b8fa329cf7,.febe9fd6-540f-4c5a-814e-b153a1a145b3{isolation:isolate;}.b233c9b6-14b2-4eb2-8608-cf57e8b08920{opacity:0.9;}.b7130c1d-75bc-4645-a47f-5f66b2f5ef8e,.e457e17b-eca5-4de2-83ac-f3134fcf78ac{fill:#3a3768;}.b8c2b8dc-f10f-4536-8ae2-3985f929b95c{fill:#e6e8ec;}.b6431585-9880-4960-8cdc-e68988f0e5dd{fill:#ffd037;}.ad81e2c6-dd81-4965-b6f9-d2b1d3a79cb5{fill:#a8a8a8;}.febe9fd6-540f-4c5a-814e-b153a1a145b3{opacity:0.2;}.b7130c1d-75bc-4645-a47f-5f66b2f5ef8e{opacity:0.3;}.f00e09f9-b173-4c6e-b051-eb7e45745357{fill:#fff;}.a2424980-c96c-4694-bf2a-8f4ab96e34dd{fill:#514e7f;}.a98d733a-09aa-4507-818a-a9048c94f541{fill:#464353;}.b1cf965a-a1a8-4188-89e6-7213da8189fb{fill:#a1616a;}.f4c6446c-7be2-4404-bc8c-1b374a51e987{fill:#fbbebe;}.ae08928b-26de-4d36-aff5-06bb34ad0259,.bdabb693-4bf9-4185-b33b-c9870720c806{opacity:0.05;}.eb1ea41b-c5d6-4c8e-b2d3-cab3f5b172d6{fill:#3f3d56;}.bceb0a5b-9620-4168-a6ea-6f109e38d3ea{fill:url(#a347c2a2-921b-4097-b9dd-1345c02714af);}.a72a6f0a-a4db-4cc5-9c4b-26e33e2d6c33{fill:#2d293d;}.e9bd331f-ac5b-48a6-93c4-bcfb51b8ad7d{fill:#ffcdd3;}.bb874f45-7102-4a48-834f-227f4e65a2c3{fill:#dce6f2;}.bc8ca291-6dbe-4118-8041-8b8a3bd88648{fill:#575988;}</style><linearGradient id="a347c2a2-921b-4097-b9dd-1345c02714af" x1="121" y1="809.63" x2="121" y2="806.94" gradientTransform="matrix(39.61, 0, 0, -90.2, -4305.84, 70562.36)" gradientUnits="userSpaceOnUse"><stop offset="0" stop-color="gray" stop-opacity="0.25"/><stop offset="0.54" stop-color="gray" stop-opacity="0.12"/><stop offset="1" stop-color="gray" stop-opacity="0.1"/></linearGradient></defs><g id="a3eba6cb-6666-4bcb-ae2a-0722178e5937" data-name="Layer 2"><g id="a2f6f91e-ec9d-4557-bd70-a10141740695" data-name="Layer 1"><g id="a27a8d4b-6f93-4ea9-a965-2490d5b6e16b" data-name="icon branding web"><path id="ae42a589-9501-4677-ba83-94489a74e9a4" data-name="Path 1547-2" class="b94b579f-17c6-4e83-a870-41b8fa329cf7" d="M482.91,90.05c-48.7-1.81-95.08-18.7-139.36-37.18s-88.15-39-135.73-48.74c-30.54-6.3-65.5-7.19-90.13,10.41C94,31.5,86.33,60.74,82.21,87.88c-3.1,20.42-4.92,41.91,3.57,61,5.89,13.27,16.36,24.43,23.59,37.19,25.19,44.23,7.38,98.78-19.9,142-12.79,20.26-27.65,39.61-37.53,61.16s-14.44,46.28-5.8,68.28c8.57,21.83,29,38.19,51.09,49.72,44.91,23.39,97.81,30.09,149.43,33.88,114.25,8.41,229.08,4.76,343.62,1.13,42.39-1.35,85-2.72,126.66-9.76,23.16-3.91,47.06-10.12,63.87-25.06,21.35-19,26.64-51.24,12.33-75.09-24-40-90.28-49.95-107.07-92.89-9.22-23.62.25-49.95,13.66-71.87,28.78-47,77-88.27,79.53-142C781,88.65,757.83,51.68,722,34.21c-37.56-18.31-89.67-16-117.37,14.3C576.06,79.65,525.91,91.66,482.91,90.05Z"/><g id="b3e0c3da-8478-4983-bcb4-415afc8667e6" data-name="Group 461" class="b233c9b6-14b2-4eb2-8608-cf57e8b08920"><path id="bf38a7c3-8c25-4f92-9f95-b96b17fe313f" data-name="Path 1548" class="e457e17b-eca5-4de2-83ac-f3134fcf78ac" d="M534.68,201.11h3.23a1.79,1.79,0,0,1,1.72,1.85v55.33a1.79,1.79,0,0,1-1.72,1.85h-3.23a1.79,1.79,0,0,1-1.73-1.85V203A1.8,1.8,0,0,1,534.68,201.11Z"/><path id="e55728b2-c3ee-4f30-a34e-040c7b02cd8d" data-name="Path 1549" class="e457e17b-eca5-4de2-83ac-f3134fcf78ac" d="M313.14,154.87h.29a1.8,1.8,0,0,1,1.73,1.85v15.74a1.8,1.8,0,0,1-1.73,1.85h-.29a1.79,1.79,0,0,1-1.72-1.85V156.72A1.79,1.79,0,0,1,313.14,154.87Z"/><path id="eae4bd03-f3e7-4420-8d6d-1e6ae022bae7" data-name="Path 1550" class="e457e17b-eca5-4de2-83ac-f3134fcf78ac" d="M313,190.46h.77a1.79,1.79,0,0,1,1.72,1.85v30.11a1.78,1.78,0,0,1-1.72,1.85H313a1.77,1.77,0,0,1-1.72-1.85V192.3A1.79,1.79,0,0,1,313,190.46Z"/><path id="f4e27b09-92e6-43ec-8c4d-121f2a31ddaa" data-name="Path 1551" class="e457e17b-eca5-4de2-83ac-f3134fcf78ac" d="M313.07,236.11h.56a1.79,1.79,0,0,1,1.73,1.85h0v30.41a1.79,1.79,0,0,1-1.73,1.85h-.56a1.77,1.77,0,0,1-1.72-1.85h0V238a1.79,1.79,0,0,1,1.71-1.86Z"/><path id="f7c1571a-ab26-4ad8-8109-50865f682e5d" data-name="Path 1552" class="e457e17b-eca5-4de2-83ac-f3134fcf78ac" d="M342.87,90.65H507.21c16.2,0,29.34,14.12,29.34,31.51v424c0,17.41-13.14,31.51-29.34,31.51H342.87c-16.2,0-29.34-14.12-29.34-31.51V122.17C313.54,104.77,326.67,90.65,342.87,90.65Z"/><path id="a076c296-f9a4-43e6-b9a2-2e78865af53f" data-name="Path 1553" class="b8c2b8dc-f10f-4536-8ae2-3985f929b95c" d="M406.44,105.19h25.31a3,3,0,0,1,2.91,3.13v.54a3,3,0,0,1-2.91,3.12H406.44a3,3,0,0,1-2.92-3.12v-.54A3,3,0,0,1,406.44,105.19Z"/><ellipse id="f0d801ca-b77a-4cdd-87a1-35a56c0b3af1" data-name="Ellipse 679" class="b8c2b8dc-f10f-4536-8ae2-3985f929b95c" cx="442.97" cy="108.59" rx="3.59" ry="3.86"/></g><ellipse id="be0032b8-c52f-40a5-9fd7-a004570f5c93" data-name="Ellipse 680" class="b94b579f-17c6-4e83-a870-41b8fa329cf7" cx="179.1" cy="588.83" rx="150.46" ry="16.48"/><ellipse id="fb0dce68-c662-40ca-b97a-762a6cd817cd" data-name="Ellipse 681" class="b94b579f-17c6-4e83-a870-41b8fa329cf7" cx="513.66" cy="643.83" rx="70.49" ry="7.72"/><ellipse id="bca38b4a-9517-4392-9fa5-687007460dc2" data-name="Ellipse 682" class="b94b579f-17c6-4e83-a870-41b8fa329cf7" cx="754.5" cy="604.93" rx="70.49" ry="7.72"/><path id="bf160258-55ed-4509-8ec4-daa42264d5a4" data-name="Path 1554" class="b4a4bc10-802c-41e5-adb7-8bbcf7243480" d="M505,103.33H479.53v3.31A15.15,15.15,0,0,1,465,122.31h-81.4A15.15,15.15,0,0,1,369,106.64h0v-3.3H345a18.41,18.41,0,0,0-17.71,19V545.91a18.41,18.41,0,0,0,17.7,19H505a18.41,18.41,0,0,0,17.71-19V122.36A18.41,18.41,0,0,0,505,103.33Z"/><path id="b7511214-503b-42b9-9871-6660d985d7bb" data-name="Path 1555" class="b4a4bc10-802c-41e5-adb7-8bbcf7243480" d="M613.76,69.29s-63.36-4.11-55.89,43.59c0,0-1.5,8.43,5.63,12.25,0,0,.11-3.53,6.49-2.34a26.53,26.53,0,0,0,6.89.36,13.85,13.85,0,0,0,8.42-3.72h0s17.8-7.91,24.73-39.18c0,0,5.12-6.82,4.92-8.58l-10.69,4.91s3.65,8.28.75,15.17c0,0-.35-14.88-2.4-14.54-.42.06-5.56,2.87-5.56,2.87s6.29,14.43,1.51,24.92c0,0,1.8-17.77-3.5-23.88l-7.54,4.71s7.35,14.91,2.37,27.08c0,0,1.28-18.66-3.95-25.92l-6.81,5.71s6.89,14.69,2.69,24.77c0,0-.56-21.71-4.18-23.35a44.34,44.34,0,0,0-6.88,8s4.73,10.67,1.8,16.3c0,0-1.8-14.47-3.27-14.54,0,0-5.94,9.58-6.56,16.15a36.9,36.9,0,0,1,5.11-17.07,17.44,17.44,0,0,0-9.09,5.06s.92-6.77,10.53-7.37c0,0,4.91-7.27,6.23-7.71,0,0-9.6-.87-15.41,1.91,0,0,5.12-6.4,17.17-3.49L584,85.42s-12.62-1.85-18,.2c0,0,6.17-5.66,19.8-1.53l7.33-4.71A62.44,62.44,0,0,0,576,77.77s6.77-3.92,19.33.32l5.27-2.53s-7.9-1.66-10.21-1.93-2.42-.95-2.42-.95a25.74,25.74,0,0,1,14.92,1.83S613.94,70,613.76,69.29Z"/><path id="b004b981-9c9e-4dfe-bbe2-96c2a0f57fc8" data-name="Path 1556" class="b4a4bc10-802c-41e5-adb7-8bbcf7243480" d="M548.77,48.07s-28.58-1.85-25.24,19.7a5.44,5.44,0,0,0,2.53,5.54s.06-1.62,2.94-1.06a12.47,12.47,0,0,0,3.11.16,6.29,6.29,0,0,0,3.81-1.68h0s8-3.57,11.17-17.7c0,0,2.32-3.08,2.25-3.88l-4.82,2.22a10,10,0,0,1,.34,6.85s-.15-6.71-1.08-6.56c-.18,0-2.5,1.3-2.5,1.3s2.83,6.52.69,11.26c0,0,.81-8-1.58-10.79L537,55.56s3.32,6.74,1.08,12.23c0,0,.58-8.43-1.79-11.71l-3.08,2.59s3.12,6.63,1.22,11.19c0,0-.25-9.81-1.89-10.56a19.51,19.51,0,0,0-3.11,3.61s2.13,4.84.81,7.36c0,0-.81-6.54-1.51-6.57a22.74,22.74,0,0,0-3,7.27,16.65,16.65,0,0,1,2.31-7.71A7.82,7.82,0,0,0,524,65.55s.42-3.07,4.77-3.34a20.6,20.6,0,0,1,2.82-3.5,16.61,16.61,0,0,0-7,.87A7.5,7.5,0,0,1,532.34,58l3-2.67a24.06,24.06,0,0,0-8.12.09s2.79-2.56,8.95-.7l3.31-2.12a28.12,28.12,0,0,0-7.76-.72,11.12,11.12,0,0,1,8.73.15l2.37-1.15s-3.56-.75-4.61-.87-1.1-.43-1.1-.43a11.55,11.55,0,0,1,6.69.81A29.31,29.31,0,0,0,548.77,48.07Z"/><ellipse id="b09d6c12-7243-46db-a0ef-f948023dae82" data-name="Ellipse 683" class="b4a4bc10-802c-41e5-adb7-8bbcf7243480" cx="30.25" cy="548.56" rx="30.25" ry="5.5"/><path id="a469552f-de76-4abc-bddc-8fa3e1b5e7dd" data-name="Path 1557" class="b4a4bc10-802c-41e5-adb7-8bbcf7243480" d="M42.76,539.56a9.49,9.49,0,0,0,2.89-4.67,4.3,4.3,0,0,0-2-4.76c-1.85-.77-3.83.61-5.33,2s-3.21,3-5.18,2.69a8.85,8.85,0,0,0,2.42-7.93,3.25,3.25,0,0,0-.67-1.61c-1-1.19-2.89-.68-4.13.27-3.91,3-5,8.66-5,13.8a27.35,27.35,0,0,1-.07-5.65,6.05,6.05,0,0,0-2-5,5.65,5.65,0,0,0-3-.76,6,6,0,0,0-4.92,1.5,5.5,5.5,0,0,0,.2,6.46A20,20,0,0,0,21,540.26,11.55,11.55,0,0,1,24.66,544a4.27,4.27,0,0,1,.27.67H36A31.06,31.06,0,0,0,42.76,539.56Z"/><path id="b4f7f9a4-aeeb-4b19-9ad8-e348b106f160" data-name="Path 1558" class="b4a4bc10-802c-41e5-adb7-8bbcf7243480" d="M624.93,471.72s6.51,9.16-3,23-17.36,25.46-14.19,34.07c0,0,14.36-25.64,26-26S637.78,487.14,624.93,471.72Z"/><path id="f80abfba-c7d2-4683-9afb-e5e650d056fd" data-name="Path 1559" class="af9c6aed-a78a-42ee-9738-26bb0d99e1b0" d="M624.93,471.72a11.7,11.7,0,0,1,1.33,2.87c11.4,14.39,17.47,27.83,6.51,28.16-10.21.31-22.45,19.92-25.38,24.87a11.28,11.28,0,0,0,.34,1.13s14.36-25.64,26-26S637.78,487.14,624.93,471.72Z"/><path id="a39fe9ea-5d0e-411d-b134-dae608431ffc" data-name="Path 1560" class="b6431585-9880-4960-8cdc-e68988f0e5dd" d="M637,483.41c0,3.23-.34,5.83-.76,5.83s-.75-2.61-.75-5.83.42-1.7.84-1.7S637,480.17,637,483.41Z"/><path id="f7f7789e-5131-4d1f-8080-2d760359f39e" data-name="Path 1561" class="b6431585-9880-4960-8cdc-e68988f0e5dd" d="M641.18,487.23c-2.63,1.53-4.92,2.47-5.12,2.07s1.78-1.95,4.41-3.5,1.59-.41,1.8,0S643.81,485.68,641.18,487.23Z"/><path id="ff0b5e2e-1dd7-4fad-9609-10678506eb22" data-name="Path 1562" class="b4a4bc10-802c-41e5-adb7-8bbcf7243480" d="M590.54,471.72s-6.51,9.16,3,23,17.36,25.46,14.19,34.07c0,0-14.35-25.64-26-26S577.7,487.14,590.54,471.72Z"/><path id="f95088d8-e01e-45b7-b14e-ba8a6d9bdce6" data-name="Path 1563" class="af9c6aed-a78a-42ee-9738-26bb0d99e1b0" d="M590.54,471.72a11.38,11.38,0,0,0-1.34,2.87c-11.4,14.39-17.47,27.83-6.52,28.16,10.21.31,22.45,19.92,25.39,24.87a11.34,11.34,0,0,1-.35,1.13s-14.35-25.64-26-26S577.69,487.14,590.54,471.72Z"/><path id="a63cfadd-c15a-4f41-bd7c-b29782ffdae6" data-name="Path 1564" class="b6431585-9880-4960-8cdc-e68988f0e5dd" d="M578.44,483.41c0,3.23.34,5.83.75,5.83s.76-2.61.76-5.83-.42-1.7-.84-1.7S578.44,480.17,578.44,483.41Z"/><path id="b5e4e184-dc2d-4a20-a029-daf737f72fbc" data-name="Path 1565" class="b6431585-9880-4960-8cdc-e68988f0e5dd" d="M574.26,487.23c2.62,1.53,4.92,2.47,5.12,2.07s-1.77-1.95-4.41-3.5-1.59-.41-1.79,0S571.66,485.68,574.26,487.23Z"/><path id="bfdd2d51-5810-4c61-a8d1-c7f6fbed45d9" data-name="Path 1566" class="ad81e2c6-dd81-4965-b6f9-d2b1d3a79cb5" d="M580.51,527.55s18.2-.6,23.69-4.8,28-9.2,29.35-2.47,27.35,33.47,6.77,33.66-47.75-3.45-53.22-7S580.51,527.55,580.51,527.55Z"/><path id="b7a51968-9eb7-42d9-8792-a9bc73c73cb7" data-name="Path 1567" class="febe9fd6-540f-4c5a-814e-b153a1a145b3" d="M640.73,551.59c-20.55.18-47.75-3.45-53.22-7-4.18-2.72-5.83-12.51-6.39-17h-.6s1.14,15.77,6.62,19.35,32.68,7.2,53.22,7c5.92-.06,8-2.32,7.87-5.66C647.4,550.27,645.14,551.55,640.73,551.59Z"/><rect id="af926c87-e389-4eb1-80e0-78d19fa3abc2" data-name="Rectangle 4111" class="b7130c1d-75bc-4645-a47f-5f66b2f5ef8e" x="439.81" y="394.4" width="58.71" height="63.08"/><rect id="e31b739b-9176-421f-bafe-dee69a811b7c" data-name="Rectangle 4112" class="b7130c1d-75bc-4645-a47f-5f66b2f5ef8e" x="353.28" y="311.13" width="58.71" height="63.08"/><rect id="e7e3b10c-85de-4579-91d2-ae43850bb547" data-name="Rectangle 4113" class="b7130c1d-75bc-4645-a47f-5f66b2f5ef8e" x="358.92" y="476.24" width="58.71" height="63.08"/><rect id="aae1ae50-81f8-4971-b271-6e513a810253" data-name="Rectangle 4114" class="f00e09f9-b173-4c6e-b051-eb7e45745357" x="345.82" y="156.25" width="58.71" height="63.08"/><path id="b48f22c6-b5ec-4b04-a8a2-ab251c74b40a" data-name="Path 1568" class="f00e09f9-b173-4c6e-b051-eb7e45745357" d="M443.21,414l43.53-42.32,39.39,46.76L482.6,460.74Z"/><rect id="b93f071e-094b-4f89-b2af-c80932d5381d" data-name="Rectangle 4115" class="f00e09f9-b173-4c6e-b051-eb7e45745357" x="438.84" y="232.26" width="58.71" height="63.08"/><rect id="f18f1fab-435b-4fe8-a983-7882f3d3d86d" data-name="Rectangle 4116" class="f00e09f9-b173-4c6e-b051-eb7e45745357" x="364.62" y="302.59" width="58.71" height="63.08"/><path id="fac573b1-b043-4726-b8ee-b136a1f03976" data-name="Path 1569" class="b4a4bc10-802c-41e5-adb7-8bbcf7243480" d="M731.22,592.23a21.34,21.34,0,0,0,10.23-.37c.5-.17,1.08-.54,1-1.1a1.45,1.45,0,0,0-.23-.54,34.78,34.78,0,0,1-3.12-6.33.52.52,0,0,0-.19-.27.47.47,0,0,0-.33,0c-1.5.42-2.81,1.47-4.31,1.92a5.62,5.62,0,0,1-2.34.19c-.68-.08-1.62-.68-2.22-.61C730.1,587.51,731,589.78,731.22,592.23Z"/><path id="a41a9981-858c-44a7-a914-0b0ba36929a5" data-name="Path 1570" class="b4a4bc10-802c-41e5-adb7-8bbcf7243480" d="M795.87,586.08a18.13,18.13,0,0,0,5.93-6,.82.82,0,0,0,0-1,20.26,20.26,0,0,0-4.81-5.58,15.05,15.05,0,0,0-2.69,2.66c-.57.64-2.13,1.7-2.16,2.65,0,.57.6,1.2.87,1.62.38.6.76,1.21,1.08,1.83A30.9,30.9,0,0,1,795.87,586.08Z"/><path id="e8fba5f6-bc66-41cc-a7db-ba9c5f5c8a95" data-name="Path 1571" class="a2424980-c96c-4694-bf2a-8f4ab96e34dd" d="M744.61,599.65a2.53,2.53,0,0,1-.4,1.61,1.94,1.94,0,0,1-.87.54c-4.78,1.84-10.29-.46-15.05,1.35-1,.37-1.91.9-2.89,1.26a14.71,14.71,0,0,1-3.59.69c-1.69.17-3.39.27-5.08.32a11.42,11.42,0,0,1-3.82-.35,4.72,4.72,0,0,1-2.94-2.5,2.55,2.55,0,0,1-.14-1.78,1.76,1.76,0,0,1,.31-.57,4.54,4.54,0,0,1,1.12-1L713,598a12,12,0,0,1,2.67-1.52c.69-.24,1.43-.35,2.14-.57a15,15,0,0,0,6.11-4.9l2.39-2.75a2.47,2.47,0,0,1,.83-.71,2.09,2.09,0,0,1,1-.11,13.09,13.09,0,0,1,6.52,2.36,10.5,10.5,0,0,0,1.62,1,5.4,5.4,0,0,0,4.51-.61c.62-.35.48-.56.76-1.18s.88-1,1.42-.46a1.69,1.69,0,0,1,.34.7,21.08,21.08,0,0,1,.33,5.72,2.59,2.59,0,0,0,.1.88,4.63,4.63,0,0,0,.47.81,1.89,1.89,0,0,1,.09.21A5.93,5.93,0,0,1,744.61,599.65Z"/><path id="b7c8c8ce-c8e2-42b6-805a-aee724fb1ba4" data-name="Path 1572" class="a98d733a-09aa-4507-818a-a9048c94f541" d="M744.61,599.65a2.53,2.53,0,0,1-.4,1.61,1.94,1.94,0,0,1-.87.54c-4.78,1.84-10.29-.46-15.05,1.35-1,.37-1.91.9-2.89,1.26a14.71,14.71,0,0,1-3.59.69c-1.69.17-3.39.27-5.08.32a11.42,11.42,0,0,1-3.82-.35,4.72,4.72,0,0,1-2.94-2.5,2.55,2.55,0,0,1-.14-1.78,1.76,1.76,0,0,1,.31-.57c.28.63.49,1.45.66,1.75a3.36,3.36,0,0,0,2.25,1.74,5.29,5.29,0,0,0,2.05-.29c4.33-1.15,8.93-1.17,13.08-2.91a29.23,29.23,0,0,1,4.3-1.77,31.24,31.24,0,0,1,4.63-.41c2.44-.21,4.81-1,7.22-1.41A5.88,5.88,0,0,1,744.61,599.65Z"/><path id="e3a6c855-d802-4e77-a556-99e584c3bf64" data-name="Path 1573" class="a2424980-c96c-4694-bf2a-8f4ab96e34dd" d="M806.8,585.76a9.6,9.6,0,0,1-2.64,5,31.82,31.82,0,0,0-3.69,4.34,36,36,0,0,1-3.41,6.28,9.35,9.35,0,0,1-2,1.61,14,14,0,0,1-2.66,1.31,19.07,19.07,0,0,1-7.52.45,6.26,6.26,0,0,1-2.38-.5,7.29,7.29,0,0,1-1-.66A4.81,4.81,0,0,1,780,602a1.74,1.74,0,0,1-.14-1.21,2.74,2.74,0,0,1,.75-1.18,18.7,18.7,0,0,1,1.81-1.75,11.11,11.11,0,0,0,2.36-2.23,7.29,7.29,0,0,0,.91-2.24,21,21,0,0,0,.67-4.24,13.6,13.6,0,0,1,.27-2.84c.38-1.45,1.39-2.77,1.27-4.28a1.11,1.11,0,0,1,0-.65.93.93,0,0,1,.47-.31,7.86,7.86,0,0,1,2.47-.61,2.72,2.72,0,0,1,2.26,1c.35.45.58,1.08,1.1,1.29a1.89,1.89,0,0,0,.75,0,6.09,6.09,0,0,0,3.58-1.2A5,5,0,0,0,800,578c0-.5-.21-1,.5-1.13.54-.08,1,.54,1.26.94a13.45,13.45,0,0,1,2.42,4.73,1.23,1.23,0,0,1,.46-.1,2,2,0,0,1,1.65.91A3.71,3.71,0,0,1,806.8,585.76Z"/><path id="a0518c46-b2ea-4899-9ffc-7fdaab5ee80c" data-name="Path 1574" class="a98d733a-09aa-4507-818a-a9048c94f541" d="M806.81,585.76a9.46,9.46,0,0,1-2.64,5,31.75,31.75,0,0,0-3.68,4.34,36.67,36.67,0,0,1-3.41,6.28A9.65,9.65,0,0,1,795,603a14,14,0,0,1-2.66,1.31,19.07,19.07,0,0,1-7.52.45,6.26,6.26,0,0,1-2.38-.5,7.29,7.29,0,0,1-1-.66A4.91,4.91,0,0,1,780,602a3.5,3.5,0,0,1,1.55-.4c1.12.07,1.93,1.2,3,1.55,1.5.49,3-.67,4.58-1.06a28.37,28.37,0,0,0,3.06-.54,7.53,7.53,0,0,0,2.26-1.47,12,12,0,0,0,2.42-2.5,16.61,16.61,0,0,0,1.43-3,44.44,44.44,0,0,1,2.86-5.89,3.91,3.91,0,0,1,.59-.81c.24-.23.54-.4.75-.61a6.59,6.59,0,0,0,1.82-3.57,7.28,7.28,0,0,1,.41-1.19,1.92,1.92,0,0,1,1.64.91A3.66,3.66,0,0,1,806.81,585.76Z"/><path id="b1e64a7d-fce3-42f3-9f80-a026906d5820" data-name="Path 1575" class="b1cf965a-a1a8-4188-89e6-7213da8189fb" d="M698.71,413.08a11.61,11.61,0,0,1,3.07,3.85,83.12,83.12,0,0,1,4.64,15c1.35-1.47,6.73-1.72,8.08-3.18.57-.62,3.66-3.69,4.12-4.4s3.91-2.24,4.28-3c1.41-2.71-10-12.93-8.52-15.65a.79.79,0,0,0,.12-.42.69.69,0,0,0-.19-.33,17.84,17.84,0,0,0-3.3-2.42,5.63,5.63,0,0,1-2.51-3.23,10.67,10.67,0,0,0-2.91,2.12q-3.12,2.86-6.16,5.88c-.8.81-2.31,1.84-2.69,3S698,412.41,698.71,413.08Z"/><path id="be991e68-1c5f-4164-b5ba-5501fa102c7e" data-name="Path 1576" class="a2424980-c96c-4694-bf2a-8f4ab96e34dd" d="M717.14,408.72a33.77,33.77,0,0,0-4.88,4.29,10.58,10.58,0,0,0-3.1,5.34c-.15.81-.13,1.67-.25,2.5-.5,3.62-3.43,6.28-4.71,9.7a17.22,17.22,0,0,0-.83,3.23,41,41,0,0,0-.59,6.35c0,2.07,1.85,3.5,2.54,5.42a34.92,34.92,0,0,1,1.23,5.88,75.38,75.38,0,0,0,3.08,10.92c2.54,7.54,10.77,28.4,13.32,35.95,7.79-2.11,28.53-6.93,35.42-11.31,2.3-1.47-16-18.1-13.49-19.24a1.29,1.29,0,0,0,.68-.56,1.4,1.4,0,0,0,0-.81c-2.45-11.55-10.15-21-13.63-32.33a100.45,100.45,0,0,0-5-11c-1.5-3.36-2.29-7.07-4.08-10.27a6.54,6.54,0,0,0-1.3-1.75,8.43,8.43,0,0,0-1.44-.93C719.08,409.57,718.13,409.26,717.14,408.72Z"/><ellipse id="f92fb90f-f5f0-4ff3-9327-fce00b3a5f35" data-name="Ellipse 684" class="b1cf965a-a1a8-4188-89e6-7213da8189fb" cx="699.12" cy="398.66" rx="12.19" ry="13.1"/><path id="bf2fa999-958a-4bff-b4d6-d079a41c0e92" data-name="Path 1577" class="a98d733a-09aa-4507-818a-a9048c94f541" d="M711.52,404.81a3.88,3.88,0,0,1,4.58-.7,2.44,2.44,0,0,1,1.36,2.36l6,.1a12,12,0,0,1,2.87.28,4.12,4.12,0,0,1,2.39,1.62c.08.1.16.22.27.25a.44.44,0,0,0,.27-.11,5.08,5.08,0,0,1,3-.58,15.74,15.74,0,0,1,8.85,4.18,3,3,0,0,1,1.05,1.38c.21.74,0,1.68.5,2.19a83.32,83.32,0,0,0,3.25,17.72,7.8,7.8,0,0,0,1.83,2.83,11.45,11.45,0,0,1,2,3.13c1.09,3.08-.43,6.7.65,9.79a16,16,0,0,0,2.07,3.52,9.42,9.42,0,0,1,1.77,4.55c0,.74,0,1.48,0,2.24a14.7,14.7,0,0,0,.5,2.94c.44,1.78.9,3.57,1.39,5.35a12.2,12.2,0,0,0,4.2,7.54c-5.8,1.06-11.91,2.08-17.44-.07a9,9,0,0,1-2.18-1.17,13.75,13.75,0,0,1-3.81-6.62,33,33,0,0,1-2.14-8.53,10.13,10.13,0,0,0-.36-2.79,7.47,7.47,0,0,0-3.42-3.47,16.81,16.81,0,0,1-4.12-3.44,7.22,7.22,0,0,1-1.67-5.18c.11-.91.44-1.79.48-2.72a2.22,2.22,0,0,0-1.18-2.24c-4.22-1.37-6.23-6.73-7.17-11.37a38.52,38.52,0,0,1-.54-7.27l0-4.68a6.41,6.41,0,0,1-1.89-4.48,5.24,5.24,0,0,0,0-1.48,4.11,4.11,0,0,0-1-1.62A13.55,13.55,0,0,1,711.52,404.81Z"/><path id="e899f2e9-b10e-4184-9d3e-e7e0822b44d6" data-name="Path 1578" class="a98d733a-09aa-4507-818a-a9048c94f541" d="M698.55,419.79a35.88,35.88,0,0,1-.14,4.4c-.12.54-.32,1.08-.47,1.62a10.16,10.16,0,0,0,.56,6.16,34.55,34.55,0,0,0,2.93,5.46,8.7,8.7,0,0,1,.94,1.88,11.33,11.33,0,0,1,.36,2.16,68.89,68.89,0,0,0,1.43,8.68,17.79,17.79,0,0,0,2.85,7,1.51,1.51,0,0,0,2,.72l.17-.09,3.12-1.27a1.56,1.56,0,0,0,1.19-1.73,20.62,20.62,0,0,0-1.37-7.93,213,213,0,0,1-7.53-23.13,17.34,17.34,0,0,0-2.21-7.39c-.62-.73-.41-.42-1.16,0a9.83,9.83,0,0,0-1.09.62A3.9,3.9,0,0,0,698.55,419.79Z"/><path id="f51393c0-5727-4736-8ac3-25aa9aafeeec" data-name="Path 1580" class="b4a4bc10-802c-41e5-adb7-8bbcf7243480" d="M707.92,434.43q1.25,7.05,2.54,14.12l12.1-3.41a9.75,9.75,0,0,0-1-3.89c-1.11-3-1.14-6.28-2-9.33-.68-2.33-1.85-4.47-2.48-6.82-.37-1.35-.54-2.78-.91-4.15a32.06,32.06,0,0,0-1.43-3.95,25.47,25.47,0,0,0-2.64-5.27,7.72,7.72,0,0,0-4.07,2.84,6.37,6.37,0,0,0-.76,2.8c-.21,2.93.76,5.86.45,8.75A27.9,27.9,0,0,0,707.92,434.43Z"/><path id="b330d21f-d27c-4bef-baae-e686a2fa159c" data-name="Path 1581" class="a98d733a-09aa-4507-818a-a9048c94f541" d="M722.76,497.15a16.64,16.64,0,0,1-1.1,8.43,69.17,69.17,0,0,0-2.47,12.68,11.12,11.12,0,0,1-.61,3.23,29.64,29.64,0,0,1-1.47,2.58,14,14,0,0,0-.93,7.79c.18,1.75.44,3.48.76,5.21a14.11,14.11,0,0,1,.31,6.33c1-.22,1.62,1.1,1.58,2.16a6.46,6.46,0,0,0,.08,3.12c1.18.46,1.2,2.21,1.16,3.56a32.87,32.87,0,0,0,.81,7q2.7,13.89,5.72,27.72c4.36,1.45,9.44,3,13.6.95a2.8,2.8,0,0,0,1.72-1.86,3.65,3.65,0,0,0-.16-1.43l-2-7.69a15.1,15.1,0,0,1-.7-5.66,7.4,7.4,0,0,0,.12-4.22,11.94,11.94,0,0,0-.83-1.18,9.89,9.89,0,0,1-.41-5.77,4.43,4.43,0,0,0-.09-1.31,6.76,6.76,0,0,0-.58-1.45,23.45,23.45,0,0,1-2.25-11,2.84,2.84,0,0,0-.19-1.44,3.64,3.64,0,0,1-.33-.58,1.65,1.65,0,0,1,.11-1,8.71,8.71,0,0,1-1.59-1.62,2.53,2.53,0,0,0,.55-3.53c-.06-.07-.11-.14-.17-.2a1.3,1.3,0,0,0,.89-1.59,1.36,1.36,0,0,0-.33-.57c-.27-.19-.59-.27-.76-.54s-.05-1,.18-1.41l1.2-2.34c.89-1.73,1.1-3.87,2.06-5.56a43.52,43.52,0,0,0,3.18-7.78l3.43-10.27L745.6,510a7.55,7.55,0,0,1,1.92,2.35,10.38,10.38,0,0,1,.61,2.81c.86,5.58,4.13,10.41,5.34,15.92a11.42,11.42,0,0,0,1.1,3.56,7.08,7.08,0,0,1,.63,1,5.45,5.45,0,0,1,.27,1.7,8,8,0,0,0,3.09,5.65c1.15.81,2.6,1.43,3.2,2.77a5.72,5.72,0,0,0,.54,1.18c.56.72,1.76.81,2,1.71.13.51-.12,1.1.15,1.55a1.26,1.26,0,0,0,.57.45l3.36,1.81c3.77,2,5.66,6.63,8.43,10a20.93,20.93,0,0,1,2.53,3.59c1.19,2.3,1.75,5.18,3.77,6.66a3.5,3.5,0,0,1,1.91,4.45c.06,1.14.87,2.48,1.87,2.13a8.22,8.22,0,0,0,0,4.18,18.87,18.87,0,0,0,11.89-5.17,5.12,5.12,0,0,0,1.93-3.48,1.54,1.54,0,0,0-.14-.7,1.78,1.78,0,0,0-.75-.61c-3.14-1.83-4.09-6.07-5.66-9.51a79.48,79.48,0,0,0-5.17-8.47c-3.77-6.07-6.28-13.4-11.93-17.41a8.26,8.26,0,0,1-3.3-3.12,23.23,23.23,0,0,1-.66-2.58,2.09,2.09,0,0,0-1.77-1.62,12.5,12.5,0,0,0,.41-4,5.61,5.61,0,0,0-.19-1.73,8.52,8.52,0,0,0-.83-1.72,17.54,17.54,0,0,1-2.13-8.88,15.65,15.65,0,0,0-.14-4.78c-.23-.81-.62-1.48-.9-2.23a15.12,15.12,0,0,1-.65-4.17l-.31-5.32a26.54,26.54,0,0,0-.64-5.26c-1-4.14-2-21.44-5.59-23.39s-9.59,11.37-13.54,11.63a17,17,0,0,0-5.18,1.08,25.18,25.18,0,0,0-7,5l-7.31,6.6A26.61,26.61,0,0,1,722.76,497.15Z"/><path id="b1db9c77-fc85-454f-b036-98266aa672df" data-name="Path 1582" class="a98d733a-09aa-4507-818a-a9048c94f541" d="M687.67,384.12a9,9,0,0,1,7.1-3.72,15.76,15.76,0,0,1,7.84,2.12,10,10,0,0,0,2.26,1c1.29.27,2.72-.1,3.89.57a5.22,5.22,0,0,1,1.71,5,9.71,9.71,0,0,0,.46,5.54,15.13,15.13,0,0,1,.9,1.44,5.14,5.14,0,0,1-.09,3.08c-.53-.65-1-1.33-1.5-2s-1.47-1.08-2.13-.6-.66,1.34-.69,2.15-.23,1.73-.92,2A1.47,1.47,0,0,1,705,400c-1.18-1.55-.7-4-1.88-5.59-.67-.89-1.78-1.32-2.39-2.25-.49-.73-.61-1.67-1-2.42s-1.4-1.37-2.07-.81a2.91,2.91,0,0,0-.53.81,3.06,3.06,0,0,1-3.78,1.21,6,6,0,0,0-1.63-.75,2,2,0,0,0-1.85,1.08,4.41,4.41,0,0,0-.49,2.31,5.69,5.69,0,0,1-.41,3.18,3,3,0,0,1-.87.8,2,2,0,0,1-3.5-1.84,20.59,20.59,0,0,1,.61-2.27c.45-1.71-.14-3.64.36-5.26A17,17,0,0,1,687.67,384.12Z"/><path id="e7f03ff4-26f9-42d2-80dd-6158eb2480bf" data-name="Path 1583" class="b4a4bc10-802c-41e5-adb7-8bbcf7243480" d="M694.21,423.19a2.17,2.17,0,0,0,.11,1.21,1.93,1.93,0,0,0,.61.63,12.07,12.07,0,0,0,5.75,2,1.66,1.66,0,0,1,.75.21,1.63,1.63,0,0,1,.34,1.73,4.73,4.73,0,0,0-.36,1.82c.15,1.16,1.42,1.69,2.5,1.83a5.46,5.46,0,0,0,4.36-.91,7.24,7.24,0,0,0,1.8-2.9c3-7.27,4-15.35,7-22.64a4.91,4.91,0,0,0,.45-1.5,1.53,1.53,0,0,0-.56-1.4c-.56-.38-1.42-.17-1.79-.74-.19-.3-.17-.7-.34-1-.34-.66-1.25-.58-1.88-.94s-.81-.81-1.35-1a1.7,1.7,0,0,0-1.42.65,19.94,19.94,0,0,0-3.65,6.63,79.62,79.62,0,0,1-5.27,10.43,6.19,6.19,0,0,0-1.64-3.45c-.92-.2-2.1,1.54-2.6,2.19A14.44,14.44,0,0,0,694.21,423.19Z"/><rect id="e41c832a-f5ee-41f6-ac47-4de5163f0ea9" data-name="Rectangle 4117" class="f00e09f9-b173-4c6e-b051-eb7e45745357" x="700.36" y="433.54" width="58.71" height="63.08"/><path id="e3c7cd1f-8f60-4db8-b110-744a5855e690" data-name="Path 1584" class="b1cf965a-a1a8-4188-89e6-7213da8189fb" d="M758.6,468.28a25.9,25.9,0,0,0-2.78,3.14,6.47,6.47,0,0,0-1.28,4,2.16,2.16,0,0,0,.36,1.18.9.9,0,0,0,1,.35,1.59,1.59,0,0,0,.51-.49,25.74,25.74,0,0,1,1.73-2c.23-.23.51-.48.81-.39a.9.9,0,0,1,.36.25,2.76,2.76,0,0,1,.75,1.22,3,3,0,0,1-.81,2.35,6.22,6.22,0,0,0-1.35,2.14,1,1,0,0,0,0,.69,1.18,1.18,0,0,0,.4.37,5.47,5.47,0,0,0,4.87.34c1-.45,1.95-1.22,3-1.62a6.4,6.4,0,0,0,1.33-.54,2.94,2.94,0,0,0,1.18-1.88,8.34,8.34,0,0,0,.08-2.34,28.3,28.3,0,0,0-1.81-8.81,1,1,0,0,0-.29-.47.89.89,0,0,0-.5-.15,11.38,11.38,0,0,0-4.75-.35,3.22,3.22,0,0,0-1.12,1.08C760.06,466.65,758.6,467.91,758.6,468.28Z"/><path id="f0ab7ee7-7d3c-4f32-9021-6fb3a0e814b4" data-name="Path 1585" class="a98d733a-09aa-4507-818a-a9048c94f541" d="M758.15,467c0-1.35-1.56-4.61.91-4.85,0-1.43-1.9-2.34-1.56-3.86.12-.52.5-.93.56-1.45.16-1.48-2.32-2.28-1.92-3.7.15-.54.71-.87.81-1.42.27-1.28-1.85-1.86-1.88-3.17,0-.44.22-.86.21-1.3s-.46-1-.71-1.45c-.63-1.24-.32-3.15-1.5-3.77.75.06,1-1.17.71-1.93s-1-1.42-1-2.26a3.62,3.62,0,0,0,0-.93c-.21-.81-1.44-.87-1.65-1.67a7.06,7.06,0,0,1,0-.92,1.63,1.63,0,0,0-1.24-1.2,4.92,4.92,0,0,1-1.66-.63c-.36-.3-.75-.81-1.16-.54-.15.09-.22.27-.33.4-.46.58-1.35.32-1.93-.1a8.8,8.8,0,0,1-3-5.71c-.37-2.2-.35-4.47-.81-6.65a13.6,13.6,0,0,0-.54-2,11.33,11.33,0,0,1-.87-2c-.09-1.27,2.36-.41,3.3-.27a14.18,14.18,0,0,1,2.67.53,27.37,27.37,0,0,1,2.74,1.29c3.77,1.77,8.21,2,11.21,5,1,1,1.81,2.25,3.08,2.69a17,17,0,0,1,1.73.48c1.42.72,1.64,2.75,2.42,4.21a8.24,8.24,0,0,1,.64,1.21,4.82,4.82,0,0,1,.2,1.55l.11,3.84a151.25,151.25,0,0,1-.29,19.28,17.16,17.16,0,0,0,.07,6.31c.15.54.37,1.07.5,1.61a12.2,12.2,0,0,1,.19,2l.08,2.48a.76.76,0,0,1-.11.57.74.74,0,0,1-.62.17c-3.23-.31-6.48-2.27-9.53-1.08"/><path id="add34689-117d-47ac-a4bc-e3f84427051e" data-name="Path 1586" class="b1cf965a-a1a8-4188-89e6-7213da8189fb" d="M698.15,456.9a1,1,0,0,0-.36.33,2.93,2.93,0,0,0,0,3.28,1,1,0,0,1,.18.32,1,1,0,0,1-.09.54,1.94,1.94,0,0,0,.23,2c.24.21.54.31.7.59.27.46-.1,1.08,0,1.61.07.72.86,1.08,1.5,1.17a1.54,1.54,0,0,0,1.47-.42,1.41,1.41,0,0,0,0-1.43,3.74,3.74,0,0,0-1-1.07,1.57,1.57,0,0,0,1.42-1.48,2.36,2.36,0,0,0-.86-2,.93.93,0,0,1-.34-.44,1,1,0,0,1,.31-.65c.75-.8,1.33-2.78-.08-3.23a3.35,3.35,0,0,0-1.51.07c-.36.12-.36.36-.63.52S698.47,456.73,698.15,456.9Z"/><path id="aaf47889-ecd8-4929-9c83-c8add18282c2" data-name="Path 1587" class="af9c6aed-a78a-42ee-9738-26bb0d99e1b0" d="M712.94,401.06a2.42,2.42,0,0,0-1.91,1,6.18,6.18,0,0,0-.81,2.75,25.16,25.16,0,0,1-3,8.78"/><path id="a9997ac5-ea6c-4ea3-881a-51c0a0ed4a93" data-name="Path 1588" class="af9c6aed-a78a-42ee-9738-26bb0d99e1b0" d="M715.57,403.28a2.91,2.91,0,0,0-2.5,1.62,9.5,9.5,0,0,0-.63,2.74,15.56,15.56,0,0,1-2.5,5.75"/><path id="e4cab15c-69e2-4a74-ab53-193a1610b330" data-name="Path 1589" class="f4c6446c-7be2-4404-bc8c-1b374a51e987" d="M230.16,454.78c.43,5.12-3.16,10.06-2.11,15.06.23,1.07.66,2.07.81,3.15a12.7,12.7,0,0,1-2.8,8.26l-13.49,21.29a13.87,13.87,0,0,1-1.94,2.57c-2.59,2.42-6.46,2.2-9.85,2.94a16.46,16.46,0,0,0-6.59,3.13.48.48,0,0,0-.09.64A5.54,5.54,0,0,0,199,514.3c.35.5,0,1.24-.49,1.61-.75.54-1.72.68-1.87,2a2.25,2.25,0,0,0,.26,1.32,3.74,3.74,0,0,0,2.36,1.76c4.67,1.54,9.72-1.15,13.22-4.84s6-8.3,9.45-12c1.9-2.06,4.06-3.84,6-5.84a73.85,73.85,0,0,0,9.87-13.74,15.58,15.58,0,0,0,2.14-4.67c.36-1.67.2-3.42.62-5.07a18.52,18.52,0,0,1,3.23-5.66,19.72,19.72,0,0,0,3.68-12.24,11.7,11.7,0,0,0-6.67-10.17,5.56,5.56,0,0,0-3.77-.25,9.3,9.3,0,0,0-3.8,3.23l-2.56,3.19a7.08,7.08,0,0,0-1.5,2.42,2.69,2.69,0,0,0,.53,2.69"/><path id="f620d16f-e962-4dc4-9b14-2c512c619f02" data-name="Path 1590" class="ae08928b-26de-4d36-aff5-06bb34ad0259" d="M230.16,454.78c.43,5.12-3.16,10.06-2.11,15.06.23,1.07.66,2.07.81,3.15a12.7,12.7,0,0,1-2.8,8.26l-13.49,21.29a13.87,13.87,0,0,1-1.94,2.57c-2.59,2.42-6.46,2.2-9.85,2.94a16.46,16.46,0,0,0-6.59,3.13.48.48,0,0,0-.09.64A5.54,5.54,0,0,0,199,514.3c.35.5,0,1.24-.49,1.61-.75.54-1.72.68-1.87,2a2.25,2.25,0,0,0,.26,1.32,3.74,3.74,0,0,0,2.36,1.76c4.67,1.54,9.72-1.15,13.22-4.84s6-8.3,9.45-12c1.9-2.06,4.06-3.84,6-5.84a73.85,73.85,0,0,0,9.87-13.74,15.58,15.58,0,0,0,2.14-4.67c.36-1.67.2-3.42.62-5.07a18.52,18.52,0,0,1,3.23-5.66,19.72,19.72,0,0,0,3.68-12.24,11.7,11.7,0,0,0-6.67-10.17,5.56,5.56,0,0,0-3.77-.25,9.3,9.3,0,0,0-3.8,3.23l-2.56,3.19a7.08,7.08,0,0,0-1.5,2.42,2.69,2.69,0,0,0,.53,2.69"/><path id="bef3e628-d1fa-488e-a279-31a426c1eba0" data-name="Path 1591" class="b1cf965a-a1a8-4188-89e6-7213da8189fb" d="M127.33,476.49c.75,2.56,1.5,5.12,2.42,7.6A65.88,65.88,0,0,0,136,496.35a87.7,87.7,0,0,0,5.16,7.27,24.67,24.67,0,0,1,5.69,9.58,52,52,0,0,1,.51,6.6,8.33,8.33,0,0,0,2.52,5.85,8.87,8.87,0,0,0,4.16,1.47c1,.18,2.34.24,2.88-.73a2.82,2.82,0,0,0,.28-1.28l.27-3.23c.06-.69.27-1.61.93-1.61s1,.9,1.5,1.31a1.58,1.58,0,0,0,2.15-.59.75.75,0,0,0,.07-.12l0-.1a4.29,4.29,0,0,0,.06-2.83,13.28,13.28,0,0,0-6.42-8.54,19.53,19.53,0,0,1-3.12-1.76,11.17,11.17,0,0,1-2.46-3.33,214.07,214.07,0,0,1-15.43-31.13,24.12,24.12,0,0,1-1.58-6.14,41,41,0,0,1,.24-6.46,39.7,39.7,0,0,0-1-11.55,9.62,9.62,0,0,0-1-2.8,5.57,5.57,0,0,0-7.76-1.4,1.88,1.88,0,0,0-.23.16,9,9,0,0,0-3.18,6.24,18.86,18.86,0,0,0,1.59,6.47Q124.6,467.09,127.33,476.49Z"/><path id="b5091723-089d-4f61-aa35-e5a23cf00d64" data-name="Path 1592" class="ae08928b-26de-4d36-aff5-06bb34ad0259" d="M127.33,476.49c.75,2.56,1.5,5.12,2.42,7.6A65.88,65.88,0,0,0,136,496.35a87.7,87.7,0,0,0,5.16,7.27,24.67,24.67,0,0,1,5.69,9.58,52,52,0,0,1,.51,6.6,8.33,8.33,0,0,0,2.52,5.85,8.87,8.87,0,0,0,4.16,1.47c1,.18,2.34.24,2.88-.73a2.82,2.82,0,0,0,.28-1.28l.27-3.23c.06-.69.27-1.61.93-1.61s1,.9,1.5,1.31a1.58,1.58,0,0,0,2.15-.59.75.75,0,0,0,.07-.12l0-.1a4.29,4.29,0,0,0,.06-2.83,13.28,13.28,0,0,0-6.42-8.54,19.53,19.53,0,0,1-3.12-1.76,11.17,11.17,0,0,1-2.46-3.33,214.07,214.07,0,0,1-15.43-31.13,24.12,24.12,0,0,1-1.58-6.14,41,41,0,0,1,.24-6.46,39.7,39.7,0,0,0-1-11.55,9.62,9.62,0,0,0-1-2.8,5.57,5.57,0,0,0-7.76-1.4,1.88,1.88,0,0,0-.23.16,9,9,0,0,0-3.18,6.24,18.86,18.86,0,0,0,1.59,6.47Q124.6,467.09,127.33,476.49Z"/><path id="aeae2bfc-8543-4eb7-8f33-2720fbd4d4e5" data-name="Path 1593" class="eb1ea41b-c5d6-4c8e-b2d3-cab3f5b172d6" d="M241.51,572.48a14.79,14.79,0,0,1-10,1.61c-.54-.07-1.21-.12-1.56.34-.51.66.09,1.62.72,2.19a14.36,14.36,0,0,0,6.9,3,43.92,43.92,0,0,0,6.78.49,106.34,106.34,0,0,0,18.45-.74,2.25,2.25,0,0,0,1-.31,2.06,2.06,0,0,0,.75-1.25,5.17,5.17,0,0,0-1.61-4.72,13.35,13.35,0,0,0-4.31-2.48l-5.36-2.24c-1.26-.54-3.28-1.92-4.64-1.81C246.07,566.78,243.64,571.14,241.51,572.48Z"/><path id="a64996c8-49ac-4070-bd57-646688110a7a" data-name="Path 1594" class="eb1ea41b-c5d6-4c8e-b2d3-cab3f5b172d6" d="M255,586a12.66,12.66,0,0,1-9,3.6c-.84,0-2,.17-2,1.08a1.59,1.59,0,0,0,.25.75,8.35,8.35,0,0,0,4.65,3.91,15.36,15.36,0,0,0,5.61.38l5.49-.3c1-.06,2.09-.12,3.12-.26s2.15-.36,3.23-.54a40.43,40.43,0,0,1,8-.4,2.2,2.2,0,0,0,2-.57c.49-.66.2-1.61,0-2.42-.32-1.71,0-3.5-.31-5.22a8.91,8.91,0,0,0-5.6-6.41c-2.47-1-6.84-2.16-9.18-.49A61.88,61.88,0,0,0,255,586Z"/><path id="f799da15-fafb-4960-b73f-8e897d09ba87" data-name="Path 1595" class="a98d733a-09aa-4507-818a-a9048c94f541" d="M244.12,509.64c-2.26,3.19-4.52,6.88-4,10.83a26,26,0,0,0,2.22,6,44.45,44.45,0,0,1,2.26,8.39c.83,4.18,1.67,8.37,2.19,12.6a84.32,84.32,0,0,1,.49,14.47,5.18,5.18,0,0,1-.94,3.24,2.78,2.78,0,0,0-.81,1,1.87,1.87,0,0,0,.17,1.21,12.91,12.91,0,0,0,6.7,6.63,24.1,24.1,0,0,0,9.1,1.82,2.41,2.41,0,0,0,1.22-.17,2.38,2.38,0,0,0,.94-1.16c2.26-4.6,1-10.16,1-15.35,0-4.34,1-8.63.81-13-.14-3.47-1-6.87-1.32-10.34a65.21,65.21,0,0,1,1.42-17c.75-4.31,1.5-8.62,2.44-12.87a25.69,25.69,0,0,1,2.59-7.47c1.05-1.79,2.48-3.28,3.69-5A23.77,23.77,0,0,0,278.46,477c-.07-.59-7.75,2.08-8.41,2.42a25.83,25.83,0,0,0-7.52,5.18,65.68,65.68,0,0,0-4.73,6.28q-3.3,4.31-6.48,8.66Q247.65,504.58,244.12,509.64Z"/><path id="a0e57e41-d006-43d6-88e8-ef2723e70e66" data-name="Path 1596" class="ae08928b-26de-4d36-aff5-06bb34ad0259" d="M244.12,509.64c-2.26,3.19-4.52,6.88-4,10.83a26,26,0,0,0,2.22,6,44.45,44.45,0,0,1,2.26,8.39c.83,4.18,1.67,8.37,2.19,12.6a84.32,84.32,0,0,1,.49,14.47,5.18,5.18,0,0,1-.94,3.24,2.78,2.78,0,0,0-.81,1,1.87,1.87,0,0,0,.17,1.21,12.91,12.91,0,0,0,6.7,6.63,24.1,24.1,0,0,0,9.1,1.82,2.41,2.41,0,0,0,1.22-.17,2.38,2.38,0,0,0,.94-1.16c2.26-4.6,1-10.16,1-15.35,0-4.34,1-8.63.81-13-.14-3.47-1-6.87-1.32-10.34a65.21,65.21,0,0,1,1.42-17c.75-4.31,1.5-8.62,2.44-12.87a25.69,25.69,0,0,1,2.59-7.47c1.05-1.79,2.48-3.28,3.69-5A23.77,23.77,0,0,0,278.46,477c-.07-.59-7.75,2.08-8.41,2.42a25.83,25.83,0,0,0-7.52,5.18,65.68,65.68,0,0,0-4.73,6.28q-3.3,4.31-6.48,8.66Q247.65,504.58,244.12,509.64Z"/><path id="f8a70224-1400-444b-9188-88c9466a4db5" data-name="Path 1597" class="a98d733a-09aa-4507-818a-a9048c94f541" d="M260.42,485.08c.48,2.48,2.71,4.37,2.77,6.9a11.28,11.28,0,0,1-2.25,5.46,37.92,37.92,0,0,0-2.31,5.6,87.61,87.61,0,0,1-6.77,14.45,12.11,12.11,0,0,0-2.42,7.16,10.83,10.83,0,0,0,1.17,3.42l3.86,8.26a24.29,24.29,0,0,1,2,5.21c.34,1.57.37,3.23.57,4.79.61,5.06,2.81,10.15,1.5,15.06-.11.42-.54.93-.83.64a16.59,16.59,0,0,1,2.2,8.07,12.16,12.16,0,0,0,.05,4.54,5.28,5.28,0,0,1,.58,1.73c0,.41-.17.81-.21,1.22a2.66,2.66,0,0,0,1.92,2.51c1,.37,2.17.35,3.22.68a20.13,20.13,0,0,1,5.17,3.8,10.44,10.44,0,0,0,5.93,2.08,1.41,1.41,0,0,0,.87-.19,1.57,1.57,0,0,0,.49-1.14,6.56,6.56,0,0,0-2.13-5.5,2.39,2.39,0,0,1-.75-.89,2.25,2.25,0,0,1-.08-1,79.44,79.44,0,0,0-.23-13.62,22.37,22.37,0,0,1-.19-4.33,9.64,9.64,0,0,0-.71-7.07,25.9,25.9,0,0,1-.49-6.46,60.1,60.1,0,0,0-1.7-11.07,8.83,8.83,0,0,0-1.61-4c-.81-.91-2.11-1.76-1.8-3a3.53,3.53,0,0,1,.75-1.19,4.94,4.94,0,0,0,.93-3.61,1.47,1.47,0,0,0,1.73-.87,28.5,28.5,0,0,0,13.6-16.62,5.64,5.64,0,0,1,.61-1.48,6.39,6.39,0,0,1,2.49-1.74,19.48,19.48,0,0,0,6.54-7.16,17.08,17.08,0,0,0,2.53-5.2,18.83,18.83,0,0,0,.35-3.75l.15-6.46a3.61,3.61,0,0,0-.11-1.27,3.07,3.07,0,0,0-.66-1,11.48,11.48,0,0,0-6.42-3.71,49.31,49.31,0,0,0-5-.41,58.35,58.35,0,0,0-9.68-1.11,15.64,15.64,0,0,0-12,9C263.11,483.57,262.22,485,260.42,485.08Z"/><path id="ae86c941-7b0c-4c73-b503-9f9fdd0dd97f" data-name="Path 1598" class="a2424980-c96c-4694-bf2a-8f4ab96e34dd" d="M91.58,584.08a7.7,7.7,0,0,0,3.46.44c.08-1,1.37-1.25,2.33-1.2a2.44,2.44,0,0,1,1.37.32c.24.16.42.4.65.58a2.66,2.66,0,0,0,1.35.37l5,.45a14.07,14.07,0,0,0,6.6-.47,2.09,2.09,0,0,0,1.06-.76,2.25,2.25,0,0,0-.75-2.74c-.75-.63-1.78-.92-2.56-1.57-1.73-1.41-2-4-2.88-6.17a18.1,18.1,0,0,0-2.38-3.72,14.11,14.11,0,0,0-2.36-2.58,11.59,11.59,0,0,0-6.63-1.74,4.27,4.27,0,0,0-4.41,1.31c-1.46,1.95-.88,5.9-.79,8.23A65.34,65.34,0,0,0,91.58,584.08Z"/><path id="a5dc10a9-f29f-402c-b115-ef00a405fd96" data-name="Path 1599" class="ae08928b-26de-4d36-aff5-06bb34ad0259" d="M91.58,584.08a7.7,7.7,0,0,0,3.46.44c.08-1,1.37-1.25,2.33-1.2a2.44,2.44,0,0,1,1.37.32c.24.16.42.4.65.58a2.66,2.66,0,0,0,1.35.37l5,.45a14.07,14.07,0,0,0,6.6-.47,2.09,2.09,0,0,0,1.06-.76,2.25,2.25,0,0,0-.75-2.74c-.75-.63-1.78-.92-2.56-1.57-1.73-1.41-2-4-2.88-6.17a18.1,18.1,0,0,0-2.38-3.72,14.11,14.11,0,0,0-2.36-2.58,11.59,11.59,0,0,0-6.63-1.74,4.27,4.27,0,0,0-4.41,1.31c-1.46,1.95-.88,5.9-.79,8.23A65.34,65.34,0,0,0,91.58,584.08Z"/><path id="ab7300fd-c35f-4335-b2d0-9bb97609a5b8" data-name="Path 1600" class="a98d733a-09aa-4507-818a-a9048c94f541" d="M93.6,480.05a3.82,3.82,0,0,0-1.9,4.26,15.51,15.51,0,0,0,2,4.65c2.21,4.26,3.17,9.14,5,13.58,1.39,3.33,3.27,6.4,4.65,9.7a17.38,17.38,0,0,1,1.39,10.63c-.4,1.72-1.18,3.3-1.71,5a30.26,30.26,0,0,0-1,5.66A114.77,114.77,0,0,0,101.7,553a6.34,6.34,0,0,0,.46,2.31c.31.65.85,1.32.59,2-.11.27-.33.47-.45.73-.31.75.33,1.52.91,2a1.61,1.61,0,0,1-1,.81,2.57,2.57,0,0,1,1,2.76c-.52.08-.54.93-.22,1.38s.84.73,1.08,1.23a1.77,1.77,0,0,1-.88,2.15,3.8,3.8,0,0,1-2.4.19,24.07,24.07,0,0,1-4-.94,3.42,3.42,0,0,1-1.24-.61,4.05,4.05,0,0,1-1.1-2.61,49.62,49.62,0,0,1-.27-8.08c.22-13.07,0-26.15-.54-39.2A47.83,47.83,0,0,0,90.05,502c-1-2.48-2.21-4.91-3.5-7.27A32.12,32.12,0,0,1,82,477.28c.07-.66.3-1.45.9-1.55a1.18,1.18,0,0,1,.69.12A32.63,32.63,0,0,1,87.27,478,13,13,0,0,0,93.6,480.05Z"/><path id="ba2e4702-0a25-4320-87e3-710822be3629" data-name="Path 1601" class="ae08928b-26de-4d36-aff5-06bb34ad0259" d="M93.6,480.05a3.82,3.82,0,0,0-1.9,4.26,15.51,15.51,0,0,0,2,4.65c2.21,4.26,3.17,9.14,5,13.58,1.39,3.33,3.27,6.4,4.65,9.7a17.38,17.38,0,0,1,1.39,10.63c-.4,1.72-1.18,3.3-1.71,5a30.26,30.26,0,0,0-1,5.66A114.77,114.77,0,0,0,101.7,553a6.34,6.34,0,0,0,.46,2.31c.31.65.85,1.32.59,2-.11.27-.33.47-.45.73-.31.75.33,1.52.91,2a1.61,1.61,0,0,1-1,.81,2.57,2.57,0,0,1,1,2.76c-.52.08-.54.93-.22,1.38s.84.73,1.08,1.23a1.77,1.77,0,0,1-.88,2.15,3.8,3.8,0,0,1-2.4.19,24.07,24.07,0,0,1-4-.94,3.42,3.42,0,0,1-1.24-.61,4.05,4.05,0,0,1-1.1-2.61,49.62,49.62,0,0,1-.27-8.08c.22-13.07,0-26.15-.54-39.2A47.83,47.83,0,0,0,90.05,502c-1-2.48-2.21-4.91-3.5-7.27A32.12,32.12,0,0,1,82,477.28c.07-.66.3-1.45.9-1.55a1.18,1.18,0,0,1,.69.12A32.63,32.63,0,0,1,87.27,478,13,13,0,0,0,93.6,480.05Z"/><path id="f416a554-8ab4-4edc-b745-04ee23c6a110" data-name="Path 1602" class="a98d733a-09aa-4507-818a-a9048c94f541" d="M73,464.18a5.13,5.13,0,0,0-2.65-.9,5.19,5.19,0,0,0-2.88,1.54,31.6,31.6,0,0,0-2.86,2.69,17.34,17.34,0,0,0-3.41,16.26,33,33,0,0,0,4.18,8l3.31,5.12c5,7.79,10.1,15.58,15.4,23.19a.86.86,0,0,0,.56.81c.2,0,.44,0,.54.21a.61.61,0,0,1,.07.35A5.93,5.93,0,0,1,85,523a.77.77,0,0,0-.06.56c.16.42.89.18,1.12.58a.67.67,0,0,1-.24.81,1,1,0,0,0-.42.81c0,.33.54.64.52,1a1,1,0,0,1-.31.58,1.54,1.54,0,0,0,.17,1.86c.35,3.72-1.5,7.24-1.9,11-.6,5.84,1.86,11.55,2.16,17.42a5,5,0,0,0,.34,1.92c.51,1,1.82,1.62,1.78,2.77a12.49,12.49,0,0,1-.37,1.4,12.2,12.2,0,0,0,.19,2c0,.67-.54,1.47-1.1,1.21.43,1.55.82,3.12,1.15,4.7l11.58,1a11.82,11.82,0,0,0-.1-3.36c-.24-1.19-.75-2.32-1-3.51a4.39,4.39,0,0,1,.46-3.52,1.31,1.31,0,0,1-1.28-1.13,6.31,6.31,0,0,1,0-1.94c.31-3.23-1-6.46-.93-9.69a50.84,50.84,0,0,1,1.3-7.56c.91-5.4,0-11.26,2.2-16.16,1.35-3,3.23-6.27,1.71-9.15-.75-1.43-2.07-2.43-2.93-3.74a16.28,16.28,0,0,1-1.57-4,142.75,142.75,0,0,0-7.2-17.07,18.68,18.68,0,0,1-1.56-4.49,24.79,24.79,0,0,1-.18-4.13,68.44,68.44,0,0,0-.43-7.44,7.34,7.34,0,0,0-.84-3.08,6.77,6.77,0,0,0-1.81-1.77A121.72,121.72,0,0,0,73,464.18Z"/><path id="bb42835a-8d95-4eac-8b71-f7e82d43e7ae" data-name="Path 1603" class="a2424980-c96c-4694-bf2a-8f4ab96e34dd" d="M86.92,588.64a7.71,7.71,0,0,0,3.46.45c.1-1,1.38-1.26,2.33-1.21a2.65,2.65,0,0,1,1.35.33c.24.17.42.41.66.58a2.62,2.62,0,0,0,1.34.37l5,.45a13.85,13.85,0,0,0,6.61-.47,2.11,2.11,0,0,0,1-.76,2.26,2.26,0,0,0-.75-2.74c-.75-.63-1.78-.92-2.57-1.57-1.72-1.41-2-4-2.89-6.17a17.58,17.58,0,0,0-2.37-3.71,13.77,13.77,0,0,0-2.35-2.59,11.67,11.67,0,0,0-6.63-1.74,4.27,4.27,0,0,0-4.41,1.31c-1.5,2-.89,5.9-.8,8.24A65,65,0,0,0,86.92,588.64Z"/><rect id="b095db14-447a-43d0-ace2-5fd3a0b63d55" data-name="Rectangle 4118" class="f00e09f9-b173-4c6e-b051-eb7e45745357" x="149.75" y="494.88" width="58.71" height="63.08"/><ellipse id="e3066ba0-742c-4781-b8f6-e5370c32671d" data-name="Ellipse 685" class="b1cf965a-a1a8-4188-89e6-7213da8189fb" cx="138.27" cy="430.3" rx="11.47" ry="12.33"/><path id="eb1c23bc-0c6e-450f-9e57-a49ea9b3c657" data-name="Path 1604" class="b1cf965a-a1a8-4188-89e6-7213da8189fb" d="M127.45,434a10.36,10.36,0,0,1-6.16,1.89A36.48,36.48,0,0,0,108,440a4.75,4.75,0,0,0-1.5,1.13,4.93,4.93,0,0,0-.76,1.76,12.4,12.4,0,0,0-.43,4.29,13.11,13.11,0,0,0,1.1,4,21.25,21.25,0,0,0,7.12,8.72,5,5,0,0,0,1.73.89c1.51.34,3-.61,4.46-1a6.87,6.87,0,0,1,4.11.15c1.25.45,2.57,1.26,3.77.72a4.23,4.23,0,0,0,1.72-2.1,72.16,72.16,0,0,0,3.12-7.36,29.36,29.36,0,0,1,1.14-2.86c1.33-2.72,3.63-4.85,4.78-7.65a1.78,1.78,0,0,0,.1-1.43,1.9,1.9,0,0,0-.84-.7,20.46,20.46,0,0,1-4.58-3.87c-.75-.8-2.15-2.87-3.23-3.06S128.28,433.19,127.45,434Z"/><path id="f1baa7b2-d555-409d-bab1-e1cf8b87eb31" data-name="Path 1605" class="a2424980-c96c-4694-bf2a-8f4ab96e34dd" d="M127.72,459a6.35,6.35,0,0,1-4.34.06,45.92,45.92,0,0,1-10.91-3.41,5.93,5.93,0,0,1-2.69-2.21,7.37,7.37,0,0,1-.75-2.76l-.63-4.58a29.52,29.52,0,0,1,.19-4.7,1.45,1.45,0,0,0-.25-1,1,1,0,0,0-.75-.25c-1.72,0-2.76,2-4,3.28a7.29,7.29,0,0,1-2.43,1.76c-1.11.48-2.47.81-2.91,2-.19.49-.16,1.06-.36,1.55-.75,2-4.06,1.32-4.89,3.24-.25.53-.23,1.24-.63,1.68s-1.13.42-1.73.54c-2.39.42-3.56,3.39-5.6,4.79a44,44,0,0,1-5.8,2.07,21.25,21.25,0,0,1-3,1.62,13.24,13.24,0,0,1-3.5.19.88.88,0,0,0-.7.24,1.08,1.08,0,0,0-.11.81A22.44,22.44,0,0,0,85,481.46a4.7,4.7,0,0,1,1.11.58c1,.81,1.22,2.64,2.41,3.23a2.37,2.37,0,0,0,2.51-.58,23.13,23.13,0,0,0,1.81-2.15,7,7,0,0,1,4-2.28,8.37,8.37,0,0,0,4.16-1,12.35,12.35,0,0,0,1.31-1.5,8.22,8.22,0,0,1,3-1.91,28.44,28.44,0,0,1,9.41-2.13,31.24,31.24,0,0,0,9-.95,5.2,5.2,0,0,0,2-1.21,6.55,6.55,0,0,0,1.35-2.5A20.39,20.39,0,0,0,127.72,459Z"/><path id="fdc5f4ec-3204-428a-b758-a686d949e88a" data-name="Path 1606" class="a2424980-c96c-4694-bf2a-8f4ab96e34dd" d="M112.93,440.84c.85-.08,1.7,0,2.55,0s2-.27,3-.27a7.52,7.52,0,0,1,7,5.72,1.59,1.59,0,0,1,.05.81.54.54,0,0,1-.58.42,14,14,0,0,0-1.29-2.77,7.3,7.3,0,0,0-3.85-2.88,9.3,9.3,0,0,0-4.74-.19c-.65.13-1.29.32-1.92.51l-3.13.91a16.43,16.43,0,0,0-1.68.54c-.42.16-1.15.8-1.56.8-.57,0-.11-.54.14-.88a4,4,0,0,1,2-1.56A16,16,0,0,1,112.93,440.84Z"/><path id="aa1ff461-6c7a-4088-ae00-08ea5224bd2e" data-name="Path 1607" class="b1cf965a-a1a8-4188-89e6-7213da8189fb" d="M120.66,477.87c.75,2.56,1.51,5.12,2.43,7.6a65.88,65.88,0,0,0,6.26,12.26,87.82,87.82,0,0,0,5.17,7.27,24.77,24.77,0,0,1,5.68,9.58,53.86,53.86,0,0,1,.52,6.6,8.24,8.24,0,0,0,2.52,5.85,8.83,8.83,0,0,0,4.15,1.47c1,.19,2.34.24,2.88-.73a3,3,0,0,0,.29-1.27l.25-3.24c.05-.69.28-1.61.93-1.61s1,.9,1.51,1.31a1.56,1.56,0,0,0,2.14-.59.75.75,0,0,0,.07-.12l0-.1a4.36,4.36,0,0,0,.06-2.83,13.26,13.26,0,0,0-6.4-8.55A18.87,18.87,0,0,1,146,509a10.92,10.92,0,0,1-2.46-3.33,213.57,213.57,0,0,1-15.43-31.13,24.55,24.55,0,0,1-1.58-6.14,43.57,43.57,0,0,1,.24-6.46,39.44,39.44,0,0,0-1-11.56,9.35,9.35,0,0,0-1-2.8,5.58,5.58,0,0,0-7.76-1.41l-.23.17a9.07,9.07,0,0,0-3.17,6.24,19,19,0,0,0,1.58,6.46Q118,468.47,120.66,477.87Z"/><path id="a44abc99-c260-454f-ba22-92056a65f285" data-name="Path 1608" class="a98d733a-09aa-4507-818a-a9048c94f541" d="M155,421.58a3.16,3.16,0,0,0-1.74-2.61,22.51,22.51,0,0,1-3-1.94c-.88-.81-1.35-1.87-2.22-2.68a9.72,9.72,0,0,0-3.31-1.77,23.8,23.8,0,0,0-7.92-1.53,13.18,13.18,0,0,0-7.58,2.16,4.59,4.59,0,0,0-1.28,1.28,6.11,6.11,0,0,0-.63,2.05,41.88,41.88,0,0,1-2,6.46,15.13,15.13,0,0,1-3.77,6.53c-2.15,1.93-5.43,3-6.85,5.35a1.87,1.87,0,0,0-.3,1.5c.2.58.86,1,1.45,1.35a20.4,20.4,0,0,1,8,8.26,10.17,10.17,0,0,1-.7,10.31c-.81,1.13-1.92,2.47-1.13,3.61,1.2,1.73,5.33.75,6.27,2.57a3.79,3.79,0,0,1,.13,1.89,5.55,5.55,0,0,0,3.82,4.51,20,20,0,0,0,6.86,1.21,6.82,6.82,0,0,0,.17-4.77,2.11,2.11,0,0,1-.17-1.08,2.67,2.67,0,0,1,.75-1,8,8,0,0,0,.47-9.35,54.36,54.36,0,0,1-4.73-9,4.86,4.86,0,0,1,.75-4.69,15.39,15.39,0,0,1,2.16-1.7,8.77,8.77,0,0,0,3-4c.7-2.1.59-4.63,2.65-6s4.73-.94,6.91-1.84A7.84,7.84,0,0,0,155,421.58Z"/><ellipse id="a10d95c5-2fd2-431e-980d-adbefdcdb216" data-name="Ellipse 686" class="f4c6446c-7be2-4404-bc8c-1b374a51e987" cx="219.3" cy="425.94" rx="12.51" ry="13.44"/><path id="edef335e-2493-4140-8e59-d94d57af5c18" data-name="Path 1609" class="f4c6446c-7be2-4404-bc8c-1b374a51e987" d="M230.58,425.37A16.27,16.27,0,0,0,241,433.18l-.94,3.67c-1.61,6.32-3.46,13-8,17.4a8.63,8.63,0,0,0-1.28-6.29,23.17,23.17,0,0,0-4.24-4.77l-7.2-6.73a2.26,2.26,0,0,1-.54-.65,2.18,2.18,0,0,1,0-1.47,17.79,17.79,0,0,1,5.66-7,20.88,20.88,0,0,0,2.85-3.57C228.74,421.52,229.66,423.73,230.58,425.37Z"/><path id="e7187285-6fbc-4196-a867-16d3feeaa1b6" data-name="Path 1610" class="eb1ea41b-c5d6-4c8e-b2d3-cab3f5b172d6" d="M232.16,442.76a8,8,0,0,1-.37,3,1.92,1.92,0,0,1-2.26,1.25,1,1,0,0,0-.73-1.25.82.82,0,0,0-.35,0A2.08,2.08,0,0,0,227,447a5.12,5.12,0,0,0-.42,3,13.16,13.16,0,0,1,.71,3.77c-.14,1.06-.88,2.12-.49,3.12a5.14,5.14,0,0,0,.94,1.19,3.59,3.59,0,0,1-.34,4.66l9.78.2a7.78,7.78,0,0,0,1.21,5.1,29.9,29.9,0,0,0,22.29,15.64,2.18,2.18,0,0,0-.69,2.85,1.94,1.94,0,0,0,.23.33,2.59,2.59,0,0,0,3.12.2,23.23,23.23,0,0,0,2.7-2.16,7.83,7.83,0,0,1,5.5-1.61c1.23.12,2.43.54,3.64.61,3.61.21,6.73-2.58,10.17-3.73a20.88,20.88,0,0,0,7.52-2.54,3.24,3.24,0,0,0,1.4-3.11,5.14,5.14,0,0,0-1.05-1.83,33.19,33.19,0,0,1-2.82-5.66,34,34,0,0,0-7.05-10.14,63.48,63.48,0,0,0-7-5.69,11.08,11.08,0,0,0-1.89-1.22,17.55,17.55,0,0,1-2.59-1.14,14.91,14.91,0,0,1-2.69-3.23,40.68,40.68,0,0,0-7.29-5.44,17.56,17.56,0,0,0-4.92-3.58c-.92-.3-1.92-.32-2.84-.63-2.11-.68-3.65-2.69-5.71-3.5a22,22,0,0,0-5.17-.71,11.57,11.57,0,0,1-5.31-2.15,6.16,6.16,0,0,0-1.72-1.08c-2.61-.81-2.82,4.38-3.07,6.19A56.06,56.06,0,0,0,232.16,442.76Z"/><path id="bf516bb7-3ff0-42d3-8dfe-81a4898228be" data-name="Path 1611" class="f4c6446c-7be2-4404-bc8c-1b374a51e987" d="M234.71,460.31c.44,5.1-3.15,10.05-2.1,15.05.22,1.08.64,2.08.81,3.16a12.67,12.67,0,0,1-2.79,8.25l-13.54,21.3a12.65,12.65,0,0,1-1.93,2.56c-2.58,2.46-6.46,2.2-9.84,3a16.13,16.13,0,0,0-6.6,3.14.48.48,0,0,0-.08.63,5.49,5.49,0,0,0,4.9,2.47c.35.5,0,1.25-.49,1.62-.75.54-1.72.68-1.86,2a2.35,2.35,0,0,0,.24,1.35,3.84,3.84,0,0,0,2.37,1.76c4.67,1.54,9.72-1.17,13.22-4.85s6-8.3,9.45-12.05c1.9-2.06,4.06-3.84,6-5.84a76.27,76.27,0,0,0,9.88-13.73,16.26,16.26,0,0,0,2.14-4.68c.36-1.66.19-3.42.61-5.06a18.41,18.41,0,0,1,3.23-5.66A19.72,19.72,0,0,0,252,462.4a11.73,11.73,0,0,0-6.66-10.17,5.62,5.62,0,0,0-3.77-.24,9.06,9.06,0,0,0-3.81,3.23l-2.57,3.19a7.39,7.39,0,0,0-1.5,2.42,2.67,2.67,0,0,0,.54,2.69"/><path id="a43046bf-5a95-40f0-b2c0-d064001b784c" data-name="Path 1612" class="eb1ea41b-c5d6-4c8e-b2d3-cab3f5b172d6" d="M241.55,439.35a7.17,7.17,0,0,0-5,1.62,7.5,7.5,0,0,0-1.25,2.11,21.88,21.88,0,0,0-2.49,8.42,39.55,39.55,0,0,0,.9,7,27.87,27.87,0,0,1-.57,5.91,35.84,35.84,0,0,0,7.11-2.93,22.9,22.9,0,0,1,4.16-2.32,11.63,11.63,0,0,1,7.68,1.61c.11-1.51-.95-4.16-.84-5.65a6.75,6.75,0,0,1,.32-1.89,11.73,11.73,0,0,1,1.06-1.81,7.89,7.89,0,0,0-.62-8.74,10.8,10.8,0,0,0-7.25-3.31,28.67,28.67,0,0,0-5.07-.18"/><path id="fb138cc6-d4e2-48f7-be33-894747080931" data-name="Path 1613" class="a98d733a-09aa-4507-818a-a9048c94f541" d="M202.82,412.42l-.29-2.53c2,.54,3.85-1.25,5.12-3.12s2.42-4,4.35-4.84c2.34-.95,4.81.56,7.05,1.81a21.13,21.13,0,0,0,8.07,2.88,5.16,5.16,0,0,1,1.35.23c1.45.56,2.16,2.51,2.36,4.29a17.72,17.72,0,0,0,.86,5.26c.54,1.19,1.5,2.09,2.05,3.23,1.5,3.17,0,7.54,1.67,10.65l-4-3.95c-.37-.36-.89-.74-1.29-.44s-.35.81-.48,1.19A2,2,0,0,1,227,428.3l-.14-.06-.09,0a8,8,0,0,1-2.55-2.51,15.76,15.76,0,0,0-6.37-5.18,7.6,7.6,0,0,0-6.73.43c-1.89,1.14-3.23,3.77-5.54,3.87-3.14.13-4.45-6.16-5.9-8.64a3.21,3.21,0,0,0,.82-3.81C200.73,412.27,202.77,412,202.82,412.42Z"/><path id="ef22eb50-b8ec-43f3-a0b6-f8449b592502" data-name="Path 1614" class="b4a4bc10-802c-41e5-adb7-8bbcf7243480" d="M485.88,252.44a12.88,12.88,0,0,1-3.93,1.15,7.28,7.28,0,0,0,3-4,13,13,0,0,1-4.35,1.79,6.5,6.5,0,0,0-9.16-.84c-.17.15-.34.3-.5.46a7.6,7.6,0,0,0-2.17,5.39A7.32,7.32,0,0,0,469,258a18.94,18.94,0,0,1-14.1-7.7,7.71,7.71,0,0,0,2.12,9.83,6.33,6.33,0,0,1-3.11-.92v.09a7.26,7.26,0,0,0,5.49,7.22,6.82,6.82,0,0,1-1.8.27,6.21,6.21,0,0,1-1.29-.14,7,7,0,0,0,6.39,5.12,13.12,13.12,0,0,1-8.5,3.15,12.75,12.75,0,0,1-1.63-.11A18.3,18.3,0,0,0,463,278.17c12.6,0,19.48-11.21,19.48-20.95v-.94A14.68,14.68,0,0,0,485.88,252.44Z"/><path id="b000878f-a09b-4ce7-a5de-0daa68f3c632" data-name="Path 1615" class="b4a4bc10-802c-41e5-adb7-8bbcf7243480" d="M461,410.72l2.26,6.09L478,433.6l4.93-5,3.11,3.53,3.29-3.34.19-6.86,4.11-4.17.33-12-13.2-15Zm29.72-3.36-.2,6.87-4.93,5-.18,6.85-3.11-3.53-4.11,4.17-13.22-15,15.62-15.84Z"/><path id="bfe5b718-645b-4e3a-bd6e-b5f8844c5537" data-name="Path 1616" class="b4a4bc10-802c-41e5-adb7-8bbcf7243480" d="M478.74,404.35l2.47-2.5,6.26,7.12L485,411.46ZM473,410.18l2.46-2.5,6.26,7.13-2.47,2.5Z"/><path id="be6ab3b5-ef9d-48b0-b341-94a4555ba1c8" data-name="Path 1617" class="b4a4bc10-802c-41e5-adb7-8bbcf7243480" d="M188.28,506.85H164.14a1.56,1.56,0,0,0-1.5,1.62v25.95a1.55,1.55,0,0,0,1.5,1.61h12V524.48H173v-4.25h3.3v-3.14a5.35,5.35,0,0,1,4.85-5.8,5.61,5.61,0,0,1,.71,0,33.85,33.85,0,0,1,3.49.18v3.93h-2.49c-1.7,0-2,.87-2,2.14v2.71h4.06l-.54,4.25h-3.54V536h7.53a1.55,1.55,0,0,0,1.5-1.61V508.48a1.56,1.56,0,0,0-1.49-1.63Z"/><path id="f34df739-a8b7-420a-b6c1-cb381174e65f" data-name="Path 1618" class="b4a4bc10-802c-41e5-adb7-8bbcf7243480" d="M399.31,321.72a5.89,5.89,0,0,1,5.65,6.07v12.12a5.87,5.87,0,0,1-5.65,6.07H388a5.45,5.45,0,0,1-4-1.78,6.21,6.21,0,0,1-1.66-4.29V327.79a5.89,5.89,0,0,1,5.65-6.07h11.29m0-2.42H388a8.24,8.24,0,0,0-7.91,8.5v12.12a8.25,8.25,0,0,0,7.91,8.51h11.29a8.26,8.26,0,0,0,7.92-8.47V327.84a8.27,8.27,0,0,0-7.92-8.54Z"/><path id="b1906feb-6f2a-4dd9-a7ab-c6573d078056" data-name="Path 1619" class="b4a4bc10-802c-41e5-adb7-8bbcf7243480" d="M401,327.81a1.83,1.83,0,0,1-.28-3.65,1.84,1.84,0,0,1,2,1.69V326a1.74,1.74,0,0,1-1.67,1.81ZM393.68,329a4.86,4.86,0,1,1-4.5,5.2c0-.11,0-.23,0-.35a4.7,4.7,0,0,1,4.51-4.85m0-2.42a7.29,7.29,0,1,0,6.76,7.79c0-.17,0-.35,0-.52a7,7,0,0,0-6.77-7.27Z"/><path id="a66354bf-08fa-4beb-9180-3ebaef2fa129" data-name="Path 1620" class="b4a4bc10-802c-41e5-adb7-8bbcf7243480" d="M748.58,456.64a5.75,5.75,0,0,0-5.26-6.17c-3.92-.2-7.91-.26-12-.26h-1.27c-4.07,0-8.08.07-12,.26a5.77,5.77,0,0,0-5.23,6.18c-.18,2.71-.26,5.41-.25,8.08s.07,5.41.24,8.08a5.78,5.78,0,0,0,5.23,6.19c4.11.21,8.32.29,12.61.29s8.51-.08,12.63-.29a5.81,5.81,0,0,0,5.27-6.19c.16-2.71.25-5.41.24-8.13s-.07-5.4-.24-8.08Zm-21.31,15.57V457.29l10.23,7.45Z"/><path id="aeece5a6-09b2-4825-bcac-2dd7a4e5a3ad" data-name="Path 1621" class="b4a4bc10-802c-41e5-adb7-8bbcf7243480" d="M374.87,170.56a16.39,16.39,0,0,0-15.94,16.82,17.06,17.06,0,0,0,9.59,15.76,16,16,0,0,1,.27-3.9c.31-1.38,2-9.27,2-9.27a6.93,6.93,0,0,1-.51-2.7c0-2.52,1.36-4.4,3.05-4.4,1.45,0,2.14,1.17,2.14,2.56a37.94,37.94,0,0,1-1.4,6,2.64,2.64,0,0,0,1.77,3.19,2.25,2.25,0,0,0,.73.08c3,0,5-4.14,5-9a6.13,6.13,0,0,0-5.71-6.52,6.48,6.48,0,0,0-.88,0,7.77,7.77,0,0,0-7.79,7.75v.39a5.16,5.16,0,0,0,1.05,3.34.85.85,0,0,1,.22.94c-.07.32-.24,1.08-.32,1.37a.56.56,0,0,1-.61.49h0a.49.49,0,0,1-.17-.06,6.64,6.64,0,0,1-3.23-6.47,10.78,10.78,0,0,1,10.91-10.63h.38a9.79,9.79,0,0,1,10,9.55v.19c0,6.67-3.45,11.66-8.55,11.66a4.43,4.43,0,0,1-3.86-2.12s-.92,3.92-1.12,4.67a14.29,14.29,0,0,1-1.59,3.65,14.75,14.75,0,0,0,4.52.69,17.06,17.06,0,0,0,0-34Z"/><path id="bf898a62-9542-43ea-a0e4-b36d3c82c5ad" data-name="Path 1622" class="bceb0a5b-9620-4168-a6ea-6f109e38d3ea" d="M540.57,641.47c-.6-2.77-1-5.2-1-5.2a11.49,11.49,0,0,0-1.12-5.28v-.76h0v-5.58a19.09,19.09,0,0,1,1.3-2.92c.94-1.74,0-8.16,0-8.16s-3.46-9.05-2.62-14.79-7.1-25.49-7.1-25.49a26.85,26.85,0,0,1,.75-5.65,4.32,4.32,0,0,0,.1-1.19v-.09A46,46,0,0,0,528,555.48l.38-13.52a42.59,42.59,0,0,0-1.12-18.68c-1-3.74-1.66-6.73-2.08-9,0-.27-.09-.51-.12-.76,6-1,10.53-1.79,10.53-1.79s-3.46-15.56-5.8-18.28-4.2-11.28-4.2-11.28-1.22-11,.75-14.21a22.72,22.72,0,0,0,2.26-8.75s4.51-3.5,5-5.06a27.3,27.3,0,0,0,1.51-6.9c0-1.86-.57-3.5-.38-4.48s-1.31-4.67-.55-6.42a5.09,5.09,0,0,0,.29-1.69v-.05h0a26.08,26.08,0,0,0-.4-4.58,11.82,11.82,0,0,0-4.44-2.55l-.1-.41L529.3,426a3.35,3.35,0,0,0-.44-.29v-2l.7-3.55c1.39-6.17-6.29-7.1-6.29-7.1a4.14,4.14,0,0,0-2.17-2.05c-1.51-.58-.27,9.3.46,9.93a32.58,32.58,0,0,1,3,5.09h0l.14.25a3.23,3.23,0,0,0-.35.4l.29,2.14,0,.33a9.19,9.19,0,0,0-1.22,2.24,5,5,0,0,1,1.12,3.5,11.92,11.92,0,0,0,.46,4.28c-.08-.11-1.07-1.26-2-1s-3.77,1.16-3.77,1.16-2.06.39-1.87.87-1.4,2.63-1.4,2.63l-5.53-5.65c-.06-.17-.11-.34-.17-.51a15.34,15.34,0,0,1-.47-2.43,11.07,11.07,0,0,0,1.76-.6,3.69,3.69,0,0,0,1.5-1.05,6.58,6.58,0,0,0,.89-2.56,37.86,37.86,0,0,1,2.06-4.92,17.18,17.18,0,0,0,1.08-8.77,6.23,6.23,0,0,0-.84-2.59c-.91-1.35-2.55-1.88-3.77-2.94s-2-2.69-3.35-3.48a6.15,6.15,0,0,0-4.2-.39,21.44,21.44,0,0,0-7.83,3.05,3.84,3.84,0,0,1-2.63.93,3.52,3.52,0,0,1-1.88-1.49.14.14,0,0,1,0-.09l-.07-.07a11.13,11.13,0,0,0-.86,4.45v1.16h0a1.54,1.54,0,0,1,0,.31,2.15,2.15,0,0,1-.51.81,4.05,4.05,0,0,0-.45.66.75.75,0,0,1,.08-.24,3.67,3.67,0,0,0-.58,1.87,1.86,1.86,0,0,0,.42,1.34,6.2,6.2,0,0,0,.89.81,13,13,0,0,0-.16,2,11.7,11.7,0,0,0,5.21,9.81l.19.51a15.14,15.14,0,0,1,1,6.46,1.12,1.12,0,0,1-.07.48l-.19.24h0s-9.14.1-11.29-2-5.43,5.12-5.43,5.12-3.27.68-3.92,0-4.52-.1-4.52-.1a8,8,0,0,0-5.7-2.23,16.5,16.5,0,0,0-4.19-2.5h0l-.11-.05h0a4.37,4.37,0,0,0-2.06-.26,42.5,42.5,0,0,1-5.79-6.13c-1.28-2.14-7.53-10.08-7.58-10.12v-.38l-.07-1.16a5.32,5.32,0,0,1-.56.06,1.23,1.23,0,0,0-.13-.41,22.11,22.11,0,0,0-1.32-3.23s0-1.45.4-1.82A26.6,26.6,0,0,0,445,409s-4-10.17-7.66-2.58c0,0-6.86,4.9-1.11,10.63,0,0,2.26,1.18,2.62,2.13.22.62,1,2.34,1.51,3.48l.23.5-.07.06.09.95v.38c-1.08.65-1.81,1.31-1.64,1.81a11.7,11.7,0,0,1,.66,2.62s7.95,10.7,9,15.28c0,0,21.32,13.61,28.33,14.59l-1.21,6.8q-.27,2.77-.27,5.55c.09,1.46-.84,8.08-.84,8.08s-1.22,9.69-2.26,11.08a19.94,19.94,0,0,0-.84,7.2,51.58,51.58,0,0,1-1.4,8.27,22.55,22.55,0,0,0-.27,8.27s-3.56,8.75,5,2.82c0,0,4.18-.27,9-.45v2.65c-.06,5-.09,11.93.12,17.16.37,9.24,3,27.48,3,27.48v9.19a12.81,12.81,0,0,0-.24,2.63,17.91,17.91,0,0,0,2.3,9.19l.65,6.13a26.63,26.63,0,0,1,1.57,6.46,3.68,3.68,0,0,1-.07.58,4.26,4.26,0,0,0-.07.94,55.73,55.73,0,0,0,1.5,9.44s.1,6.71,1,7.1-1.08,3.87-1.62,4.85l0-.2-.12.21a5.15,5.15,0,0,0-.29,1.7,2.5,2.5,0,0,0,1,2.36c1.78,1.17,2.73,2.15,1.23,2.53a13.13,13.13,0,0,0-1.65.37c0-.07-.06-.15-.08-.23a1.11,1.11,0,0,0-.59,1.13,5.29,5.29,0,0,0,.57,2.27,24.88,24.88,0,0,0,2.52,5l.75-.09a3.12,3.12,0,0,1-.42.81,3,3,0,0,1-1.05,1,3.26,3.26,0,0,1-1.27.47A3.49,3.49,0,0,0,490,638.9a3.1,3.1,0,0,0,.07,4.4l.25.22L497,646s11.5,1.61,10.89-1.17-1-5.18-1-5.18a11.57,11.57,0,0,0-.94-4.92,5.18,5.18,0,0,0-.4-.73l.4,0a23.77,23.77,0,0,1,2-7.27c.27-.27.32-.48.27-.64.11-.33-.18-.53-.54-.64l-.08.24a6,6,0,0,0-1.12-.13s-.37-3.23.84-4.38a1.29,1.29,0,0,0,.24-.95,5.77,5.77,0,0,0-.13-1.31l0,.08a48,48,0,0,0-2.7-7.54,10,10,0,0,1,.66-4.09c.74-1.17-.09-15.85-.09-15.85a51.81,51.81,0,0,0-.57-10.41,12.4,12.4,0,0,1,1-7.2v-.27s-.05-.44-.12-1.12v.07c-.19-1.89-.54-5.29-.81-6.86-.37-2.23.1-12.92.1-12.92l1.68-4.58,3,7.87,3.17,10.51a9.28,9.28,0,0,1,1.62,4.46v.33c0,.23,0,.47,0,.7a6.69,6.69,0,0,0,1,3.75,17,17,0,0,0,2.16,6.22,5.92,5.92,0,0,1,1.31,3.7,63.88,63.88,0,0,0,2.34,8.46,13.52,13.52,0,0,1,.65,4.85h0v.27s.22,2.57.21,4.73v.75a7.89,7.89,0,0,1-.2,1.75v-.27a20,20,0,0,0-.48,4.49,12.2,12.2,0,0,0,1.78,7.45c2.54,3.11,4.12,2.72,4.12,2.72s-1.22,3.89-2.72,4.67l-.15.11a.59.59,0,0,0,0-.23,2,2,0,0,0-.44,1.46,11,11,0,0,0,1.85,5.76,3,3,0,0,0,1.27.81l-.24.15a4.25,4.25,0,0,1-.52.27,2.39,2.39,0,0,1-.75.21,3.51,3.51,0,0,0-2.65,1.38,3.11,3.11,0,0,0,.08,4.4l.25.22,6.69,2.47S541.15,644.28,540.57,641.47Z"/><path id="ee8c4ab1-caa2-4473-acda-f447cb492ae1" data-name="Path 1623" class="a72a6f0a-a4db-4cc5-9c4b-26e33e2d6c33" d="M496.63,646.06l-6.48-2.47a3.17,3.17,0,0,1-.44-4.46c0-.06.09-.11.13-.16a3.32,3.32,0,0,1,2.56-1.38,3,3,0,0,0,1.24-.48,3.08,3.08,0,0,0,1-1,5.46,5.46,0,0,0,.75-2.7s7.11-2.23,9,0a6.22,6.22,0,0,1,.87,1.35,12.21,12.21,0,0,1,.9,4.92s.36,2.43.95,5.2S496.63,646.06,496.63,646.06Z"/><path id="f0010aa1-9a48-4605-839a-7a550c274e66" data-name="Path 1624" class="a72a6f0a-a4db-4cc5-9c4b-26e33e2d6c33" d="M528.32,642.66l-6.46-2.47a3.16,3.16,0,0,1-.47-4.44l.15-.17a3.33,3.33,0,0,1,2.57-1.39,2.21,2.21,0,0,0,.75-.21,2.7,2.7,0,0,0,.5-.27,4.55,4.55,0,0,0,1.77-3.69s7.1-2.24,9,0a4.71,4.71,0,0,1,.68,1,11.8,11.8,0,0,1,1.09,5.29s.36,2.43,1,5.2S528.32,642.66,528.32,642.66Z"/><path id="a9450987-1d6d-4ded-8db6-06eee608d889" data-name="Path 1625" class="af9c6aed-a78a-42ee-9738-26bb0d99e1b0" d="M504.46,633.42a5.93,5.93,0,0,1,.87,1.34h0l-10.66,1.33a5.29,5.29,0,0,0,.75-2.69S502.52,631.19,504.46,633.42Z"/><path id="bfef78c7-f50b-490f-863e-3533268c230e" data-name="Path 1626" class="af9c6aed-a78a-42ee-9738-26bb0d99e1b0" d="M536.83,631v2.14c-1.66,2.94-9.67,2.3-12,.81a4.67,4.67,0,0,0,.49-.27A4.52,4.52,0,0,0,527.1,630s7.1-2.24,9,0A5.36,5.36,0,0,1,536.83,631Z"/><path id="fa6f4d06-c119-4c35-9db8-77663604f8bc" data-name="Path 1627" class="a98d733a-09aa-4507-818a-a9048c94f541" d="M538.1,621.74a19.84,19.84,0,0,0-1.27,2.92v7.69c-1.81,3.23-11.23,2.15-12.49.39s-2.63-6.32-1.19-7.1,2.63-4.67,2.63-4.67-1.5.39-4-2.73-1.71-10-1.26-11.67a37.55,37.55,0,0,0,0-7.19,15.5,15.5,0,0,0-.64-5.16,68.59,68.59,0,0,1-2.25-8.47,6,6,0,0,0-1.27-3.69,17.66,17.66,0,0,1-2.08-6.22,6.87,6.87,0,0,1-.91-4.18,8.77,8.77,0,0,0-1.54-5.06l-3.07-10.51-2.9-7.88-1.62,4.58s-.46,10.7-.09,12.92.91,8.17.91,8.17a12.72,12.72,0,0,0-1,7.2,51.79,51.79,0,0,1,.54,10.41s.81,14.69.09,15.86a10.1,10.1,0,0,0-.63,4s3.71,8.56,2.53,9.69-.81,4.38-.81,4.38,2.53,0,1.45,1.17a24.71,24.71,0,0,0-1.91,7.27l-11,1.48a25.42,25.42,0,0,1-2.45-5c-1.45-3.6.27-3.23,1.73-3.6s.53-1.34-1.19-2.53-.76-3.79-.76-3.79,2.63-4.77,1.73-5.16-1-7.1-1-7.1a46.58,46.58,0,0,1-1.35-10.11,20.61,20.61,0,0,0-1.45-7.27l-.63-6.13a17.89,17.89,0,0,1-2-11.59v-9.46s-2.53-18.29-2.9-27.49c-.23-5.92-.17-14-.09-19,0-2.83.09-4.7.09-4.7l39.12-4.38a36.26,36.26,0,0,0,.72,6.24c.4,2.31,1,5.3,2,9A44.09,44.09,0,0,1,527.07,542l-.36,13.51s3.43,9.05,2.72,12.12a27.72,27.72,0,0,0-.76,5.66s7.7,19.75,6.89,25.49,2.54,14.74,2.54,14.74S539,620,538.1,621.74Z"/><path id="a9fc9a9a-a6f9-4a05-a851-e8cc3bb182a7" data-name="Path 1628" class="ae08928b-26de-4d36-aff5-06bb34ad0259" d="M515.74,571.07l11.87-1.7S520.9,576.76,515.74,571.07Z"/><path id="f6fd04d0-a88c-4045-a143-bc74a42772f1" data-name="Path 1629" class="af9c6aed-a78a-42ee-9738-26bb0d99e1b0" d="M525.92,556.87s.41,4.52-2.16,6.22C523.75,563.09,528.36,562.32,525.92,556.87Z"/><path id="a7d95be4-9262-4b2c-9024-02da9280a23d" data-name="Path 1630" class="af9c6aed-a78a-42ee-9738-26bb0d99e1b0" d="M525.19,542.47s-10,8.81-13.55,8.08S525.19,542.47,525.19,542.47Z"/><path id="a7b9b9f1-8000-4fc7-9da9-c151b13a565f" data-name="Path 1631" class="af9c6aed-a78a-42ee-9738-26bb0d99e1b0" d="M501,575.2s-7.53,1.85-7.78,5.12S501,575.2,501,575.2Z"/><path id="f8afc3be-0293-4646-9ed7-a5de0cbdde42" data-name="Path 1632" class="ae08928b-26de-4d36-aff5-06bb34ad0259" d="M502.63,615.76S492,617.9,495,619.37a50,50,0,0,0,8,2.62S506.45,622.18,502.63,615.76Z"/><g id="e7268d39-21cd-490e-9a6f-f3d91cdb384f" data-name="Group 462" class="bdabb693-4bf9-4185-b33b-c9870720c806"><path id="a78ec8d7-d1f6-43a9-84b9-fc423dea03f7" data-name="Path 1633" d="M492.83,621.64a2.27,2.27,0,0,1-1-1.66l-.11.21s-1,2.62.76,3.79l.55.4c.32-.07.66-.12,1-.21C495.47,623.82,494.56,622.84,492.83,621.64Z"/><path id="a37bc2d9-3b2a-41c5-95b0-f897cabe5561" data-name="Path 1634" d="M506.59,620.9c.3-.29.27-1,.11-2a5.73,5.73,0,0,0-.61,2.82A2.16,2.16,0,0,1,506.59,620.9Z"/><path id="ecdca186-53c2-42d9-99e8-2e15588fd1bf" data-name="Path 1635" d="M505,572.51a14.18,14.18,0,0,0-.75,3.58,14.78,14.78,0,0,1,.82-2.43A7.4,7.4,0,0,0,505,572.51Z"/><path id="e3cf0564-a675-4f0c-a9fc-58814131e569" data-name="Path 1636" d="M529.41,567.4a5.49,5.49,0,0,0,.1-1.08c-.14.73-.23,1.41-.29,2C529.27,568,529.33,567.72,529.41,567.4Z"/><path id="afa7bba4-221d-49eb-8064-d4335d7e8d12" data-name="Path 1637" d="M504.68,607.09a6.52,6.52,0,0,0,.27-2.15,7.68,7.68,0,0,0-.52,2.72A2.9,2.9,0,0,1,504.68,607.09Z"/><path id="bf8ce235-2d8a-47a7-8f0e-17a0da22bb7b" data-name="Path 1638" d="M506.94,625.43a40.57,40.57,0,0,0-1.24,6l-10.95,1.37a25,25,0,0,1-2.46-5A8.64,8.64,0,0,1,492,627c-.65.32-.91,1-.05,3.23a24.53,24.53,0,0,0,2.45,5l10.94-1.36a24.7,24.7,0,0,1,1.9-7.27C507.76,625.87,507.42,625.58,506.94,625.43Z"/><path id="f119689d-aba6-496c-873d-03314c2687cc" data-name="Path 1639" d="M492.48,608s.08,6.71,1,7.11h0c.45-1.11.75-2.16.35-2.34-.9-.39-1-7.1-1-7.1a46.06,46.06,0,0,1-1.35-10.12,20.56,20.56,0,0,0-1.45-7.27l-.64-6.13a18,18,0,0,1-2-11.58v-9.45s-2.53-18.28-2.89-27.52c-.24-5.93-.17-14-.09-19V512.1h-.31s-.05,1.87-.1,4.7c-.07,5-.14,13.12.1,19,.36,9.24,2.89,27.53,2.89,27.53v9.43a17.84,17.84,0,0,0,2,11.67l.63,6.13a20.56,20.56,0,0,1,1.45,7.27A45.39,45.39,0,0,0,492.48,608Z"/><path id="e61cbc7e-9807-4153-8688-524473ffa301" data-name="Path 1640" d="M524.7,630.15a12,12,0,0,1-1.73-4.62c-1.12,1.07.17,5.29,1.37,7s10.69,2.82,12.5-.4v-1.85C534.39,632.84,525.91,631.8,524.7,630.15Z"/><path id="ae1047b4-2370-44e5-832d-32dbde37b2b9" data-name="Path 1641" d="M538.46,619.15a18.91,18.91,0,0,0-1.26,2.92v1.36c.2-.5.5-1.16.9-1.95a6.22,6.22,0,0,0,.4-2.42Z"/><path id="a3f2c33f-ddab-4f25-824b-7db8196547a6" data-name="Path 1642" d="M525.26,620.68a19,19,0,0,0,.89-2.31s-1.5.39-4-2.72a14.72,14.72,0,0,1-1.61-9.34c-.45,1.65-1.18,8.56,1.26,11.67A6.38,6.38,0,0,0,525.26,620.68Z"/><path id="e7edab6e-5d7b-45f7-b72c-fbd9d0166473" data-name="Path 1643" d="M520.54,599.11a55.52,55.52,0,0,1,.18,5.77c.06-.38.13-.69.18-.91a36,36,0,0,0,0-7.19,15.53,15.53,0,0,0-.63-5.16,67.21,67.21,0,0,1-2.26-8.46,6,6,0,0,0-1.26-3.7,17.4,17.4,0,0,1-2.08-6.22,6.81,6.81,0,0,1-.92-4.18,8.91,8.91,0,0,0-1.5-5.06l-3.08-10.51-2.93-7.83-1.64,4.58s0,.58-.05,1.48l1.32-3.71,2.9,7.87,3.08,10.51a8.71,8.71,0,0,1,1.5,5.05,6.76,6.76,0,0,0,.94,4.14,17.66,17.66,0,0,0,2.08,6.22,6,6,0,0,1,1.27,3.69A63.7,63.7,0,0,0,519.9,594,15,15,0,0,1,520.54,599.11Z"/></g><path id="a2f10b30-a18b-4cf1-b367-c75f5afeba39" data-name="Path 1644" class="e9bd331f-ac5b-48a6-93c4-bcfb51b8ad7d" d="M528.14,420.15l-.68,3.56,0,1.61v1.17l-3.77.42-.42-.81h0a35.23,35.23,0,0,0-2.94-5.09c-.7-.63-1.94-10.5-.45-9.92a4.06,4.06,0,0,1,2.11,2.05S529.48,414,528.14,420.15Z"/><path id="bfd5b2fb-b894-4749-83a9-daeeb81a1abb" data-name="Path 1645" class="af9c6aed-a78a-42ee-9738-26bb0d99e1b0" d="M527.53,426.45l-3.77.42-.42-.81h0a3.17,3.17,0,0,1,4.16-.74Z"/><path id="a506ff2b-0a25-4811-b179-ed44c320bebc" data-name="Path 1646" class="bb874f45-7102-4a48-834f-227f4e65a2c3" d="M528.47,428.37l-5,1.25-.1-.81-.29-2.16a3.27,3.27,0,0,1,4.52-.93,1.89,1.89,0,0,1,.27.2l0,0,.25,1.09Z"/><path id="edfeba1f-9d38-4fb7-9e0f-078fac929dc6" data-name="Path 1647" class="e9bd331f-ac5b-48a6-93c4-bcfb51b8ad7d" d="M447.79,420.54l-5.31,3.07-.48-1.08c-.51-1.14-1.27-2.85-1.51-3.46-.31-.95-2.53-2.16-2.53-2.16-5.57-5.71,1.06-10.62,1.06-10.62,3.5-7.59,7.42,2.57,7.42,2.57a27.35,27.35,0,0,1,.16,5.72c-.38.35-.38,1.82-.38,1.82a23.76,23.76,0,0,1,1.29,3.24C447.71,420.21,447.79,420.54,447.79,420.54Z"/><path id="ec96f6ac-4720-4cfa-a118-c3c19c708b6c" data-name="Path 1648" class="af9c6aed-a78a-42ee-9738-26bb0d99e1b0" d="M447.79,420.54l-5.32,3.07-.48-1.07c.76-.67,3.42-3,4.29-2.89a5.31,5.31,0,0,0,1.26,0C447.71,420.21,447.79,420.54,447.79,420.54Z"/><path id="aa617e0d-7e23-48c3-a7df-fbcdf690c5fd" data-name="Path 1649" class="bb874f45-7102-4a48-834f-227f4e65a2c3" d="M448.33,422.27l-6,3.16-.12-1.38-.08-.95s3.46-3.19,4.51-3.07a5.17,5.17,0,0,0,1.57,0l.06,1.16Z"/><path id="f6ebcf6d-cd38-4a54-9aa4-5159e9511c6f" data-name="Path 1650" class="e9bd331f-ac5b-48a6-93c4-bcfb51b8ad7d" d="M513.65,443.74s-26,3.16-21.18,1.46a6.9,6.9,0,0,0,5-6.07,15.79,15.79,0,0,0-1-6.46,28.6,28.6,0,0,0-2.33-5.06s19.92-11.77,15.94-1.08A17.68,17.68,0,0,0,509,431.6a15.27,15.27,0,0,0,.51,5.12A15.53,15.53,0,0,0,513.65,443.74Z"/><path id="a2a957ab-4b6b-4a03-991e-203c42dfe1ef" data-name="Path 1651" class="af9c6aed-a78a-42ee-9738-26bb0d99e1b0" d="M510.13,426.53A17.59,17.59,0,0,0,509,431.6a8.74,8.74,0,0,1-6.58,1.61c-2,0-4.28.54-5.9-.52a28.94,28.94,0,0,0-2.33-5.06S514.11,415.83,510.13,426.53Z"/><ellipse id="a9e1ffe7-141a-406b-9571-27b6fff7f0e0" data-name="Ellipse 687" class="e9bd331f-ac5b-48a6-93c4-bcfb51b8ad7d" cx="502.07" cy="422.35" rx="10.77" ry="11.58"/><path id="a5de767f-8c7e-4dc0-b78b-23551367736e" data-name="Path 1652" class="af9c6aed-a78a-42ee-9738-26bb0d99e1b0" d="M513.65,443.74s-26,3.16-21.18,1.46a6.9,6.9,0,0,0,5-6.07,13.82,13.82,0,0,1,5.58-3.17,7.18,7.18,0,0,1,4.71-.09,6.31,6.31,0,0,1,1.72.81A15.57,15.57,0,0,0,513.65,443.74Z"/><path id="ac345a12-d08f-4d01-8d82-2ac5e9586051" data-name="Path 1653" class="af9c6aed-a78a-42ee-9738-26bb0d99e1b0" d="M528.48,428.37l-5,1.25-.11-.81a4.24,4.24,0,0,1,4.79-1.76Z"/><path id="bfbd4bee-fa21-4723-a356-d92adffed00d" data-name="Path 1654" class="af9c6aed-a78a-42ee-9738-26bb0d99e1b0" d="M448.33,422.27l-6,3.16-.12-1.38a42,42,0,0,1,6-2.86Z"/><path id="a4d314f1-dcb9-4b29-b304-9373737fa422" data-name="Path 1655" class="af9c6aed-a78a-42ee-9738-26bb0d99e1b0" d="M524,514.28c-10.08,1.71-24.45,3.94-26.73,3.2a61.24,61.24,0,0,0-13.19-.37c0-2.82.09-4.69.09-4.69L523.25,508A37.27,37.27,0,0,0,524,514.28Z"/><path id="bfd79e28-f9d2-4622-a847-8667ee5a206f" data-name="Path 1656" class="eb1ea41b-c5d6-4c8e-b2d3-cab3f5b172d6" d="M534,511.7s-33.23,6.13-36.79,5-21.88.1-21.88.1c-8.23,5.93-4.79-2.82-4.79-2.82a22.56,22.56,0,0,1,.27-8.27,55,55,0,0,0,1.35-8.27,20.34,20.34,0,0,1,.81-7.19,59.76,59.76,0,0,0,2.17-11.09s.91-6.61.81-8.08.27-5.54.27-5.54l1.17-6.82c-6.77-1-27.43-14.59-27.43-14.59-1-4.58-8.69-15.27-8.69-15.27a11.86,11.86,0,0,0-.63-2.63c-.54-1.55,7.6-4.66,7.6-4.66s6.07,8,7.33,10.11a43.47,43.47,0,0,0,5.61,6.13,4,4,0,0,1,2,.27h.1a15.59,15.59,0,0,1,4,2.5,7.54,7.54,0,0,1,5.53,2.23s3.71-.58,4.34.1,3.77,0,3.77,0,3.18-7.19,5.27-5.12,10.92,2,10.92,2a12.8,12.8,0,0,1,5.84-3.5,7.24,7.24,0,0,1,4.71-.08,5.56,5.56,0,0,1,1.87,1l5.36,5.65s1.5-2.14,1.36-2.63,1.81-.87,1.81-.87,2.63-.87,3.62-1.17,1.92.87,2,1a12.09,12.09,0,0,1-.45-4.27,5.12,5.12,0,0,0-1.08-3.51c3.2-8.31,10.35-1.27,10.35-1.27a17.21,17.21,0,0,1,.09,6.32c-.72,1.75.75,5.45.54,6.42s.36,2.63.36,4.47a28.15,28.15,0,0,1-1.44,6.91c-.54,1.56-4.89,5-4.89,5A23.31,23.31,0,0,1,525,468c-1.9,3.21-.75,14.2-.75,14.2s1.8,8.56,4.07,11.31S534,511.7,534,511.7Z"/><path id="b3c64a4b-c92c-4942-b8b9-bb6938210c50" data-name="Path 1657" class="af9c6aed-a78a-42ee-9738-26bb0d99e1b0" d="M485.59,447.73s-1-3.23-1.91-3.5a18.54,18.54,0,0,1-2.62-1.26l.59-1.19s3.4,1,3.94,2.07A9.39,9.39,0,0,1,485.59,447.73Z"/><path id="aa159a51-8bdc-47e5-a178-8a10bff267a7" data-name="Path 1658" class="af9c6aed-a78a-42ee-9738-26bb0d99e1b0" d="M467.42,440.63c-.18,1-8.23,1.85-8.23,1.85l4.07-4.39h0l.11,0h0A16,16,0,0,1,467.42,440.63Z"/><ellipse id="aa77e8ef-cb62-4eea-8c58-8c846d2bdf9a" data-name="Ellipse 688" class="bc8ca291-6dbe-4118-8041-8b8a3bd88648" cx="444.08" cy="427.28" rx="0.72" ry="0.78"/><ellipse id="b22d7e82-2cae-47e8-bf89-a9760a46977c" data-name="Ellipse 689" class="bc8ca291-6dbe-4118-8041-8b8a3bd88648" cx="445.01" cy="428.84" rx="0.72" ry="0.78"/><ellipse id="f18408c1-a98d-48c0-817e-ff99c48a2e21" data-name="Ellipse 690" class="bc8ca291-6dbe-4118-8041-8b8a3bd88648" cx="445.92" cy="430.27" rx="0.72" ry="0.78"/><ellipse id="f2b45ae4-59ed-4f5b-96d7-876b76fb763a" data-name="Ellipse 691" class="bc8ca291-6dbe-4118-8041-8b8a3bd88648" cx="446.86" cy="431.83" rx="0.72" ry="0.78"/><ellipse id="bde43d1d-2637-4217-b85e-8935bc32c73d" data-name="Ellipse 692" class="bc8ca291-6dbe-4118-8041-8b8a3bd88648" cx="532.2" cy="431.74" rx="0.59" ry="0.63"/><ellipse id="ff4722a6-e70b-47e4-9cd5-b9f04f532c92" data-name="Ellipse 693" class="bc8ca291-6dbe-4118-8041-8b8a3bd88648" cx="532.29" cy="433.18" rx="0.59" ry="0.63"/><ellipse id="a4f147f8-e0d8-4df7-995b-a5c80e6b290b" data-name="Ellipse 694" class="bc8ca291-6dbe-4118-8041-8b8a3bd88648" cx="532.37" cy="434.61" rx="0.59" ry="0.63"/><path id="a64865fb-7d3f-44aa-b4e6-94e90414b462" data-name="Path 1659" class="af9c6aed-a78a-42ee-9738-26bb0d99e1b0" d="M485.63,474.09c-.08-.12,20.32,27.57,36.17,11.58C521.8,485.66,496.76,489.31,485.63,474.09Z"/><path id="b6f2a48c-80d9-4c93-8abb-ddf020bc3d9c" data-name="Path 1660" class="af9c6aed-a78a-42ee-9738-26bb0d99e1b0" d="M473.91,488.49s12.22.35,13.49,4.13v3.93a2.21,2.21,0,0,1-2.25,0c-1.24-.71-8.62-4.75-11.22-2.81Z"/><path id="b70a03d6-4c9f-494b-9c5a-510f78d76470" data-name="Path 1661" class="eb1ea41b-c5d6-4c8e-b2d3-cab3f5b172d6" d="M474.14,488.49s11.68.33,12.9,3.93v3.75a2.11,2.11,0,0,1-2.17,0c-1.19-.68-8.28-4.52-10.74-2.67Z"/><path id="a6b8925d-eae6-4538-815f-f9d6b9640dab" data-name="Path 1662" class="af9c6aed-a78a-42ee-9738-26bb0d99e1b0" d="M480.58,460a43,43,0,0,0,4.73,8.72,32.89,32.89,0,0,0,7.42,7.7S480.78,461.8,480.58,460Z"/><path id="e03e6ace-b194-4854-a6b4-af27c2f2c5ef" data-name="Path 1663" class="af9c6aed-a78a-42ee-9738-26bb0d99e1b0" d="M476.58,444.75s2,9.45,7.29,12.66Z"/><path id="fc9fbe30-6cfc-4b1e-a100-7d7539c58a1a" data-name="Path 1664" class="af9c6aed-a78a-42ee-9738-26bb0d99e1b0" d="M473.44,445.71c-.05-.18-1.82,7.47,6.77,11.7C480.21,457.41,476.58,456.09,473.44,445.71Z"/><path id="ae8c684e-b03c-484b-afb1-e38398e58c70" data-name="Path 1665" class="af9c6aed-a78a-42ee-9738-26bb0d99e1b0" d="M526.78,439.37a59.85,59.85,0,0,1,5.42,4.37S529.36,439.17,526.78,439.37Z"/><path id="a173e2b5-7b91-45e6-809b-ea1f76b36773" data-name="Path 1666" class="a72a6f0a-a4db-4cc5-9c4b-26e33e2d6c33" d="M499.16,432.83a2.46,2.46,0,0,0,.83,1.57,2.14,2.14,0,0,0,1,.25,20.58,20.58,0,0,0,9.78-1,3.62,3.62,0,0,0,1.5-1.06,6.57,6.57,0,0,0,.81-2.55,41,41,0,0,1,2-4.91,17.52,17.52,0,0,0,1.06-8.83,6.22,6.22,0,0,0-.8-2.59c-.87-1.34-2.46-1.88-3.61-2.94s-1.89-2.69-3.24-3.5a5.81,5.81,0,0,0-4.06-.38,20.4,20.4,0,0,0-7.58,3.06,3.62,3.62,0,0,1-2.54.93,3.53,3.53,0,0,1-1.86-1.54,11.43,11.43,0,0,0-.81,5,1.57,1.57,0,0,1-.5,1.57,3.09,3.09,0,0,0-.52,3.63c.35.44.89.68,1.22,1.14a4.84,4.84,0,0,1,.39,3,1.69,1.69,0,0,0,.24,1,1.33,1.33,0,0,0,1.35.34,3.2,3.2,0,0,1,1.41-.14,2.4,2.4,0,0,1,1.23,1A19.26,19.26,0,0,1,499.16,432.83Z"/><g id="b9d79b5e-95aa-47f9-8f3d-c38df5e96e4d" data-name="Group 463" class="fa37c9ed-4e59-4877-abe3-e1efb9b74e86"><path id="ebab1342-02cc-47b4-8bc8-7c10a96de167" data-name="Path 1667" d="M512.56,431.71a3.51,3.51,0,0,1-1.5,1.05,20.29,20.29,0,0,1-9.74,1,2.05,2.05,0,0,1-1-.25,2.47,2.47,0,0,1-.84-1.55,18.67,18.67,0,0,0-2.75-6.85,2.38,2.38,0,0,0-1.23-1,3.42,3.42,0,0,0-1.42.15,1.34,1.34,0,0,1-1.33-.34,1.69,1.69,0,0,1-.23-1,5,5,0,0,0-.39-3c-.34-.45-.87-.7-1.23-1.14a2.42,2.42,0,0,1-.2-2.33,2.82,2.82,0,0,0-.16,3.1c.35.45.89.69,1.23,1.14a5,5,0,0,1,.38,3,1.66,1.66,0,0,0,.24,1,1.34,1.34,0,0,0,1.33.34,3.39,3.39,0,0,1,1.41-.15,2.4,2.4,0,0,1,1.24,1,19.1,19.1,0,0,1,2.75,6.85,2.48,2.48,0,0,0,.83,1.57,2.25,2.25,0,0,0,1,.24,20.58,20.58,0,0,0,9.78-1,3.62,3.62,0,0,0,1.5-1.06,3,3,0,0,0,.47-.94A.39.39,0,0,1,512.56,431.71Z"/></g><path id="bfc4a04c-7eac-4092-a07c-a7372c759f44" data-name="Path 1668" class="af9c6aed-a78a-42ee-9738-26bb0d99e1b0" d="M497.23,439.85s13.47,1.92,14.67-.27"/><path id="bfca17df-577a-41ec-b648-f9624ba5fb01" data-name="Path 1669" class="af9c6aed-a78a-42ee-9738-26bb0d99e1b0" d="M523.4,433.87s7.47,0,9.12,3"/></g></g></g></svg>