<svg xmlns="http://www.w3.org/2000/svg" viewBox="0 0 829.79 630.19"><defs><style>.a2ce653a-3dfb-4a8c-841a-b42976d23ae6{fill:#f2f2f2;}.e7075d18-6ccc-422b-8420-74ae6d1fd325{opacity:0.1;}.b9086b82-7ab1-419c-886e-3d6cf5817b22,.e7075d18-6ccc-422b-8420-74ae6d1fd325{isolation:isolate;}.f874872f-d573-4c25-81b3-faaaa6e16be4{fill:#3f3d56;}.fe97d2b3-70f5-4777-99f0-83deab0f77aa{fill:#6c63ff;}.bc14cafd-65e7-4a62-9349-c8a6956d6b11{fill:#a8a8a8;}.b9086b82-7ab1-419c-886e-3d6cf5817b22{opacity:0.2;}.b9826f30-e6ea-4795-bc18-fabf0e5c1824{fill:#ffb9b9;}.eb6fb26c-a35e-4e93-a7a9-f5cb273181f6{fill:#d0cde1;}.ed53de7e-982a-4df4-8aa1-411c5e4336ca{fill:#2f2e41;}.f0b91213-3f5b-4f19-8bb9-c78c51a2d171{fill:#a0616a;}.a5edaca6-ea50-4a0f-953b-210371c018a1{fill:#575a89;}</style></defs><g id="b65b6a4f-1457-4a0f-810b-831aa72826ed" data-name="Layer 2"><g id="b4b178e6-2633-4303-a9a1-4a77b3ae5c50" data-name="Layer 1"><path id="b440d312-a388-45b4-9f33-96b532643cdc" data-name="Path 1207" class="a2ce653a-3dfb-4a8c-841a-b42976d23ae6" d="M713.1,251.2C676.63,107.79,550.61,4.27,402.69.13c-78.21-2.2-160.5,23.74-220.41,114.5C75.18,276.87,188.86,389,268.12,442.26a496.17,496.17,0,0,1,102.51,92.13c53.53,63.53,156.52,142.47,279.17,18.78C738.71,463.5,737.39,346.73,713.1,251.2Z"/><path id="f20ad2c1-e110-4d87-97b2-b79d542bbe38" data-name="Path 1208" class="e7075d18-6ccc-422b-8420-74ae6d1fd325" d="M548.83,387l75-74.81-75-74.82,22.88-22.81,97.93,97.63-97.93,97.62Z"/><path id="abf86541-6eb4-4da9-b128-6118ab86b223" data-name="Path 1209" class="e7075d18-6ccc-422b-8420-74ae6d1fd325" d="M334.51,317.49H365V287H334.51ZM487.66,287H457.15v30.51h30.51Zm-91.84,30.51h30.53V287H395.83Z"/><path id="bec68dab-7cbb-4d14-875c-21f2ae4c1177" data-name="Path 1210" class="e7075d18-6ccc-422b-8420-74ae6d1fd325" d="M293.17,386.2l-75.12-74.81,75.05-74.82-22.89-22.81-97.84,97.62L270.3,409Z"/><path id="b33ad84f-ce2b-4571-87e6-ce2913c30350" data-name="Path 1211" class="f874872f-d573-4c25-81b3-faaaa6e16be4" d="M829.79,573.75c0,12.64-185.75,56.44-414.89,56.44S0,586.38,0,573.75s185.75,10.68,414.9,10.68S829.79,561.11,829.79,573.75Z"/><path id="aedc8dcb-87bc-49eb-b807-469666982102" data-name="Path 1212" class="e7075d18-6ccc-422b-8420-74ae6d1fd325" d="M829.79,573.75c0,12.64-185.75,56.44-414.89,56.44S0,586.38,0,573.75s185.75,10.68,414.9,10.68S829.79,561.11,829.79,573.75Z"/><ellipse id="bb323b9f-5b10-42cd-8c46-38cc8f0b37f7" data-name="Ellipse 627" class="f874872f-d573-4c25-81b3-faaaa6e16be4" cx="414.9" cy="573.75" rx="414.9" ry="22.88"/><path id="b13f0c8d-3559-4ed5-b1e4-36e0004d53e6" data-name="Path 1213" class="f874872f-d573-4c25-81b3-faaaa6e16be4" d="M482.56,463.66c0,48.83,30.63,88.33,68.48,88.33"/><path id="fd271de6-be6e-4e87-9cc5-187c7c016e15" data-name="Path 1214" class="fe97d2b3-70f5-4777-99f0-83deab0f77aa" d="M551,552c0-49.37,34.17-89.32,76.42-89.32"/><path id="fbc93528-f5cc-43e2-86d6-cf53ccab99ba" data-name="Path 1215" class="fe97d2b3-70f5-4777-99f0-83deab0f77aa" d="M507.36,468.09c0,46.36,19.53,83.9,43.67,83.9"/><path id="f737046a-3d81-4369-a223-7507a8dd6d09" data-name="Path 1216" class="f874872f-d573-4c25-81b3-faaaa6e16be4" d="M551,552c0-63.08,39.5-114.12,88.33-114.12"/><path id="b3326a5e-3612-4e23-9c35-80a56ad80f91" data-name="Path 1217" class="bc14cafd-65e7-4a62-9349-c8a6956d6b11" d="M536.63,552.61s9.71-.29,12.64-2.37,14.94-4.58,15.66-1.23,14.6,16.62,3.63,16.71-25.47-1.7-28.39-3.48S536.63,552.61,536.63,552.61Z"/><path id="ab1c1fcc-57f5-4bd5-ad62-4034f7bfa47d" data-name="Path 1218" class="b9086b82-7ab1-419c-886e-3d6cf5817b22" d="M568.75,564.55c-11,.09-25.48-1.71-28.4-3.49-2.22-1.35-3.11-6.21-3.4-8.46h-.33s.62,7.84,3.54,9.61,17.43,3.57,28.4,3.49c3.16,0,4.26-1.15,4.19-2.82C572.31,563.9,571.1,564.53,568.75,564.55Z"/><path id="a349c935-6b86-43b4-8734-173b1538ecb4" data-name="Path 1219" class="b9826f30-e6ea-4795-bc18-fabf0e5c1824" d="M660.13,292s-23.48-17.83-25.27-11.29,17.24,21.4,17.24,21.4Z"/><path id="bd850cf3-5bd9-48a4-895f-ec371e670da8" data-name="Path 1220" class="e7075d18-6ccc-422b-8420-74ae6d1fd325" d="M660.13,292s-23.48-17.83-25.27-11.29,17.24,21.4,17.24,21.4Z"/><path id="a0a0ba87-aae2-4309-ba4a-2450596b8866" data-name="Path 1221" class="eb6fb26c-a35e-4e93-a7a9-f5cb273181f6" d="M737.65,235.55s-27.94,49.9-28.54,57-.59,7.73-3,7.14-35-4.16-38-3-8.92-7.14-8.92-7.14-11.29,11.3-8.91,13.67,9.51,3.57,10.7,6.54a7.13,7.13,0,0,0,8.32,5.35c5.35-.59,41.58,9.51,46.34,7.73s5.94-4.76,8.32-4.76a13.3,13.3,0,0,0,7.13-3c0-.59,16.65-32.08,16.65-32.08S767.35,240.29,737.65,235.55Z"/><path id="b8ea472f-d74c-4fc5-821d-a7b853c2bf3d" data-name="Path 1222" class="e7075d18-6ccc-422b-8420-74ae6d1fd325" d="M737.65,235.55s-27.94,49.9-28.54,57-.59,7.73-3,7.14-35-4.16-38-3-8.92-7.14-8.92-7.14-11.29,11.3-8.91,13.67,9.51,3.57,10.7,6.54a7.13,7.13,0,0,0,8.32,5.35c5.35-.59,41.58,9.51,46.34,7.73s5.94-4.76,8.32-4.76a13.3,13.3,0,0,0,7.13-3c0-.59,16.65-32.08,16.65-32.08S767.35,240.29,737.65,235.55Z"/><path id="b9c21d31-1d93-4365-b20a-dd49a9db461b" data-name="Path 1223" class="ed53de7e-982a-4df4-8aa1-411c5e4336ca" d="M697.13,202.63a49.93,49.93,0,0,0,.15,9.47c.89,6.84,4.05,14,1.08,20.32-1.08,2.31-2.9,4.33-3.89,6.67-2.11,4.95-.2,10.45-.49,15.72a21.62,21.62,0,0,1-11.29,17.11,39.23,39.23,0,0,0,29-12.8,67.14,67.14,0,0,0,14-26.41,57.74,57.74,0,0,0,2.9-13.67,19.73,19.73,0,0,0-.92-7.93,30.08,30.08,0,0,0-4.07-7,27.47,27.47,0,0,0-6.22-6.9A25,25,0,0,0,703.71,193C698.46,193.42,697.35,199,697.13,202.63Z"/><path id="f210bac4-d33e-4c9a-980e-734c49f8387a" data-name="Path 1224" class="b9826f30-e6ea-4795-bc18-fabf0e5c1824" d="M714.47,221.28S721,244.46,715.66,251s32.09-3,32.09-3-18.43-18.42-9.52-30.31Z"/><path id="a9b0f1d7-4d9c-4794-b30f-2f31baf66b7d" data-name="Path 1225" class="e7075d18-6ccc-422b-8420-74ae6d1fd325" d="M714.47,221.28S721,244.46,715.66,251s32.09-3,32.09-3-18.43-18.42-9.52-30.31Z"/><path id="ade44363-a5e9-4f7b-83a4-888ea05a2fdf" data-name="Path 1226" class="fe97d2b3-70f5-4777-99f0-83deab0f77aa" d="M548.83,372.47l75-74.82-75-74.81L571.71,200l97.93,97.62-97.93,97.63Z"/><path id="b3af816c-1c31-4e9d-b6ca-d9bc342bbb33" data-name="Path 1227" class="b9826f30-e6ea-4795-bc18-fabf0e5c1824" d="M693.08,530.22v17.24l8.92,10.7,7.73-3.57-2.38-25Z"/><path id="aaa6f52d-1579-4070-8259-2d3987402d78" data-name="Path 1228" class="ed53de7e-982a-4df4-8aa1-411c5e4336ca" d="M696.65,546.26s-2.38-8.32-6.54-2.38-8.32,19-10.7,19.62-19,19-2.38,19,22-7.73,22-7.73,16.64-6.54,16.64-7.73-2.38-23.18-3.57-23.18-1.78,4.16-4.75,4.16A76.07,76.07,0,0,1,696.65,546.26Z"/><path id="aec0754c-4260-4410-abcd-464db72b8c31" data-name="Path 1229" class="b9826f30-e6ea-4795-bc18-fabf0e5c1824" d="M732.89,533.19l-.59,16,14.26,5.94V532Z"/><path id="ece05724-ac51-43bc-a197-43138e613ffc" data-name="Path 1230" class="ed53de7e-982a-4df4-8aa1-411c5e4336ca" d="M748.34,549.23s-7.73-8.32-11.89-6.54a41.33,41.33,0,0,0-6,3s-2.37,7.72-3.56,14.26a47.33,47.33,0,0,1-3,11.89c-1.19,2.38-2.38,11.29,9.51,12.48S748.93,579,748.93,579l3-15.45S750.71,549.23,748.34,549.23Z"/><path id="b40d0a80-b8eb-4a23-a9e6-26637427d396" data-name="Path 1231" class="ed53de7e-982a-4df4-8aa1-411c5e4336ca" d="M700.81,362.08S683.57,400.7,686,435.75c0,0-5.94,13.67-2.38,35.06S691.89,535,691.89,535s16.05,1.79,17.24-1.19c0,0,1.19-29.72,2.38-30.91s-.59-28.53-2.38-33.86,16.65-58.22,16.65-58.22l-4.76-66Z"/><path id="e9f71570-d824-47db-8073-9b882549fe34" data-name="Path 1232" class="e7075d18-6ccc-422b-8420-74ae6d1fd325" d="M700.81,362.08S683.57,400.7,686,435.75c0,0-5.94,13.67-2.38,35.06S691.89,535,691.89,535s16.05,1.79,17.24-1.19c0,0,1.19-29.72,2.38-30.91s-.59-28.53-2.38-33.86,16.65-58.22,16.65-58.22l-4.76-66Z"/><path id="a80859b9-13ad-44c9-9844-34788a577e12" data-name="Path 1233" class="ed53de7e-982a-4df4-8aa1-411c5e4336ca" d="M696.06,359.71l11.29,24.37s5.35,55.25,8.32,62.38c0,0,1.19,20.21,6.54,26.75s9.51,64.16,9.51,64.16,14.86,4.16,16,0,4.75-32.68,4.75-32.68,1.19-24.37-5.35-40.4,7.73-73.67,7.73-73.67,14.86-27.93-6.54-50.5Z"/><circle id="fd29b6f1-31b4-4595-b7b5-40d019bf2127" data-name="Ellipse 628" class="b9826f30-e6ea-4795-bc18-fabf0e5c1824" cx="727.54" cy="204.05" r="24.36"/><path id="a3c2fd14-d13a-4376-b4ab-bafa2db715fa" data-name="Path 1234" class="eb6fb26c-a35e-4e93-a7a9-f5cb273181f6" d="M750.12,240.88s-25.56,0-29.13,3a4.74,4.74,0,0,1-6.53,0s-8.92.6-11.3,7.73a76.24,76.24,0,0,1-9.51,16.64S683,276,688.9,296.16,690.08,349,690.08,349s-4.75,7.13,0,10.1,6.54,4.16,5.95,6.54,54.07-19.62,54.07-23.78-1.19-7.72,0-9.51a8.5,8.5,0,0,0,1.19-7.73c-1.19-3,1.18-3.56.59-6.53s3-25,5.35-34.46S759,241.47,750.12,240.88Z"/><path id="a0f0117b-f61c-4345-a1e1-248365cd7a68" data-name="Path 1235" class="b9826f30-e6ea-4795-bc18-fabf0e5c1824" d="M660.13,299.11s-23.48-17.83-25.27-11.29,17.24,21.4,17.24,21.4Z"/><path id="a7a56f83-bc52-4d41-88ec-00b047978ae8" data-name="Path 1236" class="eb6fb26c-a35e-4e93-a7a9-f5cb273181f6" d="M737.65,243.85s-27.94,49.91-28.54,57-.59,7.72-3,7.13-35-4.16-38-3-8.92-7.14-8.92-7.14-11.29,11.3-8.91,13.67,9.51,3.57,10.7,6.54a7.12,7.12,0,0,0,8.32,5.35c5.35-.59,41.58,9.51,46.34,7.73s5.94-4.76,8.32-4.76a13.3,13.3,0,0,0,7.13-3c0-.59,16.65-32.08,16.65-32.08S767.35,248.6,737.65,243.85Z"/><path id="e5e3bf4e-9b88-4aa5-9408-428683df14c8" data-name="Path 1237" class="ed53de7e-982a-4df4-8aa1-411c5e4336ca" d="M715.48,219.61a60.44,60.44,0,0,0-2.2-7,14.39,14.39,0,0,1,1.64-11.2c3.49-5.65,10.35-8.15,15.14-12.75a8.56,8.56,0,0,0,3.52,5.85,43.79,43.79,0,0,1,5.38,4.52,17.56,17.56,0,0,1,3.13,6.35,22.2,22.2,0,0,1,1.24,8.32,10.43,10.43,0,0,1-3.61,7.4c-1.78,1.41-4.27,2.21-5.13,4.31a7.27,7.27,0,0,0-.3,3.27,65.48,65.48,0,0,1-.75,19.56,22.46,22.46,0,0,1-11.22,15.34,45.15,45.15,0,0,0,14.53-.55,15.25,15.25,0,0,0,10.84-8.91,47,47,0,0,1,2-6.9c2.88-5.35,10.84-5.6,14.75-10.26a15.65,15.65,0,0,0,2.88-6.63,73.14,73.14,0,0,0-4-42.12,30.17,30.17,0,0,0-7.6-12.52,31.33,31.33,0,0,0-11.19-5.59,65.64,65.64,0,0,0-18-3.65,22.82,22.82,0,0,0-7.88.92,23.37,23.37,0,0,0-6.93,4,37.84,37.84,0,0,0-15.26,31.52,44.2,44.2,0,0,0,7.62,20.46c1.4,2.16,4.7,6.77,7.77,5.41C714.66,227.52,715.85,222.22,715.48,219.61Z"/><path id="ee1ba002-f573-41d2-baf2-52ee1bc1fe12" data-name="Path 1238" class="fe97d2b3-70f5-4777-99f0-83deab0f77aa" d="M334.51,303H365V272.49H334.51Zm153.15-30.51H457.15V303h30.51ZM395.82,303h30.53V272.49H395.83Z"/><ellipse id="b2b1e5e3-a7c8-4c98-b0c0-ca547a287374" data-name="Ellipse 629" class="ed53de7e-982a-4df4-8aa1-411c5e4336ca" cx="157.27" cy="161.55" rx="25.67" ry="20.02"/><path id="b65961bc-d3de-4181-b8fb-f8c6eab3b0b5" data-name="Path 1239" class="f0b91213-3f5b-4f19-8bb9-c78c51a2d171" d="M161.63,299.4s23.11,1.54,27.21-1.54,21.57,4.1,23.11,8.21-24.65,4.62-28.75,4.62-23.62,6.16-23.62,6.16Z"/><path id="f521c31b-4159-4a04-8314-9ec585811205" data-name="Path 1240" class="ed53de7e-982a-4df4-8aa1-411c5e4336ca" d="M114.06,538.54s-10.77,27.15-5.15,30.43,64.6.94,64.6.94,9.83-6.09-1.4-10.3a38.64,38.64,0,0,1-15.46-4.21,90.19,90.19,0,0,1-13.1-10.77s-.47-10.3-4.22-8a9.63,9.63,0,0,0-4.21,6.55Z"/><path id="a8de72f6-93d3-4f9d-b833-6de4fca91ba8" data-name="Path 1241" class="e7075d18-6ccc-422b-8420-74ae6d1fd325" d="M114.06,538.54s-10.77,27.15-5.15,30.43,64.6.94,64.6.94,9.83-6.09-1.4-10.3a38.64,38.64,0,0,1-15.46-4.21,90.19,90.19,0,0,1-13.1-10.77s-.47-10.3-4.22-8a9.63,9.63,0,0,0-4.21,6.55Z"/><path id="b25aa722-f65b-4ff5-8945-30d07f3aa680" data-name="Path 1242" class="fe97d2b3-70f5-4777-99f0-83deab0f77aa" d="M293.17,371.72,218.05,296.9l75.05-74.82-22.89-22.81-97.84,97.62,97.93,97.63Z"/><path id="f5fbc420-91e5-43cb-83a4-92cf729741a8" data-name="Path 1243" class="ed53de7e-982a-4df4-8aa1-411c5e4336ca" d="M97.46,546.85s-11.81,29.78-5.65,33.37,70.85,1,70.85,1,10.78-6.67-1.54-11.29a42.29,42.29,0,0,1-16.94-4.63,98,98,0,0,1-14.38-11.8s-.51-11.3-4.62-8.73a10.54,10.54,0,0,0-4.62,7.18Z"/><path id="ab133327-a181-4939-84d3-bef49adca49e" data-name="Path 1244" class="ed53de7e-982a-4df4-8aa1-411c5e4336ca" d="M158,357.92l-7.19,64.69s-2.57,30.8-10.27,37.48c0,0,0,9.75-2.56,12.83l-3.6,40.57s5.14,14.88,4.62,17.45,2.06,10.78,1.54,11.81-24.64,0-24.64,0l5.13-82.66,15.92-115Z"/><path id="b3ccc248-3ad7-4ea4-81b0-dfafef29e6c7" data-name="Path 1245" class="e7075d18-6ccc-422b-8420-74ae6d1fd325" d="M158,357.92l-7.19,64.69s-2.57,30.8-10.27,37.48c0,0,0,9.75-2.56,12.83l-3.6,40.57s5.14,14.88,4.62,17.45,2.06,10.78,1.54,11.81-24.64,0-24.64,0l5.13-82.66,15.92-115Z"/><path id="b7a04ccf-b8d3-4d19-8208-def4da7987d5" data-name="Path 1246" class="ed53de7e-982a-4df4-8aa1-411c5e4336ca" d="M145.21,355.87S139.56,408.75,137,420a147,147,0,0,0-3.08,22.59s-.51,16.43-5.13,21.05A13.89,13.89,0,0,0,124.67,474s-4.62,51.85-2,58,5.13,11.3,2.57,15.4-30.81,4.11-30.81,1,0-5.65-1.54-7.19,0-11.29,0-11.29-6.16-45.69-.51-59,8.21-49.8,8.21-49.8-4.1-41.59-9.24-48.26,1-30.29,1-30.29Z"/><path id="b22cf938-6042-4a6b-a6e7-4dfe26ccf251" data-name="Path 1247" class="f0b91213-3f5b-4f19-8bb9-c78c51a2d171" d="M130.75,191.66a6.88,6.88,0,0,0,3.33,2.83,99,99,0,0,1,20.06,16.13,23.54,23.54,0,0,1,.94-15.93,8.24,8.24,0,0,0,1.18-5.35,6.71,6.71,0,0,0-2.6-3.12,80.48,80.48,0,0,0-7.94-5.41c-1.92-1.15-5.87-4.22-8.08-3.87a20.57,20.57,0,0,1-1.48,8.43C135.85,186,131,192.18,130.75,191.66Z"/><circle id="fbf2f257-65db-4789-a642-53fbd0d6fed2" data-name="Ellipse 630" class="f0b91213-3f5b-4f19-8bb9-c78c51a2d171" cx="157.01" cy="177.21" r="21.05"/><path id="a5684ef4-cfbd-434f-ab9e-85119a0087cf" data-name="Path 1248" class="a5edaca6-ea50-4a0f-953b-210371c018a1" d="M158,227s3.59-18-6.68-24.13-22.07-13.35-22.07-13.35-3.6-.51-5.14,7.19c0,0-29.26,5.65-32.34,33.37s2,68.28,2,68.28-4.62,35.42-10.27,54.42c0,0-4.62,4.1,15.92-2.06S156,368.19,156,368.19s3.59-3.6,3.59-6.16,4.11-17.46,4.11-17.46,3.59-63.15,5.13-70.33S162.66,228,158,227Z"/><path id="b00cb129-d08a-4ec1-b906-f2b063f2f718" data-name="Path 1249" class="ed53de7e-982a-4df4-8aa1-411c5e4336ca" d="M152.05,179.39a8.82,8.82,0,0,1,4.13-1.1,7.76,7.76,0,0,0,4.08-1.22c2-1.52,2.14-4.47,3.59-6.51,2.11-3,6.31-3.32,9.94-3.17a11,11,0,0,0,6.47-1,9.71,9.71,0,0,0,3.43-5.74,7.77,7.77,0,0,0-.63-7.66c-1.32-1.33-3.39-1.6-4.86-2.76a12.79,12.79,0,0,1-3-4.95,13.37,13.37,0,0,0-4.3-5.38,16.45,16.45,0,0,0-9.63-2.31,75.05,75.05,0,0,1-10.06.06,31.29,31.29,0,0,0-8.18-.84,11.69,11.69,0,0,0-8,6.19,34.35,34.35,0,0,0-3.15,10l-1.94,9.34a24.81,24.81,0,0,0-.74,8.79c1,6.05,6.32,10.86,6.69,17a10.41,10.41,0,0,1,6.36-7.57,2,2,0,0,1,1.29-.16c.54.17.85.7,1.19,1.15.9,1.17,3.64,2.94,5.21,2.11C151.34,182.9,150.29,180.58,152.05,179.39Z"/><path id="af6e16d8-99ec-422d-9758-22df3be7dccd" data-name="Path 1250" class="f0b91213-3f5b-4f19-8bb9-c78c51a2d171" d="M99,275.27s-3.59,22.58,11.29,20.53c0,0,7.7-1,8.73,0s39-5.64,44.15-11.29c0,0,6.17-2.05,9.24,1s33.89,6.16,24.65-3.08-23.62-11.3-23.62-11.3l-19.51,1s-10.26,3.08-16.43,0-23.61-2.05-23.61-2.05Z"/><path id="af45cfc7-8d48-4237-9f54-860459fc90b4" data-name="Path 1251" class="a5edaca6-ea50-4a0f-953b-210371c018a1" d="M120.05,203.91S97,206.48,97,239.85v42.61s12.83-5.65,15.4-5.14,12.83-6.67,12.83-6.67S137,242.92,136,235.22,135.45,204.93,120.05,203.91Z"/><ellipse id="e65e23ef-40bd-4488-9106-0ad40bd591e2" data-name="Ellipse 631" class="ed53de7e-982a-4df4-8aa1-411c5e4336ca" cx="157.01" cy="164.12" rx="19.76" ry="10.27"/><ellipse id="b7ba6b95-5da4-415e-b401-74b42890ed55" data-name="Ellipse 632" class="ed53de7e-982a-4df4-8aa1-411c5e4336ca" cx="138.53" cy="165.92" rx="6.93" ry="17.2"/></g></g></svg>