<svg xmlns="http://www.w3.org/2000/svg" viewBox="0 0 105.2 105.2"><defs><style>.a1a0998d-d68d-4994-b574-8fc3f0647342{fill:#455a64;}.e6cdf21f-aa56-4cb3-874f-b051b46b3c24{fill:#fff;}</style></defs><g id="ac5f820f-f9cf-46eb-97d3-0c6403874dd5" data-name="Layer 2"><g id="fe36a055-e4aa-4f09-8279-2b51da22e52a" data-name="Layer 1"><g id="e07b2fd8-ec64-45a3-867c-f4e46f90cf59" data-name="phone web"><g id="e20df443-aca7-48f7-b0f4-da40ec705943" data-name="Group 432"><g id="b9ae6432-4538-4346-bb9a-eedc76b7ff1f" data-name="Icons"><g id="e9b334fb-781c-43b3-b6a6-11a72a4f903f" data-name="Group 430"><path id="ba91e48a-9eaf-47ae-acfd-49a4375201cd" data-name="Path 1200" class="a1a0998d-d68d-4994-b574-8fc3f0647342" d="M64.79,103.76h0a52.59,52.59,0,0,1-63.35-39h0a52.59,52.59,0,0,1,39-63.35h0a52.59,52.59,0,0,1,63.35,39h0a52.59,52.59,0,0,1-39,63.35Z"/><g id="b905a726-f3e7-44ac-80f5-40387917a425" data-name="Group 429"><path id="f2ea79b2-557c-4f42-88d5-00d497e0346b" data-name="Path 1201" class="e6cdf21f-aa56-4cb3-874f-b051b46b3c24" d="M47.12,29.6c7.49-1.78,8.38-2,11.37-2.53a16.06,16.06,0,0,1,5.44-.28,9.54,9.54,0,0,1,6.59,4.06,15.91,15.91,0,0,1,2.21,5c.84,2.92,1.08,3.8,2.86,11.3s2,8.38,2.54,11.37a16,16,0,0,1,.28,5.44,9.56,9.56,0,0,1-4.06,6.59,16.14,16.14,0,0,1-5,2.21c-2.92.84-3.8,1.08-11.3,2.86s-8.38,2-11.37,2.54a16,16,0,0,1-5.44.27,9.55,9.55,0,0,1-6.59-4,16,16,0,0,1-2.21-5c-.84-2.93-1.08-3.81-2.86-11.3s-2-8.38-2.54-11.37a16.06,16.06,0,0,1-.27-5.44,9.53,9.53,0,0,1,4.05-6.59,15.79,15.79,0,0,1,5-2.21c2.93-.84,3.81-1.08,11.3-2.87m-1.2-5.05c-7.62,1.82-8.57,2.08-11.52,2.92a21,21,0,0,0-6.5,2.93,14.66,14.66,0,0,0-6.25,10.16A21.3,21.3,0,0,0,22,47.68c.58,3,.78,4,2.59,11.6s2.07,8.56,2.92,11.52a21,21,0,0,0,2.93,6.5,14.73,14.73,0,0,0,10.16,6.25,21,21,0,0,0,7.12-.32c3-.57,4-.77,11.6-2.58s8.56-2.08,11.52-2.93a21.17,21.17,0,0,0,6.5-2.92,14.73,14.73,0,0,0,6.25-10.15,21.29,21.29,0,0,0-.31-7.12c-.58-3-.78-4-2.59-11.6s-2.08-8.57-2.92-11.53a21.3,21.3,0,0,0-2.93-6.5,14.73,14.73,0,0,0-10.16-6.25,21.3,21.3,0,0,0-7.12.32c-3,.58-4,.77-11.6,2.59"/><path id="a0458263-cd08-48c9-8dd6-6130cd59b3b8" data-name="Path 1202" class="e6cdf21f-aa56-4cb3-874f-b051b46b3c24" d="M49.17,38.2A14.8,14.8,0,1,0,67,49.17a14.79,14.79,0,0,0-17.83-11h0M54.83,62A9.61,9.61,0,1,1,62,50.37,9.61,9.61,0,0,1,54.83,62h0"/><path id="f6df4f51-fa4f-4f02-8e06-f3613e64ea8f" data-name="Path 1203" class="e6cdf21f-aa56-4cb3-874f-b051b46b3c24" d="M67.37,33.26a3.46,3.46,0,1,1-4.17-2.57h0a3.47,3.47,0,0,1,4.17,2.57"/></g></g></g></g></g></g></g></svg>