<svg xmlns="http://www.w3.org/2000/svg" viewBox="0 0 77.9 77.9"><defs><style>.ecf4a15c-6284-415c-84ed-8e2c89a7a188{fill:#455a64;}.a5fa173a-83a3-4d49-9669-7b5a3a813c4e{fill:#fff;}</style></defs><g id="ac25a926-33c3-41c3-8120-85c00449a6bf" data-name="Layer 2"><g id="a8390596-7b31-44f5-884a-0e760e243b96" data-name="Layer 1"><g id="b041f9ce-a48f-46f0-aae1-4030e3926b4e" data-name="phone web"><g id="b516e6af-5547-4d7f-8f12-51638cf677ca" data-name="Group 432"><g id="fe3837d4-1e5e-4da4-88d5-a63900dc8dba" data-name="Background Complete"><g id="b62874b1-1b90-42ff-bfae-ca64e8d54e32" data-name="Group 424"><path id="ea38a066-243f-4fe9-b040-c3403a16d2ad" data-name="Path 1190" class="ecf4a15c-6284-415c-84ed-8e2c89a7a188" d="M46.38,77.17h0A38.94,38.94,0,0,1,.72,46.38h0A39,39,0,0,1,31.52.72h0a39,39,0,0,1,45.66,30.8h0A38.94,38.94,0,0,1,46.38,77.17Z"/><g id="b959db91-cf2a-4e33-8523-da47b298e0d4" data-name="Group 423"><g id="bbfb5e3e-d597-45e3-876a-6035654a2614" data-name="Group 422"><rect id="b22402b9-0e39-41e2-8b20-31a7dcbcbc4a" data-name="Rectangle 4062" class="a5fa173a-83a3-4d49-9669-7b5a3a813c4e" x="22.37" y="32.79" width="8.06" height="26.04" transform="translate(-8.26 5.88) rotate(-11)"/><path id="ef9c34b1-2aa1-413c-b14b-6ef11889fd1b" data-name="Path 1191" class="a5fa173a-83a3-4d49-9669-7b5a3a813c4e" d="M23.23,29.69a4.8,4.8,0,1,0-5.6-3.84v0a4.79,4.79,0,0,0,5.59,3.81Z"/></g><path id="b9379833-73a8-4685-b402-041b21199ec4" data-name="Path 1192" class="a5fa173a-83a3-4d49-9669-7b5a3a813c4e" d="M42.88,41.94c-.7-3.59.54-6,3.7-6.67,2.91-.56,4.71,1.22,5.43,4.9l2.6,13.41,7.88-1.53L59.34,35.87C58,29,53.49,26.47,48.07,27.52a9.09,9.09,0,0,0-6.88,5.72l-.67-3.44-7.59,1.48,5,25.55,7.59-1.47Z"/></g></g></g></g></g></g></g></svg>