<svg xmlns="http://www.w3.org/2000/svg" viewBox="0 0 261.75 347.03"><defs><style>.fbf84ab4-c0de-44ff-bba2-96ea3ab94958{fill:#ffbe9d;}.a1a04f79-9412-46a4-86a3-1309414ce923{fill:#ddcfd0;}.bec10d07-fff8-4b1c-96c8-f4a57a14eeda{fill:#cbc4c5;}.ae9fbebd-30a8-4033-8e79-921639e1b21d{opacity:0.4;}.e74270dd-9685-419a-9a47-15e39f65c6b5{opacity:0.5;}.b94d784e-6947-4635-9621-2aec211b4b16{opacity:0.6;}.e6c19c00-848d-4262-8e08-7ec4a2f17d77{fill:#847b7c;}.b9298cbb-7be0-476b-93ee-4ca89a1c9f9f{fill:#eb996e;}</style></defs><g id="ebf30b44-1b33-4035-8f2e-ab2669761d15" data-name="Layer 2"><g id="b6a07547-9503-4618-b55c-5f9d4bae68b7" data-name="Layer 1"><g id="ac5a5b79-87ef-490d-90e7-139dd2a7d4ab" data-name="phone web"><g id="e965b330-0715-4296-a933-c7a2bc65ff7a" data-name="Group 421"><g id="b803c695-c0ac-4fbe-ac9d-b6fa82b1e569" data-name="Group 415"><g id="a39a9f5d-429e-48ef-a4cd-1c3cdde7a76b" data-name="Group 413"><g id="a922e671-7908-4527-9af9-9ae99ab90c97" data-name="Group 395"><path id="fbbd947a-bf09-47d6-96d5-42d731132d4c" data-name="Path 1167" class="fbf84ab4-c0de-44ff-bba2-96ea3ab94958" d="M83.44,265.06l-3.68-12.4c-.65-2.68-1.5-5.85-2.65-9.47-1-3.25-3.69-6.67-6.11-9.13-3.76-3.83-5.55-3.86-8.08-5.89-.23-.15-.49-.36-.7-.47A4,4,0,0,1,61,226.63c-2.18-2.36-.09-6,4.34-5.66,3.33.26,8.77,1.22,17.61,10.34.11.14.23.25.34.4,4.64,6,9-11.19,9.78-17.6a6.71,6.71,0,0,1,7.68-5.59,6.17,6.17,0,0,1,1.4.38L123.68,219a10.1,10.1,0,0,1,6.29.21,6.4,6.4,0,0,1,4.1,7.6l-8.74,34.87L151,347H95.68Z"/></g><g id="b774cd78-4046-4b07-83e9-7652119c6395" data-name="Group 411"><g id="a891d664-a481-43cc-beba-21df1fc02ef4" data-name="Group 403"><g id="af59440d-af73-40d1-affc-b0fb99ecc6b6" data-name="Group 397"><g id="acc5c1d2-a217-4c30-8f76-7ac6e4d6595f" data-name="Group 396"><path id="f21c4d4d-345f-4567-a22c-448a84929491" data-name="Path 1168" class="a1a04f79-9412-46a4-86a3-1309414ce923" d="M41,186.64l17.1,33.5,8.54-2.37,43,34.95a8.7,8.7,0,0,0,12.09-1.07l16.36-19s-33-14.21-39.09-26,.95-14.43.95-14.43L84.35,174.59Z"/></g></g><g id="e2b62205-0d1a-4af9-965e-f3bea679ce47" data-name="Group 398"><path id="a5b0757e-dfc4-4275-94bf-0af4b6d2958e" data-name="Path 1169" class="bec10d07-fff8-4b1c-96c8-f4a57a14eeda" d="M63.13,118.21s25-5.53,60.24-39.4S175.13,0,179.44.2s23.13-8.52,58.93,69.35,21.7,96,14.58,95.8-55.5-13.62-85.7-10.19-69,19.18-69,19.18Z"/></g><g id="b821e2b9-ba05-42fe-83e1-067775cbc522" data-name="Group 399"><path id="fff044bd-48e1-4311-898b-d288ce7634f9" data-name="Path 1170" class="a1a04f79-9412-46a4-86a3-1309414ce923" d="M10,160.65l8.53,16.24,3.83,7.27a21.19,21.19,0,0,0,27.61,9.38l53.64-18.69L72.34,103.54,18.75,132.09A21.19,21.19,0,0,0,10,160.65Z"/></g><g id="fc1d1e27-8ac0-465f-86d2-9e595555105d" data-name="Group 400" class="ae9fbebd-30a8-4033-8e79-921639e1b21d"><path id="ed1e00e9-c3a2-4d64-b899-b7f5721eef92" data-name="Path 1171" d="M10,160.65l8.53,16.24,3.83,7.27a21.19,21.19,0,0,0,27.61,9.38l53.64-18.69L72.34,103.54,18.75,132.09A21.19,21.19,0,0,0,10,160.65Z"/></g><g id="a5c7bb12-68a7-4fe0-9c8d-91d70c537c27" data-name="Group 401"><path id="ecb30ee2-352e-44de-9cff-18d9049a2b25" data-name="Path 1172" d="M235.48,71c19.05,42.18,27,79.77,17.71,84S221,128.3,201.91,86.12s-27-79.77-17.71-84S216.42,28.78,235.48,71Z"/></g><g id="a9e98411-4de8-4b8d-a72e-0bec5a3f0964" data-name="Group 402" class="e74270dd-9685-419a-9a47-15e39f65c6b5"><path id="a83a485f-f7a9-400b-99ed-30454553b527" data-name="Path 1173" d="M235.48,71c19.05,42.18,27,79.77,17.71,84S221,128.3,201.91,86.12s-27-79.77-17.71-84S216.42,28.78,235.48,71Z"/></g></g><g id="fd661d76-0644-4225-89d0-f910f9b415a1" data-name="Group 404"><path id="a482e638-d06c-49e8-8d0b-673465d68eed" data-name="Path 1174" class="bec10d07-fff8-4b1c-96c8-f4a57a14eeda" d="M5.36,184.11l14.54-4.57-9-17.1L0,169.21Z"/></g><g id="a1a8feec-aade-4610-8dbe-54f5304bc886" data-name="Group 405" class="b94d784e-6947-4635-9621-2aec211b4b16"><path id="af30ae70-7ca3-4d96-8389-22c357695d39" data-name="Path 1175" d="M10.91,162.44l9,17.1-3,.94L9.61,163.25Z"/></g><g id="a2916582-fd81-4f76-862f-bca9fafcd54b" data-name="Group 406"><path id="bfafab29-e4d0-48af-8c1b-f3be732a2bb9" data-name="Path 1176" class="bec10d07-fff8-4b1c-96c8-f4a57a14eeda" d="M20.92,166.38c.22.47,7.47-2.35,16.2-6.3s15.65-7.53,15.44-8-7.47,2.35-16.21,6.3S20.71,165.91,20.92,166.38Z"/></g><g id="a5cf2c2d-7af5-422f-a678-4550562bfd4c" data-name="Group 407"><path id="a49d933c-4f78-4202-be37-b0fa9658ba19" data-name="Path 1177" class="bec10d07-fff8-4b1c-96c8-f4a57a14eeda" d="M16.45,156.19c.23.47,6.8-2.3,14.67-6.18s14.07-7.39,13.84-7.85-6.79,2.3-14.67,6.18S16.22,155.73,16.45,156.19Z"/></g><g id="a7709f48-f00a-4e39-9439-819f3c4057c7" data-name="Group 408"><path id="ec84b3c8-825c-4c7d-9d0f-847548b21507" data-name="Path 1178" class="bec10d07-fff8-4b1c-96c8-f4a57a14eeda" d="M26.56,177.07c.08.25,1.8-.15,4.56-1,1.38-.43,3-1,4.81-1.59s3.66-1.59,5.65-2.49c8-3.7,14-7.31,13.83-7.74s-6.73,2.38-14.61,6c-2,.9-3.81,1.88-5.54,2.6s-3.29,1.35-4.59,1.93C28.07,176,26.49,176.82,26.56,177.07Z"/></g><g id="a7d13e61-4c73-4cf1-b5af-f013e355c406" data-name="Group 409"><path id="e3698b92-cfbc-4d3b-88aa-4c75b15bdf2e" data-name="Path 1179" class="e6c19c00-848d-4262-8e08-7ec4a2f17d77" d="M196.64,61.58s21.75-13.49,33.65,15.9-11,34.22-11,34.22A195.75,195.75,0,0,1,196.64,61.58Z"/></g><g id="a8e03757-99b9-406e-a11e-c4b1f27ec297" data-name="Group 410" class="e74270dd-9685-419a-9a47-15e39f65c6b5"><path id="e59a2052-cfb2-4227-a23c-7292f84a0f8d" data-name="Path 1180" d="M173.51,26.56c-.13,0,.18,2,.85,5.61s1.66,8.8,3,15.2c.92,3.16,1.93,6.6,3,10.29q.83,2.78,1.69,5.73c.3,1,.59,2,.89,3s.75,2,1.13,3c1.56,4,3.21,8.28,4.91,12.68.43,1.1.86,2.21,1.3,3.32s1,2.18,1.53,3.29l3.23,6.66q1.64,3.39,3.24,6.67c.56,1.08,1,2.2,1.64,3.23l1.81,3.08,6.93,11.7c.57.92,1.08,1.86,1.67,2.74l1.81,2.55,3.46,4.88,6.23,8.73c4.16,5,7.65,9,10.05,11.77s3.79,4.23,3.89,4.14-1.1-1.71-3.33-4.6l-9.58-12.15-6-8.8c-1.09-1.57-2.2-3.2-3.36-4.88l-1.76-2.55c-.57-.88-1.07-1.82-1.62-2.75l-6.79-11.68-1.79-3.06c-.61-1-1.06-2.14-1.61-3.22q-1.59-3.25-3.21-6.62l-3.22-6.61c-.51-1.1-1.11-2.15-1.53-3.26s-.87-2.2-1.3-3.3c-1.72-4.35-3.39-8.55-5-12.55-.39-1-.82-2-1.15-3s-.62-2-.93-3q-.9-2.93-1.76-5.67c-1.15-3.65-2.23-7-3.21-10.16l-3.62-15A35.34,35.34,0,0,0,173.51,26.56Z"/></g></g><g id="ba61a0c9-6631-4926-8f6a-4fbf48435137" data-name="Group 412" class="ae9fbebd-30a8-4033-8e79-921639e1b21d"><path id="e77607e2-9135-4a9d-a36c-20a83f5b4b2b" data-name="Path 1181" d="M132.81,230.3c-2,3.6-4,7.26-7,10.14s-7,4.92-11.06,4.51-8-3.81-8-7.92c-2,1.47-5,.67-6.6-1.17S98,231.46,97.84,229c-2.67,1.58-6.38.33-8.16-2.2s-1.89-5.95-1-8.92a31.3,31.3,0,0,1,4.29-8.2c-2.06.16-4.23.3-6.07-.63s-3.08-3.36-2-5.12a5,5,0,0,1,3-1.9c3.21-1,5.47-1.82,8.82-1.43.78,0-1.34,8.84,19.69,20.91C128.78,228.65,132.81,230.3,132.81,230.3Z"/></g></g><g id="f72eb1ee-669d-400d-b4ee-f7950802a419" data-name="Group 414"><path id="b4a8a597-7a5a-47da-81c0-51a0aef57c9c" data-name="Path 1182" class="b9298cbb-7be0-476b-93ee-4ca89a1c9f9f" d="M85.45,243.06c0,.1,1.42-.17,3.69-.11a20.78,20.78,0,0,1,15.45,7.41c1.47,1.73,2.14,3,2.22,2.94a3.45,3.45,0,0,0-.41-.92,17.89,17.89,0,0,0-1.51-2.27,19.73,19.73,0,0,0-15.75-7.55,16.58,16.58,0,0,0-2.72.25A3,3,0,0,0,85.45,243.06Z"/></g><path id="e13962dd-4a11-4b49-963b-e694f1df3594" data-name="Path 1183" class="fbf84ab4-c0de-44ff-bba2-96ea3ab94958" d="M131.43,224.7c-3.38,3.26-5.7,6.85-9.25,10.13-1.62,1.48-4.13,4.31-6.29,4.68s-3.55.09-4.41-1.93c-.69-1.64.56-3.88,1.42-5.23,2.26-3.55,4.42-6.33,6.12-9.09.79-1.29-.24-1.56-.61-1-1.63,1.69-4.06,3.16-5.52,5-2,2.52-2.36,5.85-7.6,4.8a4.75,4.75,0,0,1-1.94-.81c-2-1.51-2-4.13-1.22-6.23a17,17,0,0,1,2.91-4.41c-2.23,2.52-4.66,5.17-8.2,5.45a4.89,4.89,0,0,1-5-2.68c-1-2.38.46-4.68,2-6.54a68.19,68.19,0,0,1,8.9-9.08,6.72,6.72,0,0,1,4.32-1.6c1.83,0,4.12.33,5.25,1.92a7.12,7.12,0,0,1,1.43,5.45s4.59-2.33,8.28.11a11.69,11.69,0,0,1,4.6,6.62Z"/><path id="b4fe9e0e-cbbc-4993-846c-2a9551763e77" data-name="Path 1184" class="fbf84ab4-c0de-44ff-bba2-96ea3ab94958" d="M107,205.19a5.51,5.51,0,0,0,.65-6.22c-.78-1.53-1.77-3-2.77-3.35-4.37-1.48-23.46,1.82-23.28,6.06s1.57,6.27,11.93,4.77c1.82-.26,4.68-.62,4.68-.62l2.5,3.75Z"/></g><g id="a8a71d01-afce-43c8-9e85-50ebf3bcdc5f" data-name="Group 416"><path id="af662a8f-ec1e-4385-bf29-28c8a41fed33" data-name="Path 1185" class="b9298cbb-7be0-476b-93ee-4ca89a1c9f9f" d="M103.57,222.93a25.11,25.11,0,0,1,10.52-9.54,6.32,6.32,0,0,0-2,.71,18.11,18.11,0,0,0-7.59,6.89A6,6,0,0,0,103.57,222.93Z"/></g><g id="a0da0e90-582b-473e-b2e4-8e7e96c419c0" data-name="Group 417"><path id="b4e8469e-7000-44b4-9dcf-b07635d6e2fc" data-name="Path 1186" class="b9298cbb-7be0-476b-93ee-4ca89a1c9f9f" d="M100.36,209.91c.1.09,1.36-.94,3.08-2a20.29,20.29,0,0,1,2.24-1.24c.59-.28,1-.35,1-.43s-.45-.13-1.12.07a10.46,10.46,0,0,0-2.39,1.13C101.39,208.53,100.23,209.79,100.36,209.91Z"/></g><g id="ed8e1e9e-975c-48db-82aa-2c9d2cb15cd5" data-name="Group 418"><path id="a86f88a5-65df-430b-9edc-27978baa989b" data-name="Path 1187" class="b9298cbb-7be0-476b-93ee-4ca89a1c9f9f" d="M97.16,206a8.32,8.32,0,0,0,3.67-.41,6.69,6.69,0,0,0,2.36-1.24c.52-.44.74-.82.69-.86a15.61,15.61,0,0,1-3.2,1.58C98.78,205.59,97.13,205.79,97.16,206Z"/></g><g id="a1626dbe-0530-42c8-9a82-0ca69cf2ed7f" data-name="Group 419"><path id="b3970ac4-d6ce-465a-a1f0-39b51f4170ab" data-name="Path 1188" class="b9298cbb-7be0-476b-93ee-4ca89a1c9f9f" d="M115.71,228.17a13.6,13.6,0,0,0,1.74-2.26,20.75,20.75,0,0,1,4.46-5.07,9,9,0,0,1,6.31-1.67,11.79,11.79,0,0,1,2.66.85s-.18-.22-.61-.48a6,6,0,0,0-2-.75,8.91,8.91,0,0,0-6.69,1.61,18.19,18.19,0,0,0-4.46,5.3A16.81,16.81,0,0,0,115.71,228.17Z"/></g><g id="fdecb271-317c-47f5-a3c9-d7bb84f5a607" data-name="Group 420"><path id="b8488d7e-c516-4d1b-8f2a-d97a10d246ef" data-name="Path 1189" class="b9298cbb-7be0-476b-93ee-4ca89a1c9f9f" d="M101.11,270.39a56.81,56.81,0,0,0,7.8,1.13,57.39,57.39,0,0,0,7.86.58A57,57,0,0,0,109,271,57.52,57.52,0,0,0,101.11,270.39Z"/></g></g></g></g></g></svg>