<svg xmlns="http://www.w3.org/2000/svg" viewBox="0 0 58.44 58.44"><defs><style>.b94f7d4b-ddca-4d58-ab49-64867b0e4381{fill:#5224ee;}.ab644b30-591f-4574-92b2-6463d21e6b3c{fill:#fff;}</style></defs><g id="a9d7ef3e-99f1-46b3-bdaa-892c067ccedd" data-name="Layer 2"><g id="a674269b-083a-47a0-9020-a58d74669665" data-name="Layer 1"><g id="b8064582-5ef4-4297-a364-26662810e2a1" data-name="phone web"><g id="e3bbaef5-22e5-48c0-8c46-875606c5263e" data-name="Group 432"><g id="a9f4e7f0-5076-4ed7-98b8-8c6bba34f2f4" data-name="Icons"><g id="fc372100-9f4f-4e15-be6e-ac6471b6d6bd" data-name="Group 425"><path id="a262bf01-3612-44f2-8dac-4065ecfff9db" data-name="Path 1193" class="b94f7d4b-ddca-4d58-ab49-64867b0e4381" d="M42,55.49h0A29.21,29.21,0,0,1,3,42H3A29.21,29.21,0,0,1,16.44,3h0A29.21,29.21,0,0,1,55.49,16.44h0A29.21,29.21,0,0,1,42,55.49Z"/><path id="b2a4c891-a749-4899-ae59-e19284411ddb" data-name="Path 1194" class="ab644b30-591f-4574-92b2-6463d21e6b3c" d="M22,35.75a.68.68,0,0,0,.71-.66.78.78,0,0,0,0-.22c-.07-.36-.26-1.25-.33-1.62s-.23-.64-.75-.87a5.79,5.79,0,0,1-2.89-2.94,9.44,9.44,0,0,1,4.21-12.67l.44-.21c4.81-2.34,8.89-.68,10.8,3.24,2.51,5.17,2.35,10.64-1,12.3a3.09,3.09,0,0,1-4.19-1.22A3.3,3.3,0,0,1,28.6,30c-.56-2.53-.71-5.49-1.51-7.13-.71-1.47-2.1-2.31-3.72-1.51-1.92.93-2.5,3.66-1.2,6.32a7.49,7.49,0,0,0,1.95,2.55s2.08,9.27,2.44,10.89A22.33,22.33,0,0,0,29.82,48a.26.26,0,0,0,.37.06.29.29,0,0,0,.11-.16,21.4,21.4,0,0,0,.38-7.44c-.17-.9-1.13-5.54-1.13-5.54A5.69,5.69,0,0,0,35,35c5.76-2.8,7.12-10,3.7-17-2.59-5.31-9.5-8.07-16.34-4.74C13.86,17.41,12.53,25.6,15,30.69,16.5,33.77,19,36,22,35.75Z"/></g></g></g></g></g></g></svg>