<svg xmlns="http://www.w3.org/2000/svg" viewBox="0 0 61.07 61.07"><defs><style>.a89148fb-0f1c-42ae-9ff9-f7134db8e23f{fill:#5224ee;}.a4d8a138-4bc6-4fb2-b2e4-8c0b5e96a1a9{fill:#fff;}</style></defs><g id="b7454573-0aa8-471a-b08a-e7a8cc247181" data-name="Layer 2"><g id="ab87ba36-8f06-4301-9488-cef81f56c415" data-name="Layer 1"><g id="fd2d49ea-80ab-47e9-89a8-717b0eb12762" data-name="phone web"><g id="a0f024a1-9f3d-4670-a0a6-6ec377c32a6a" data-name="Group 432"><g id="f6245940-29e2-49de-986b-bbece02d035b" data-name="Icons"><g id="b62cc92b-63ab-4639-be2e-b0c2a6efe723" data-name="Group 428"><path id="b634e14b-23e5-4f65-befe-fb66d40b31d8" data-name="Path 1198" class="a89148fb-0f1c-42ae-9ff9-f7134db8e23f" d="M30.53,61.07h0A30.53,30.53,0,0,1,0,30.54H0A30.53,30.53,0,0,1,30.53,0h0A30.53,30.53,0,0,1,61.07,30.53h0A30.53,30.53,0,0,1,30.54,61.07Z"/><path id="b7461700-9371-4b38-ab0c-4b0c701abe1c" data-name="Path 1199" class="a4d8a138-4bc6-4fb2-b2e4-8c0b5e96a1a9" d="M14.26,40.76a18.94,18.94,0,0,0,10.23,3c12.4,0,19.4-10.47,19-19.86a13.66,13.66,0,0,0,3.33-3.45A13.43,13.43,0,0,1,43,21.5a6.72,6.72,0,0,0,2.94-3.69,13.74,13.74,0,0,1-4.24,1.62,6.68,6.68,0,0,0-11.38,6.08,18.91,18.91,0,0,1-13.75-7,6.68,6.68,0,0,0,2.06,8.91,6.67,6.67,0,0,1-3-.83,6.69,6.69,0,0,0,5.35,6.63,6.8,6.8,0,0,1-3,.11A6.67,6.67,0,0,0,24.14,38,13.4,13.4,0,0,1,14.26,40.76Z"/></g></g></g></g></g></g></svg>