<svg xmlns="http://www.w3.org/2000/svg" viewBox="0 0 80.11 80.11"><defs><style>.befc4c8c-17f3-4696-b0eb-f693d29b76f4{fill:#5224ee;}.ad179f4c-c383-4a1a-99e3-add5554c33c3{fill:#fff;fill-rule:evenodd;}</style></defs><g id="b02f6185-9682-4a10-8c12-564c9dbb7576" data-name="Layer 2"><g id="b8eb382e-a5f5-4a41-b705-b08333117362" data-name="Layer 1"><g id="a14a76f6-c6a6-4392-9261-a95aab73cf7f" data-name="phone web"><g id="a08d6a85-9a27-418d-8ae9-e642f62f7df9" data-name="Group 432"><g id="f9bae090-0f51-4676-b981-eeb0c658c084" data-name="Icons"><g id="f36f430e-e46b-45b4-b3e5-979823fa9e72" data-name="Group 427"><path id="a4a0ef64-c059-4d6f-ac2f-0ad5e19230de" data-name="Path 1195" class="befc4c8c-17f3-4696-b0eb-f693d29b76f4" d="M25.76,77.46h0A40,40,0,0,1,2.65,25.77h0A40,40,0,0,1,54.35,2.65h0a40,40,0,0,1,23.11,51.7h0A40,40,0,0,1,25.77,77.46Z"/><g id="ff1ef9bf-3fba-41cf-aa8b-4267064322fc" data-name="Group 426"><path id="f6bb245a-c221-4774-95c2-5758aef951ca" data-name="Path 1196" class="ad179f4c-c383-4a1a-99e3-add5554c33c3" d="M61,46.86A21.57,21.57,0,0,0,20.84,31.11c-.12.29-.24.58-.35.87a21.12,21.12,0,0,0-1.06,11.43L11.7,52.74l12.51.72a21.59,21.59,0,0,0,36.56-6.09C60.84,47.2,60.9,47,61,46.86ZM34.21,56.48A18,18,0,0,1,26,50.14l-7.3-.41,4.5-5.44a17.91,17.91,0,0,1,.54-11.09c.21-.54.45-1.07.71-1.6A18.14,18.14,0,0,1,58,44.81c-.13.45-.27.89-.44,1.34A18.08,18.08,0,0,1,34.21,56.48Z"/><path id="a9e7f368-e3b4-4936-bbda-ae277a7c614a" data-name="Path 1197" class="ad179f4c-c383-4a1a-99e3-add5554c33c3" d="M48.32,47.24c-.41-.44-2.38-2.55-2.77-2.88s-.69-.55-1.2-.18-1.9,1.1-2.3,1.31-.72.15-1.13-.29a14.48,14.48,0,0,1-3-4,15.44,15.44,0,0,1-1.44-4.43c-.1-.6.26-.77.6-.92s.71-.39,1.07-.57l.27-.17a5.93,5.93,0,0,0,.53-.47,1,1,0,0,0,.29-.87c0-.29-.1-3.08-.13-4.22s-.51-1.13-.8-1.24-.6-.28-.93-.41a2,2,0,0,0-1.55.11A5.87,5.87,0,0,0,32.5,31.5a6.6,6.6,0,0,0-.39,1.76,11.9,11.9,0,0,0,.47,4.07c.12.42,1.34,6.74,5.6,10.63s4.53,3.22,5.47,3.48,3.37-.06,4.22-1.06a4.37,4.37,0,0,0,1.18-2.22C49,47.92,48.71,47.67,48.32,47.24Z"/></g></g></g></g></g></g></g></svg>